<?xml version="1.0" encoding="utf-8"?>
<svg xmlns="http://www.w3.org/2000/svg" xmlns:xlink="http://www.w3.org/1999/xlink" width="672" height="480" viewBox="0 0 2688 1920">
<defs>
  <clipPath id="clip990">
    <rect x="0" y="0" width="2688" height="1920"/>
  </clipPath>
</defs>
<path clip-path="url(#clip990)" d="
M0 1920 L2688 1920 L2688 0 L0 0  Z
  " fill="#ffffff" fill-rule="evenodd" fill-opacity="1"/>
<defs>
  <clipPath id="clip991">
    <rect x="537" y="0" width="1883" height="1883"/>
  </clipPath>
</defs>
<defs>
  <clipPath id="clip992">
    <rect x="1518" y="127" width="1124" height="1674"/>
  </clipPath>
</defs>
<path clip-path="url(#clip990)" d="
M189.154 1800.78 L2640.76 1800.78 L2640.76 127.792 L189.154 127.792  Z
  " fill="#ffffff" fill-rule="evenodd" fill-opacity="1"/>
<defs>
  <clipPath id="clip993">
    <rect x="189" y="127" width="2453" height="1674"/>
  </clipPath>
</defs>
<polyline clip-path="url(#clip993)" style="stroke:#000000; stroke-linecap:round; stroke-linejoin:round; stroke-width:2; stroke-opacity:0.1; fill:none" points="
  258.539,1800.78 258.539,127.792 
  "/>
<polyline clip-path="url(#clip993)" style="stroke:#000000; stroke-linecap:round; stroke-linejoin:round; stroke-width:2; stroke-opacity:0.1; fill:none" points="
  836.747,1800.78 836.747,127.792 
  "/>
<polyline clip-path="url(#clip993)" style="stroke:#000000; stroke-linecap:round; stroke-linejoin:round; stroke-width:2; stroke-opacity:0.1; fill:none" points="
  1414.95,1800.78 1414.95,127.792 
  "/>
<polyline clip-path="url(#clip993)" style="stroke:#000000; stroke-linecap:round; stroke-linejoin:round; stroke-width:2; stroke-opacity:0.1; fill:none" points="
  1993.16,1800.78 1993.16,127.792 
  "/>
<polyline clip-path="url(#clip993)" style="stroke:#000000; stroke-linecap:round; stroke-linejoin:round; stroke-width:2; stroke-opacity:0.1; fill:none" points="
  2571.37,1800.78 2571.37,127.792 
  "/>
<polyline clip-path="url(#clip990)" style="stroke:#000000; stroke-linecap:round; stroke-linejoin:round; stroke-width:4; stroke-opacity:1; fill:none" points="
  189.154,1800.78 2640.76,1800.78 
  "/>
<polyline clip-path="url(#clip990)" style="stroke:#000000; stroke-linecap:round; stroke-linejoin:round; stroke-width:4; stroke-opacity:1; fill:none" points="
  258.539,1800.78 258.539,1781.88 
  "/>
<polyline clip-path="url(#clip990)" style="stroke:#000000; stroke-linecap:round; stroke-linejoin:round; stroke-width:4; stroke-opacity:1; fill:none" points="
  836.747,1800.78 836.747,1781.88 
  "/>
<polyline clip-path="url(#clip990)" style="stroke:#000000; stroke-linecap:round; stroke-linejoin:round; stroke-width:4; stroke-opacity:1; fill:none" points="
  1414.95,1800.78 1414.95,1781.88 
  "/>
<polyline clip-path="url(#clip990)" style="stroke:#000000; stroke-linecap:round; stroke-linejoin:round; stroke-width:4; stroke-opacity:1; fill:none" points="
  1993.16,1800.78 1993.16,1781.88 
  "/>
<polyline clip-path="url(#clip990)" style="stroke:#000000; stroke-linecap:round; stroke-linejoin:round; stroke-width:4; stroke-opacity:1; fill:none" points="
  2571.37,1800.78 2571.37,1781.88 
  "/>
<path clip-path="url(#clip990)" d="M228.481 1848.65 L258.157 1848.65 L258.157 1852.59 L228.481 1852.59 L228.481 1848.65 Z" fill="#000000" fill-rule="evenodd" fill-opacity="1" /><path clip-path="url(#clip990)" d="M272.277 1861.55 L288.597 1861.55 L288.597 1865.48 L266.652 1865.48 L266.652 1861.55 Q269.314 1858.79 273.898 1854.16 Q278.504 1849.51 279.685 1848.17 Q281.93 1845.65 282.81 1843.91 Q283.712 1842.15 283.712 1840.46 Q283.712 1837.71 281.768 1835.97 Q279.847 1834.23 276.745 1834.23 Q274.546 1834.23 272.092 1835 Q269.662 1835.76 266.884 1837.31 L266.884 1832.59 Q269.708 1831.46 272.162 1830.88 Q274.615 1830.3 276.652 1830.3 Q282.023 1830.3 285.217 1832.98 Q288.411 1835.67 288.411 1840.16 Q288.411 1842.29 287.601 1844.21 Q286.814 1846.11 284.708 1848.7 Q284.129 1849.37 281.027 1852.59 Q277.925 1855.78 272.277 1861.55 Z" fill="#000000" fill-rule="evenodd" fill-opacity="1" /><path clip-path="url(#clip990)" d="M806.504 1848.65 L836.18 1848.65 L836.18 1852.59 L806.504 1852.59 L806.504 1848.65 Z" fill="#000000" fill-rule="evenodd" fill-opacity="1" /><path clip-path="url(#clip990)" d="M847.083 1861.55 L854.721 1861.55 L854.721 1835.18 L846.411 1836.85 L846.411 1832.59 L854.675 1830.92 L859.351 1830.92 L859.351 1861.55 L866.99 1861.55 L866.99 1865.48 L847.083 1865.48 L847.083 1861.55 Z" fill="#000000" fill-rule="evenodd" fill-opacity="1" /><path clip-path="url(#clip990)" d="M1414.95 1834 Q1411.34 1834 1409.52 1837.57 Q1407.71 1841.11 1407.71 1848.24 Q1407.71 1855.34 1409.52 1858.91 Q1411.34 1862.45 1414.95 1862.45 Q1418.59 1862.45 1420.39 1858.91 Q1422.22 1855.34 1422.22 1848.24 Q1422.22 1841.11 1420.39 1837.57 Q1418.59 1834 1414.95 1834 M1414.95 1830.3 Q1420.77 1830.3 1423.82 1834.9 Q1426.9 1839.49 1426.9 1848.24 Q1426.9 1856.96 1423.82 1861.57 Q1420.77 1866.15 1414.95 1866.15 Q1409.14 1866.15 1406.07 1861.57 Q1403.01 1856.96 1403.01 1848.24 Q1403.01 1839.49 1406.07 1834.9 Q1409.14 1830.3 1414.95 1830.3 Z" fill="#000000" fill-rule="evenodd" fill-opacity="1" /><path clip-path="url(#clip990)" d="M1983.54 1861.55 L1991.18 1861.55 L1991.18 1835.18 L1982.87 1836.85 L1982.87 1832.59 L1991.14 1830.92 L1995.81 1830.92 L1995.81 1861.55 L2003.45 1861.55 L2003.45 1865.48 L1983.54 1865.48 L1983.54 1861.55 Z" fill="#000000" fill-rule="evenodd" fill-opacity="1" /><path clip-path="url(#clip990)" d="M2566.02 1861.55 L2582.34 1861.55 L2582.34 1865.48 L2560.4 1865.48 L2560.4 1861.55 Q2563.06 1858.79 2567.64 1854.16 Q2572.25 1849.51 2573.43 1848.17 Q2575.68 1845.65 2576.56 1843.91 Q2577.46 1842.15 2577.46 1840.46 Q2577.46 1837.71 2575.51 1835.97 Q2573.59 1834.23 2570.49 1834.23 Q2568.29 1834.23 2565.84 1835 Q2563.41 1835.76 2560.63 1837.31 L2560.63 1832.59 Q2563.45 1831.46 2565.91 1830.88 Q2568.36 1830.3 2570.4 1830.3 Q2575.77 1830.3 2578.96 1832.98 Q2582.16 1835.67 2582.16 1840.16 Q2582.16 1842.29 2581.35 1844.21 Q2580.56 1846.11 2578.45 1848.7 Q2577.88 1849.37 2574.77 1852.59 Q2571.67 1855.78 2566.02 1861.55 Z" fill="#000000" fill-rule="evenodd" fill-opacity="1" /><polyline clip-path="url(#clip993)" style="stroke:#000000; stroke-linecap:round; stroke-linejoin:round; stroke-width:2; stroke-opacity:0.1; fill:none" points="
  189.154,1753.43 2640.76,1753.43 
  "/>
<polyline clip-path="url(#clip993)" style="stroke:#000000; stroke-linecap:round; stroke-linejoin:round; stroke-width:2; stroke-opacity:0.1; fill:none" points="
  189.154,1358.86 2640.76,1358.86 
  "/>
<polyline clip-path="url(#clip993)" style="stroke:#000000; stroke-linecap:round; stroke-linejoin:round; stroke-width:2; stroke-opacity:0.1; fill:none" points="
  189.154,964.286 2640.76,964.286 
  "/>
<polyline clip-path="url(#clip993)" style="stroke:#000000; stroke-linecap:round; stroke-linejoin:round; stroke-width:2; stroke-opacity:0.1; fill:none" points="
  189.154,569.713 2640.76,569.713 
  "/>
<polyline clip-path="url(#clip993)" style="stroke:#000000; stroke-linecap:round; stroke-linejoin:round; stroke-width:2; stroke-opacity:0.1; fill:none" points="
  189.154,175.141 2640.76,175.141 
  "/>
<polyline clip-path="url(#clip990)" style="stroke:#000000; stroke-linecap:round; stroke-linejoin:round; stroke-width:4; stroke-opacity:1; fill:none" points="
  189.154,1800.78 189.154,127.792 
  "/>
<polyline clip-path="url(#clip990)" style="stroke:#000000; stroke-linecap:round; stroke-linejoin:round; stroke-width:4; stroke-opacity:1; fill:none" points="
  189.154,1753.43 208.052,1753.43 
  "/>
<polyline clip-path="url(#clip990)" style="stroke:#000000; stroke-linecap:round; stroke-linejoin:round; stroke-width:4; stroke-opacity:1; fill:none" points="
  189.154,1358.86 208.052,1358.86 
  "/>
<polyline clip-path="url(#clip990)" style="stroke:#000000; stroke-linecap:round; stroke-linejoin:round; stroke-width:4; stroke-opacity:1; fill:none" points="
  189.154,964.286 208.052,964.286 
  "/>
<polyline clip-path="url(#clip990)" style="stroke:#000000; stroke-linecap:round; stroke-linejoin:round; stroke-width:4; stroke-opacity:1; fill:none" points="
  189.154,569.713 208.052,569.713 
  "/>
<polyline clip-path="url(#clip990)" style="stroke:#000000; stroke-linecap:round; stroke-linejoin:round; stroke-width:4; stroke-opacity:1; fill:none" points="
  189.154,175.141 208.052,175.141 
  "/>
<path clip-path="url(#clip990)" d="M61.4965 1739.23 Q57.8854 1739.23 56.0567 1742.79 Q54.2512 1746.34 54.2512 1753.47 Q54.2512 1760.57 56.0567 1764.14 Q57.8854 1767.68 61.4965 1767.68 Q65.1307 1767.68 66.9363 1764.14 Q68.765 1760.57 68.765 1753.47 Q68.765 1746.34 66.9363 1742.79 Q65.1307 1739.23 61.4965 1739.23 M61.4965 1735.53 Q67.3067 1735.53 70.3622 1740.13 Q73.4409 1744.72 73.4409 1753.47 Q73.4409 1762.19 70.3622 1766.8 Q67.3067 1771.38 61.4965 1771.38 Q55.6864 1771.38 52.6077 1766.8 Q49.5521 1762.19 49.5521 1753.47 Q49.5521 1744.72 52.6077 1740.13 Q55.6864 1735.53 61.4965 1735.53 Z" fill="#000000" fill-rule="evenodd" fill-opacity="1" /><path clip-path="url(#clip990)" d="M81.6584 1764.83 L86.5427 1764.83 L86.5427 1770.71 L81.6584 1770.71 L81.6584 1764.83 Z" fill="#000000" fill-rule="evenodd" fill-opacity="1" /><path clip-path="url(#clip990)" d="M106.728 1739.23 Q103.117 1739.23 101.288 1742.79 Q99.4824 1746.34 99.4824 1753.47 Q99.4824 1760.57 101.288 1764.14 Q103.117 1767.68 106.728 1767.68 Q110.362 1767.68 112.168 1764.14 Q113.996 1760.57 113.996 1753.47 Q113.996 1746.34 112.168 1742.79 Q110.362 1739.23 106.728 1739.23 M106.728 1735.53 Q112.538 1735.53 115.593 1740.13 Q118.672 1744.72 118.672 1753.47 Q118.672 1762.19 115.593 1766.8 Q112.538 1771.38 106.728 1771.38 Q100.918 1771.38 97.8389 1766.8 Q94.7834 1762.19 94.7834 1753.47 Q94.7834 1744.72 97.8389 1740.13 Q100.918 1735.53 106.728 1735.53 Z" fill="#000000" fill-rule="evenodd" fill-opacity="1" /><path clip-path="url(#clip990)" d="M136.89 1739.23 Q133.279 1739.23 131.45 1742.79 Q129.644 1746.34 129.644 1753.47 Q129.644 1760.57 131.45 1764.14 Q133.279 1767.68 136.89 1767.68 Q140.524 1767.68 142.329 1764.14 Q144.158 1760.57 144.158 1753.47 Q144.158 1746.34 142.329 1742.79 Q140.524 1739.23 136.89 1739.23 M136.89 1735.53 Q142.7 1735.53 145.755 1740.13 Q148.834 1744.72 148.834 1753.47 Q148.834 1762.19 145.755 1766.8 Q142.7 1771.38 136.89 1771.38 Q131.079 1771.38 128.001 1766.8 Q124.945 1762.19 124.945 1753.47 Q124.945 1744.72 128.001 1740.13 Q131.079 1735.53 136.89 1735.53 Z" fill="#000000" fill-rule="evenodd" fill-opacity="1" /><path clip-path="url(#clip990)" d="M62.4919 1344.66 Q58.8808 1344.66 57.0521 1348.22 Q55.2465 1351.76 55.2465 1358.89 Q55.2465 1366 57.0521 1369.56 Q58.8808 1373.11 62.4919 1373.11 Q66.1261 1373.11 67.9317 1369.56 Q69.7604 1366 69.7604 1358.89 Q69.7604 1351.76 67.9317 1348.22 Q66.1261 1344.66 62.4919 1344.66 M62.4919 1340.95 Q68.302 1340.95 71.3576 1345.56 Q74.4363 1350.14 74.4363 1358.89 Q74.4363 1367.62 71.3576 1372.23 Q68.302 1376.81 62.4919 1376.81 Q56.6817 1376.81 53.603 1372.23 Q50.5475 1367.62 50.5475 1358.89 Q50.5475 1350.14 53.603 1345.56 Q56.6817 1340.95 62.4919 1340.95 Z" fill="#000000" fill-rule="evenodd" fill-opacity="1" /><path clip-path="url(#clip990)" d="M82.6538 1370.26 L87.538 1370.26 L87.538 1376.14 L82.6538 1376.14 L82.6538 1370.26 Z" fill="#000000" fill-rule="evenodd" fill-opacity="1" /><path clip-path="url(#clip990)" d="M101.751 1372.2 L118.07 1372.2 L118.07 1376.14 L96.126 1376.14 L96.126 1372.2 Q98.788 1369.45 103.371 1364.82 Q107.978 1360.17 109.158 1358.82 Q111.404 1356.3 112.283 1354.56 Q113.186 1352.8 113.186 1351.12 Q113.186 1348.36 111.242 1346.62 Q109.32 1344.89 106.218 1344.89 Q104.019 1344.89 101.566 1345.65 Q99.1352 1346.42 96.3574 1347.97 L96.3574 1343.24 Q99.1815 1342.11 101.635 1341.53 Q104.089 1340.95 106.126 1340.95 Q111.496 1340.95 114.691 1343.64 Q117.885 1346.32 117.885 1350.81 Q117.885 1352.94 117.075 1354.87 Q116.288 1356.76 114.181 1359.36 Q113.603 1360.03 110.501 1363.24 Q107.399 1366.44 101.751 1372.2 Z" fill="#000000" fill-rule="evenodd" fill-opacity="1" /><path clip-path="url(#clip990)" d="M127.931 1341.58 L146.288 1341.58 L146.288 1345.51 L132.214 1345.51 L132.214 1353.99 Q133.232 1353.64 134.251 1353.48 Q135.269 1353.29 136.288 1353.29 Q142.075 1353.29 145.454 1356.46 Q148.834 1359.63 148.834 1365.05 Q148.834 1370.63 145.362 1373.73 Q141.89 1376.81 135.57 1376.81 Q133.394 1376.81 131.126 1376.44 Q128.88 1376.07 126.473 1375.33 L126.473 1370.63 Q128.556 1371.76 130.779 1372.32 Q133.001 1372.87 135.478 1372.87 Q139.482 1372.87 141.82 1370.77 Q144.158 1368.66 144.158 1365.05 Q144.158 1361.44 141.82 1359.33 Q139.482 1357.23 135.478 1357.23 Q133.603 1357.23 131.728 1357.64 Q129.876 1358.06 127.931 1358.94 L127.931 1341.58 Z" fill="#000000" fill-rule="evenodd" fill-opacity="1" /><path clip-path="url(#clip990)" d="M61.4965 950.084 Q57.8854 950.084 56.0567 953.649 Q54.2512 957.191 54.2512 964.32 Q54.2512 971.427 56.0567 974.992 Q57.8854 978.533 61.4965 978.533 Q65.1307 978.533 66.9363 974.992 Q68.765 971.427 68.765 964.32 Q68.765 957.191 66.9363 953.649 Q65.1307 950.084 61.4965 950.084 M61.4965 946.381 Q67.3067 946.381 70.3622 950.987 Q73.4409 955.57 73.4409 964.32 Q73.4409 973.047 70.3622 977.654 Q67.3067 982.237 61.4965 982.237 Q55.6864 982.237 52.6077 977.654 Q49.5521 973.047 49.5521 964.32 Q49.5521 955.57 52.6077 950.987 Q55.6864 946.381 61.4965 946.381 Z" fill="#000000" fill-rule="evenodd" fill-opacity="1" /><path clip-path="url(#clip990)" d="M81.6584 975.686 L86.5427 975.686 L86.5427 981.566 L81.6584 981.566 L81.6584 975.686 Z" fill="#000000" fill-rule="evenodd" fill-opacity="1" /><path clip-path="url(#clip990)" d="M96.7741 947.006 L115.13 947.006 L115.13 950.941 L101.056 950.941 L101.056 959.413 Q102.075 959.066 103.094 958.904 Q104.112 958.719 105.131 958.719 Q110.918 958.719 114.297 961.89 Q117.677 965.061 117.677 970.478 Q117.677 976.056 114.205 979.158 Q110.732 982.237 104.413 982.237 Q102.237 982.237 99.9685 981.867 Q97.7232 981.496 95.3158 980.756 L95.3158 976.056 Q97.3991 977.191 99.6213 977.746 Q101.844 978.302 104.32 978.302 Q108.325 978.302 110.663 976.195 Q113.001 974.089 113.001 970.478 Q113.001 966.867 110.663 964.76 Q108.325 962.654 104.32 962.654 Q102.445 962.654 100.57 963.07 Q98.7185 963.487 96.7741 964.367 L96.7741 947.006 Z" fill="#000000" fill-rule="evenodd" fill-opacity="1" /><path clip-path="url(#clip990)" d="M136.89 950.084 Q133.279 950.084 131.45 953.649 Q129.644 957.191 129.644 964.32 Q129.644 971.427 131.45 974.992 Q133.279 978.533 136.89 978.533 Q140.524 978.533 142.329 974.992 Q144.158 971.427 144.158 964.32 Q144.158 957.191 142.329 953.649 Q140.524 950.084 136.89 950.084 M136.89 946.381 Q142.7 946.381 145.755 950.987 Q148.834 955.57 148.834 964.32 Q148.834 973.047 145.755 977.654 Q142.7 982.237 136.89 982.237 Q131.079 982.237 128.001 977.654 Q124.945 973.047 124.945 964.32 Q124.945 955.57 128.001 950.987 Q131.079 946.381 136.89 946.381 Z" fill="#000000" fill-rule="evenodd" fill-opacity="1" /><path clip-path="url(#clip990)" d="M62.4919 555.512 Q58.8808 555.512 57.0521 559.077 Q55.2465 562.618 55.2465 569.748 Q55.2465 576.854 57.0521 580.419 Q58.8808 583.961 62.4919 583.961 Q66.1261 583.961 67.9317 580.419 Q69.7604 576.854 69.7604 569.748 Q69.7604 562.618 67.9317 559.077 Q66.1261 555.512 62.4919 555.512 M62.4919 551.808 Q68.302 551.808 71.3576 556.415 Q74.4363 560.998 74.4363 569.748 Q74.4363 578.475 71.3576 583.081 Q68.302 587.665 62.4919 587.665 Q56.6817 587.665 53.603 583.081 Q50.5475 578.475 50.5475 569.748 Q50.5475 560.998 53.603 556.415 Q56.6817 551.808 62.4919 551.808 Z" fill="#000000" fill-rule="evenodd" fill-opacity="1" /><path clip-path="url(#clip990)" d="M82.6538 581.114 L87.538 581.114 L87.538 586.993 L82.6538 586.993 L82.6538 581.114 Z" fill="#000000" fill-rule="evenodd" fill-opacity="1" /><path clip-path="url(#clip990)" d="M96.5426 552.433 L118.765 552.433 L118.765 554.424 L106.218 586.993 L101.334 586.993 L113.14 556.368 L96.5426 556.368 L96.5426 552.433 Z" fill="#000000" fill-rule="evenodd" fill-opacity="1" /><path clip-path="url(#clip990)" d="M127.931 552.433 L146.288 552.433 L146.288 556.368 L132.214 556.368 L132.214 564.841 Q133.232 564.493 134.251 564.331 Q135.269 564.146 136.288 564.146 Q142.075 564.146 145.454 567.317 Q148.834 570.489 148.834 575.905 Q148.834 581.484 145.362 584.586 Q141.89 587.665 135.57 587.665 Q133.394 587.665 131.126 587.294 Q128.88 586.924 126.473 586.183 L126.473 581.484 Q128.556 582.618 130.779 583.174 Q133.001 583.729 135.478 583.729 Q139.482 583.729 141.82 581.623 Q144.158 579.516 144.158 575.905 Q144.158 572.294 141.82 570.188 Q139.482 568.081 135.478 568.081 Q133.603 568.081 131.728 568.498 Q129.876 568.915 127.931 569.794 L127.931 552.433 Z" fill="#000000" fill-rule="evenodd" fill-opacity="1" /><path clip-path="url(#clip990)" d="M52.3067 188.486 L59.9456 188.486 L59.9456 162.12 L51.6354 163.787 L51.6354 159.527 L59.8993 157.861 L64.5752 157.861 L64.5752 188.486 L72.214 188.486 L72.214 192.421 L52.3067 192.421 L52.3067 188.486 Z" fill="#000000" fill-rule="evenodd" fill-opacity="1" /><path clip-path="url(#clip990)" d="M81.6584 186.541 L86.5427 186.541 L86.5427 192.421 L81.6584 192.421 L81.6584 186.541 Z" fill="#000000" fill-rule="evenodd" fill-opacity="1" /><path clip-path="url(#clip990)" d="M106.728 160.94 Q103.117 160.94 101.288 164.504 Q99.4824 168.046 99.4824 175.176 Q99.4824 182.282 101.288 185.847 Q103.117 189.388 106.728 189.388 Q110.362 189.388 112.168 185.847 Q113.996 182.282 113.996 175.176 Q113.996 168.046 112.168 164.504 Q110.362 160.94 106.728 160.94 M106.728 157.236 Q112.538 157.236 115.593 161.842 Q118.672 166.426 118.672 175.176 Q118.672 183.902 115.593 188.509 Q112.538 193.092 106.728 193.092 Q100.918 193.092 97.8389 188.509 Q94.7834 183.902 94.7834 175.176 Q94.7834 166.426 97.8389 161.842 Q100.918 157.236 106.728 157.236 Z" fill="#000000" fill-rule="evenodd" fill-opacity="1" /><path clip-path="url(#clip990)" d="M136.89 160.94 Q133.279 160.94 131.45 164.504 Q129.644 168.046 129.644 175.176 Q129.644 182.282 131.45 185.847 Q133.279 189.388 136.89 189.388 Q140.524 189.388 142.329 185.847 Q144.158 182.282 144.158 175.176 Q144.158 168.046 142.329 164.504 Q140.524 160.94 136.89 160.94 M136.89 157.236 Q142.7 157.236 145.755 161.842 Q148.834 166.426 148.834 175.176 Q148.834 183.902 145.755 188.509 Q142.7 193.092 136.89 193.092 Q131.079 193.092 128.001 188.509 Q124.945 183.902 124.945 175.176 Q124.945 166.426 128.001 161.842 Q131.079 157.236 136.89 157.236 Z" fill="#000000" fill-rule="evenodd" fill-opacity="1" /><path clip-path="url(#clip990)" d="M1341.54 43.6515 Q1341.54 45.9469 1340.11 47.2586 Q1338.67 48.5292 1337.03 48.5292 Q1335.48 48.5292 1334.66 47.6275 Q1333.84 46.7257 1333.84 45.578 Q1333.84 44.0204 1334.98 42.6678 Q1336.13 41.3151 1337.85 41.0282 Q1336.17 39.9625 1333.67 39.9625 Q1332.03 39.9625 1330.6 40.8232 Q1329.2 41.684 1328.34 42.7907 Q1327.52 43.8974 1326.79 45.496 Q1326.09 47.0536 1325.8 47.9964 Q1325.56 48.8981 1325.35 49.8819 L1322.48 61.3589 Q1321.09 66.8104 1321.09 68.7369 Q1321.09 71.1143 1322.24 72.7129 Q1323.38 74.2705 1325.68 74.2705 Q1326.58 74.2705 1327.61 74.0246 Q1328.63 73.7376 1329.94 72.9998 Q1331.29 72.221 1332.48 71.0733 Q1333.71 69.8846 1334.9 67.8762 Q1336.09 65.8677 1336.87 63.2854 Q1337.12 62.3836 1337.94 62.3836 Q1338.96 62.3836 1338.96 63.2034 Q1338.96 63.9002 1338.39 65.3758 Q1337.85 66.8104 1336.66 68.696 Q1335.52 70.5405 1334 72.221 Q1332.48 73.8606 1330.23 75.0083 Q1327.97 76.156 1325.52 76.156 Q1321.99 76.156 1319.65 74.2705 Q1317.32 72.385 1316.46 69.7617 Q1316.25 70.1306 1315.96 70.6225 Q1315.68 71.1143 1314.82 72.221 Q1314 73.2868 1313.05 74.1065 Q1312.11 74.8853 1310.64 75.5002 Q1309.2 76.156 1307.64 76.156 Q1305.68 76.156 1303.91 75.5822 Q1302.19 75.0083 1300.96 73.6966 Q1299.73 72.385 1299.73 70.5815 Q1299.73 68.573 1301.09 67.1794 Q1302.48 65.7447 1304.37 65.7447 Q1305.55 65.7447 1306.5 66.4415 Q1307.48 67.1384 1307.48 68.655 Q1307.48 70.3355 1306.33 71.6062 Q1305.18 72.8769 1303.55 73.2048 Q1305.23 74.2705 1307.73 74.2705 Q1310.43 74.2705 1312.56 71.8931 Q1314.69 69.5157 1315.72 65.5398 Q1318.26 55.9893 1319.24 51.7264 Q1320.23 47.4225 1320.23 45.578 Q1320.23 43.8565 1319.78 42.6678 Q1319.33 41.4791 1318.55 40.9462 Q1317.81 40.3724 1317.11 40.1674 Q1316.46 39.9625 1315.72 39.9625 Q1314.49 39.9625 1313.1 40.4543 Q1311.74 40.9462 1310.1 42.0939 Q1308.5 43.2006 1306.99 45.496 Q1305.47 47.7914 1304.45 50.9476 Q1304.24 51.8904 1303.34 51.8904 Q1302.36 51.8494 1302.36 51.0296 Q1302.36 50.3328 1302.89 48.8981 Q1303.46 47.4225 1304.61 45.578 Q1305.8 43.7335 1307.32 42.0939 Q1308.87 40.4134 1311.13 39.2657 Q1313.42 38.118 1315.88 38.118 Q1316.99 38.118 1318.06 38.3639 Q1319.16 38.5688 1320.47 39.1837 Q1321.83 39.7985 1323.02 41.1512 Q1324.2 42.5038 1324.94 44.4713 Q1325.43 43.5285 1326.09 42.6268 Q1326.79 41.725 1327.85 40.6183 Q1328.96 39.4706 1330.48 38.8148 Q1332.03 38.118 1333.75 38.118 Q1335.43 38.118 1337.07 38.5688 Q1338.71 38.9787 1340.11 40.3314 Q1341.54 41.643 1341.54 43.6515 Z" fill="#000000" fill-rule="evenodd" fill-opacity="1" /><path clip-path="url(#clip990)" d="M1352.65 54.2267 Q1352.65 40.0444 1357.94 28.6084 Q1360.19 23.8127 1363.35 19.7957 Q1366.5 15.7788 1368.59 14.0163 Q1370.68 12.2537 1371.26 12.2537 Q1372.08 12.2537 1372.12 13.0735 Q1372.12 13.4834 1371.01 14.5081 Q1357.48 28.2805 1357.53 54.2267 Q1357.53 80.2549 1370.68 93.4945 Q1372.12 94.9291 1372.12 95.38 Q1372.12 96.1998 1371.26 96.1998 Q1370.68 96.1998 1368.68 94.5192 Q1366.67 92.8386 1363.55 88.9856 Q1360.44 85.1327 1358.18 80.4189 Q1352.65 68.9829 1352.65 54.2267 Z" fill="#000000" fill-rule="evenodd" fill-opacity="1" /><path clip-path="url(#clip990)" d="M1440.3 53.0381 Q1440.79 53.5299 1440.79 54.2267 Q1440.79 54.9236 1440.3 55.4154 Q1439.81 55.9073 1439.11 55.9073 L1386.56 55.9073 Q1385.87 55.9073 1385.37 55.4154 Q1384.88 54.9236 1384.88 54.2267 Q1384.88 53.5299 1385.37 53.0381 Q1385.87 52.5462 1386.56 52.5462 L1439.11 52.5462 Q1439.81 52.5462 1440.3 53.0381 Z" fill="#000000" fill-rule="evenodd" fill-opacity="1" /><path clip-path="url(#clip990)" d="M1490.21 41.0282 Q1490.21 43.8974 1486.07 43.8974 L1471.97 43.8974 L1466.36 72.6309 Q1466.24 73.3687 1466.07 73.7786 Q1465.95 74.1885 1465.58 74.8853 Q1465.25 75.5412 1464.56 75.8691 Q1463.9 76.238 1462.92 76.238 Q1461.69 76.238 1461.07 75.5002 Q1460.5 74.8034 1460.5 73.9426 Q1460.5 73.4097 1461.32 70.8684 L1469.56 43.8974 L1462.59 43.8974 Q1456.03 43.8974 1451.93 50.3737 Q1451.27 51.2345 1450.91 51.3165 Q1450.74 51.3575 1450.58 51.3575 Q1450.13 51.3575 1449.84 51.1525 Q1449.59 50.9476 1449.59 50.7427 L1449.55 50.5377 Q1449.55 50.2508 1450.21 49.1031 Q1450.91 47.9144 1452.14 46.1519 Q1453.41 44.3893 1454.68 42.9957 Q1456.36 41.1921 1458.24 40.2494 Q1460.13 39.2657 1461.07 39.1427 Q1462.05 39.0197 1463.33 39.0197 L1486.85 39.0197 Q1487.92 39.0197 1488.49 39.1017 Q1489.07 39.1427 1489.64 39.6346 Q1490.21 40.0854 1490.21 41.0282 Z" fill="#000000" fill-rule="evenodd" fill-opacity="1" /><path clip-path="url(#clip990)" d="M1497.94 95.38 Q1497.94 94.9701 1499.01 93.9454 Q1512.53 80.173 1512.53 54.2267 Q1512.53 28.1985 1499.54 15.041 Q1497.94 13.5244 1497.94 13.0735 Q1497.94 12.2537 1498.76 12.2537 Q1499.34 12.2537 1501.34 13.9343 Q1503.39 15.6148 1506.47 19.4678 Q1509.58 23.3208 1511.88 28.0346 Q1517.41 39.4706 1517.41 54.2267 Q1517.41 68.409 1512.13 79.845 Q1509.87 84.6408 1506.71 88.6577 Q1503.56 92.6747 1501.47 94.4372 Q1499.38 96.1998 1498.76 96.1998 Q1497.94 96.1998 1497.94 95.38 Z" fill="#000000" fill-rule="evenodd" fill-opacity="1" /><polyline clip-path="url(#clip993)" style="stroke:#009af9; stroke-linecap:round; stroke-linejoin:round; stroke-width:4; stroke-opacity:1; fill:none" points="
  258.539,175.141 273.597,175.141 412.828,175.141 496.5,175.141 567.244,175.141 644.091,175.141 714.938,175.141 790.893,175.141 878.894,175.141 957.099,175.141 
  1025.68,175.141 1100.45,175.141 1175.66,175.141 1217.24,175.141 1258.82,175.141 1298.38,175.141 1337.94,175.141 1358.51,175.141 1379.08,175.141 1389.36,175.141 
  1399.65,175.141 1402.22,175.141 1404.79,175.141 1407.36,175.141 1409.93,175.141 1411.21,175.141 1412.5,175.141 1413.14,175.141 1413.79,175.141 1414.43,175.141 
  1415.07,1753.43 1415.71,1753.43 1416.36,1753.43 1417,1753.43 1417.64,1753.43 1418.93,1753.43 1420.21,1753.43 1424.54,1753.43 1428.87,1753.43 1433.2,1753.43 
  1437.53,1753.43 1446.18,1753.43 1454.84,1753.43 1472.15,1753.43 1489.47,1753.43 1574.02,1753.43 1651.47,1753.43 1723.01,1753.43 1795.47,1753.43 1876.68,1753.43 
  1950.27,1753.43 2034.52,1753.43 2112.53,1753.43 2189.45,1753.43 2264.12,1753.43 2340.67,1753.43 2424.54,1753.43 2546.38,1753.43 2571.37,1753.43 
  "/>
</svg>
