<?xml version="1.0" encoding="utf-8"?>
<svg xmlns="http://www.w3.org/2000/svg" xmlns:xlink="http://www.w3.org/1999/xlink" width="672" height="480" viewBox="0 0 2688 1920">
<defs>
  <clipPath id="clip740">
    <rect x="0" y="0" width="2688" height="1920"/>
  </clipPath>
</defs>
<path clip-path="url(#clip740)" d="
M0 1920 L2688 1920 L2688 0 L0 0  Z
  " fill="#ffffff" fill-rule="evenodd" fill-opacity="1"/>
<defs>
  <clipPath id="clip741">
    <rect x="537" y="0" width="1883" height="1883"/>
  </clipPath>
</defs>
<path clip-path="url(#clip740)" d="
M115.057 1800.78 L2640.76 1800.78 L2640.76 127.792 L115.057 127.792  Z
  " fill="#ffffff" fill-rule="evenodd" fill-opacity="1"/>
<defs>
  <clipPath id="clip742">
    <rect x="115" y="127" width="2527" height="1674"/>
  </clipPath>
</defs>
<polyline clip-path="url(#clip742)" style="stroke:#000000; stroke-linecap:round; stroke-linejoin:round; stroke-width:2; stroke-opacity:0.1; fill:none" points="
  186.539,1800.78 186.539,127.792 
  "/>
<polyline clip-path="url(#clip742)" style="stroke:#000000; stroke-linecap:round; stroke-linejoin:round; stroke-width:2; stroke-opacity:0.1; fill:none" points="
  782.223,1800.78 782.223,127.792 
  "/>
<polyline clip-path="url(#clip742)" style="stroke:#000000; stroke-linecap:round; stroke-linejoin:round; stroke-width:2; stroke-opacity:0.1; fill:none" points="
  1377.91,1800.78 1377.91,127.792 
  "/>
<polyline clip-path="url(#clip742)" style="stroke:#000000; stroke-linecap:round; stroke-linejoin:round; stroke-width:2; stroke-opacity:0.1; fill:none" points="
  1973.59,1800.78 1973.59,127.792 
  "/>
<polyline clip-path="url(#clip742)" style="stroke:#000000; stroke-linecap:round; stroke-linejoin:round; stroke-width:2; stroke-opacity:0.1; fill:none" points="
  2569.27,1800.78 2569.27,127.792 
  "/>
<polyline clip-path="url(#clip740)" style="stroke:#000000; stroke-linecap:round; stroke-linejoin:round; stroke-width:4; stroke-opacity:1; fill:none" points="
  115.057,1800.78 2640.76,1800.78 
  "/>
<polyline clip-path="url(#clip740)" style="stroke:#000000; stroke-linecap:round; stroke-linejoin:round; stroke-width:4; stroke-opacity:1; fill:none" points="
  186.539,1800.78 186.539,1781.88 
  "/>
<polyline clip-path="url(#clip740)" style="stroke:#000000; stroke-linecap:round; stroke-linejoin:round; stroke-width:4; stroke-opacity:1; fill:none" points="
  782.223,1800.78 782.223,1781.88 
  "/>
<polyline clip-path="url(#clip740)" style="stroke:#000000; stroke-linecap:round; stroke-linejoin:round; stroke-width:4; stroke-opacity:1; fill:none" points="
  1377.91,1800.78 1377.91,1781.88 
  "/>
<polyline clip-path="url(#clip740)" style="stroke:#000000; stroke-linecap:round; stroke-linejoin:round; stroke-width:4; stroke-opacity:1; fill:none" points="
  1973.59,1800.78 1973.59,1781.88 
  "/>
<polyline clip-path="url(#clip740)" style="stroke:#000000; stroke-linecap:round; stroke-linejoin:round; stroke-width:4; stroke-opacity:1; fill:none" points="
  2569.27,1800.78 2569.27,1781.88 
  "/>
<path clip-path="url(#clip740)" d="M155.44 1848.65 L185.116 1848.65 L185.116 1852.59 L155.44 1852.59 L155.44 1848.65 Z" fill="#000000" fill-rule="evenodd" fill-opacity="1" /><path clip-path="url(#clip740)" d="M208.055 1835 L196.25 1853.45 L208.055 1853.45 L208.055 1835 M206.828 1830.92 L212.708 1830.92 L212.708 1853.45 L217.639 1853.45 L217.639 1857.34 L212.708 1857.34 L212.708 1865.48 L208.055 1865.48 L208.055 1857.34 L192.454 1857.34 L192.454 1852.82 L206.828 1830.92 Z" fill="#000000" fill-rule="evenodd" fill-opacity="1" /><path clip-path="url(#clip740)" d="M752.165 1848.65 L781.841 1848.65 L781.841 1852.59 L752.165 1852.59 L752.165 1848.65 Z" fill="#000000" fill-rule="evenodd" fill-opacity="1" /><path clip-path="url(#clip740)" d="M795.961 1861.55 L812.281 1861.55 L812.281 1865.48 L790.336 1865.48 L790.336 1861.55 Q792.998 1858.79 797.582 1854.16 Q802.188 1849.51 803.369 1848.17 Q805.614 1845.65 806.494 1843.91 Q807.396 1842.15 807.396 1840.46 Q807.396 1837.71 805.452 1835.97 Q803.531 1834.23 800.429 1834.23 Q798.23 1834.23 795.776 1835 Q793.346 1835.76 790.568 1837.31 L790.568 1832.59 Q793.392 1831.46 795.845 1830.88 Q798.299 1830.3 800.336 1830.3 Q805.707 1830.3 808.901 1832.98 Q812.095 1835.67 812.095 1840.16 Q812.095 1842.29 811.285 1844.21 Q810.498 1846.11 808.392 1848.7 Q807.813 1849.37 804.711 1852.59 Q801.609 1855.78 795.961 1861.55 Z" fill="#000000" fill-rule="evenodd" fill-opacity="1" /><path clip-path="url(#clip740)" d="M1377.91 1834 Q1374.3 1834 1372.47 1837.57 Q1370.66 1841.11 1370.66 1848.24 Q1370.66 1855.34 1372.47 1858.91 Q1374.3 1862.45 1377.91 1862.45 Q1381.54 1862.45 1383.35 1858.91 Q1385.18 1855.34 1385.18 1848.24 Q1385.18 1841.11 1383.35 1837.57 Q1381.54 1834 1377.91 1834 M1377.91 1830.3 Q1383.72 1830.3 1386.77 1834.9 Q1389.85 1839.49 1389.85 1848.24 Q1389.85 1856.96 1386.77 1861.57 Q1383.72 1866.15 1377.91 1866.15 Q1372.1 1866.15 1369.02 1861.57 Q1365.96 1856.96 1365.96 1848.24 Q1365.96 1839.49 1369.02 1834.9 Q1372.1 1830.3 1377.91 1830.3 Z" fill="#000000" fill-rule="evenodd" fill-opacity="1" /><path clip-path="url(#clip740)" d="M1968.24 1861.55 L1984.56 1861.55 L1984.56 1865.48 L1962.62 1865.48 L1962.62 1861.55 Q1965.28 1858.79 1969.86 1854.16 Q1974.47 1849.51 1975.65 1848.17 Q1977.9 1845.65 1978.78 1843.91 Q1979.68 1842.15 1979.68 1840.46 Q1979.68 1837.71 1977.73 1835.97 Q1975.81 1834.23 1972.71 1834.23 Q1970.51 1834.23 1968.06 1835 Q1965.63 1835.76 1962.85 1837.31 L1962.85 1832.59 Q1965.67 1831.46 1968.13 1830.88 Q1970.58 1830.3 1972.62 1830.3 Q1977.99 1830.3 1981.18 1832.98 Q1984.38 1835.67 1984.38 1840.16 Q1984.38 1842.29 1983.57 1844.21 Q1982.78 1846.11 1980.67 1848.7 Q1980.09 1849.37 1976.99 1852.59 Q1973.89 1855.78 1968.24 1861.55 Z" fill="#000000" fill-rule="evenodd" fill-opacity="1" /><path clip-path="url(#clip740)" d="M2572.28 1835 L2560.48 1853.45 L2572.28 1853.45 L2572.28 1835 M2571.06 1830.92 L2576.94 1830.92 L2576.94 1853.45 L2581.87 1853.45 L2581.87 1857.34 L2576.94 1857.34 L2576.94 1865.48 L2572.28 1865.48 L2572.28 1857.34 L2556.68 1857.34 L2556.68 1852.82 L2571.06 1830.92 Z" fill="#000000" fill-rule="evenodd" fill-opacity="1" /><polyline clip-path="url(#clip742)" style="stroke:#000000; stroke-linecap:round; stroke-linejoin:round; stroke-width:2; stroke-opacity:0.1; fill:none" points="
  115.057,1753.43 2640.76,1753.43 
  "/>
<polyline clip-path="url(#clip742)" style="stroke:#000000; stroke-linecap:round; stroke-linejoin:round; stroke-width:2; stroke-opacity:0.1; fill:none" points="
  115.057,1490.38 2640.76,1490.38 
  "/>
<polyline clip-path="url(#clip742)" style="stroke:#000000; stroke-linecap:round; stroke-linejoin:round; stroke-width:2; stroke-opacity:0.1; fill:none" points="
  115.057,1227.33 2640.76,1227.33 
  "/>
<polyline clip-path="url(#clip742)" style="stroke:#000000; stroke-linecap:round; stroke-linejoin:round; stroke-width:2; stroke-opacity:0.1; fill:none" points="
  115.057,964.286 2640.76,964.286 
  "/>
<polyline clip-path="url(#clip742)" style="stroke:#000000; stroke-linecap:round; stroke-linejoin:round; stroke-width:2; stroke-opacity:0.1; fill:none" points="
  115.057,701.237 2640.76,701.237 
  "/>
<polyline clip-path="url(#clip742)" style="stroke:#000000; stroke-linecap:round; stroke-linejoin:round; stroke-width:2; stroke-opacity:0.1; fill:none" points="
  115.057,438.189 2640.76,438.189 
  "/>
<polyline clip-path="url(#clip742)" style="stroke:#000000; stroke-linecap:round; stroke-linejoin:round; stroke-width:2; stroke-opacity:0.1; fill:none" points="
  115.057,175.141 2640.76,175.141 
  "/>
<polyline clip-path="url(#clip740)" style="stroke:#000000; stroke-linecap:round; stroke-linejoin:round; stroke-width:4; stroke-opacity:1; fill:none" points="
  115.057,1800.78 115.057,127.792 
  "/>
<polyline clip-path="url(#clip740)" style="stroke:#000000; stroke-linecap:round; stroke-linejoin:round; stroke-width:4; stroke-opacity:1; fill:none" points="
  115.057,1753.43 133.955,1753.43 
  "/>
<polyline clip-path="url(#clip740)" style="stroke:#000000; stroke-linecap:round; stroke-linejoin:round; stroke-width:4; stroke-opacity:1; fill:none" points="
  115.057,1490.38 133.955,1490.38 
  "/>
<polyline clip-path="url(#clip740)" style="stroke:#000000; stroke-linecap:round; stroke-linejoin:round; stroke-width:4; stroke-opacity:1; fill:none" points="
  115.057,1227.33 133.955,1227.33 
  "/>
<polyline clip-path="url(#clip740)" style="stroke:#000000; stroke-linecap:round; stroke-linejoin:round; stroke-width:4; stroke-opacity:1; fill:none" points="
  115.057,964.286 133.955,964.286 
  "/>
<polyline clip-path="url(#clip740)" style="stroke:#000000; stroke-linecap:round; stroke-linejoin:round; stroke-width:4; stroke-opacity:1; fill:none" points="
  115.057,701.237 133.955,701.237 
  "/>
<polyline clip-path="url(#clip740)" style="stroke:#000000; stroke-linecap:round; stroke-linejoin:round; stroke-width:4; stroke-opacity:1; fill:none" points="
  115.057,438.189 133.955,438.189 
  "/>
<polyline clip-path="url(#clip740)" style="stroke:#000000; stroke-linecap:round; stroke-linejoin:round; stroke-width:4; stroke-opacity:1; fill:none" points="
  115.057,175.141 133.955,175.141 
  "/>
<path clip-path="url(#clip740)" d="M62.7928 1739.23 Q59.1817 1739.23 57.353 1742.79 Q55.5475 1746.34 55.5475 1753.47 Q55.5475 1760.57 57.353 1764.14 Q59.1817 1767.68 62.7928 1767.68 Q66.427 1767.68 68.2326 1764.14 Q70.0613 1760.57 70.0613 1753.47 Q70.0613 1746.34 68.2326 1742.79 Q66.427 1739.23 62.7928 1739.23 M62.7928 1735.53 Q68.6029 1735.53 71.6585 1740.13 Q74.7372 1744.72 74.7372 1753.47 Q74.7372 1762.19 71.6585 1766.8 Q68.6029 1771.38 62.7928 1771.38 Q56.9826 1771.38 53.904 1766.8 Q50.8484 1762.19 50.8484 1753.47 Q50.8484 1744.72 53.904 1740.13 Q56.9826 1735.53 62.7928 1735.53 Z" fill="#000000" fill-rule="evenodd" fill-opacity="1" /><path clip-path="url(#clip740)" d="M54.8299 1503.73 L62.4687 1503.73 L62.4687 1477.36 L54.1586 1479.03 L54.1586 1474.77 L62.4224 1473.1 L67.0983 1473.1 L67.0983 1503.73 L74.7372 1503.73 L74.7372 1507.66 L54.8299 1507.66 L54.8299 1503.73 Z" fill="#000000" fill-rule="evenodd" fill-opacity="1" /><path clip-path="url(#clip740)" d="M58.4178 1240.68 L74.7372 1240.68 L74.7372 1244.61 L52.7928 1244.61 L52.7928 1240.68 Q55.4549 1237.92 60.0382 1233.29 Q64.6446 1228.64 65.8252 1227.3 Q68.0705 1224.78 68.9502 1223.04 Q69.8529 1221.28 69.8529 1219.59 Q69.8529 1216.84 67.9085 1215.1 Q65.9872 1213.36 62.8854 1213.36 Q60.6863 1213.36 58.2326 1214.13 Q55.8021 1214.89 53.0243 1216.44 L53.0243 1211.72 Q55.8484 1210.59 58.3021 1210.01 Q60.7558 1209.43 62.7928 1209.43 Q68.1631 1209.43 71.3576 1212.11 Q74.552 1214.8 74.552 1219.29 Q74.552 1221.42 73.7418 1223.34 Q72.9548 1225.24 70.8483 1227.83 Q70.2696 1228.5 67.1678 1231.72 Q64.0659 1234.91 58.4178 1240.68 Z" fill="#000000" fill-rule="evenodd" fill-opacity="1" /><path clip-path="url(#clip740)" d="M67.6076 962.932 Q70.964 963.649 72.839 965.918 Q74.7372 968.186 74.7372 971.519 Q74.7372 976.635 71.2187 979.436 Q67.7002 982.237 61.2187 982.237 Q59.0428 982.237 56.728 981.797 Q54.4364 981.381 51.9827 980.524 L51.9827 976.01 Q53.9271 977.144 56.2419 977.723 Q58.5567 978.302 61.0798 978.302 Q65.478 978.302 67.7696 976.566 Q70.0844 974.83 70.0844 971.519 Q70.0844 968.464 67.9317 966.751 Q65.802 965.015 61.9826 965.015 L57.9549 965.015 L57.9549 961.172 L62.1678 961.172 Q65.6169 961.172 67.4455 959.807 Q69.2742 958.418 69.2742 955.825 Q69.2742 953.163 67.3761 951.751 Q65.5011 950.316 61.9826 950.316 Q60.0613 950.316 57.8623 950.733 Q55.6632 951.149 53.0243 952.029 L53.0243 947.862 Q55.6864 947.121 58.0012 946.751 Q60.3391 946.381 62.3993 946.381 Q67.7233 946.381 70.8252 948.811 Q73.927 951.219 73.927 955.339 Q73.927 958.209 72.2835 960.2 Q70.64 962.168 67.6076 962.932 Z" fill="#000000" fill-rule="evenodd" fill-opacity="1" /><path clip-path="url(#clip740)" d="M65.1539 688.031 L53.3484 706.48 L65.1539 706.48 L65.1539 688.031 M63.927 683.957 L69.8066 683.957 L69.8066 706.48 L74.7372 706.48 L74.7372 710.369 L69.8066 710.369 L69.8066 718.517 L65.1539 718.517 L65.1539 710.369 L49.5521 710.369 L49.5521 705.855 L63.927 683.957 Z" fill="#000000" fill-rule="evenodd" fill-opacity="1" /><path clip-path="url(#clip740)" d="M53.8345 420.909 L72.1909 420.909 L72.1909 424.844 L58.1169 424.844 L58.1169 433.316 Q59.1354 432.969 60.1539 432.807 Q61.1724 432.622 62.1909 432.622 Q67.978 432.622 71.3576 435.793 Q74.7372 438.965 74.7372 444.381 Q74.7372 449.96 71.265 453.062 Q67.7928 456.14 61.4734 456.14 Q59.2974 456.14 57.0289 455.77 Q54.7836 455.4 52.3762 454.659 L52.3762 449.96 Q54.4595 451.094 56.6817 451.65 Q58.9039 452.205 61.3808 452.205 Q65.3854 452.205 67.7233 450.099 Q70.0613 447.992 70.0613 444.381 Q70.0613 440.77 67.7233 438.664 Q65.3854 436.557 61.3808 436.557 Q59.5058 436.557 57.6308 436.974 Q55.7789 437.391 53.8345 438.27 L53.8345 420.909 Z" fill="#000000" fill-rule="evenodd" fill-opacity="1" /><path clip-path="url(#clip740)" d="M63.2095 173.277 Q60.0613 173.277 58.2095 175.43 Q56.3808 177.583 56.3808 181.333 Q56.3808 185.06 58.2095 187.236 Q60.0613 189.388 63.2095 189.388 Q66.3576 189.388 68.1863 187.236 Q70.0381 185.06 70.0381 181.333 Q70.0381 177.583 68.1863 175.43 Q66.3576 173.277 63.2095 173.277 M72.4918 158.625 L72.4918 162.884 Q70.7326 162.051 68.927 161.611 Q67.1446 161.171 65.3854 161.171 Q60.7558 161.171 58.3021 164.296 Q55.8715 167.421 55.5243 173.74 Q56.89 171.726 58.9502 170.662 Q61.0104 169.574 63.4872 169.574 Q68.6955 169.574 71.7048 172.745 Q74.7372 175.893 74.7372 181.333 Q74.7372 186.657 71.589 189.875 Q68.4409 193.092 63.2095 193.092 Q57.2141 193.092 54.0428 188.509 Q50.8716 183.902 50.8716 175.176 Q50.8716 166.981 54.7604 162.12 Q58.6493 157.236 65.2002 157.236 Q66.9594 157.236 68.7418 157.583 Q70.5474 157.93 72.4918 158.625 Z" fill="#000000" fill-rule="evenodd" fill-opacity="1" /><path clip-path="url(#clip740)" d="M849.648 28.9478 L849.648 35.9153 Q846.489 34.1734 843.288 33.3227 Q840.129 32.4315 836.888 32.4315 Q829.637 32.4315 825.627 37.0496 Q821.616 41.6271 821.616 49.9314 Q821.616 58.2358 825.627 62.8538 Q829.637 67.4314 836.888 67.4314 Q840.129 67.4314 843.288 66.5807 Q846.489 65.6895 849.648 63.9476 L849.648 70.8341 Q846.529 72.2924 843.167 73.0216 Q839.845 73.7508 836.078 73.7508 Q825.829 73.7508 819.793 67.3098 Q813.757 60.8689 813.757 49.9314 Q813.757 38.832 819.834 32.472 Q825.951 26.1121 836.564 26.1121 Q840.007 26.1121 843.288 26.8413 Q846.57 27.5299 849.648 28.9478 Z" fill="#000000" fill-rule="evenodd" fill-opacity="1" /><path clip-path="url(#clip740)" d="M880.192 32.4315 Q874.197 32.4315 870.713 37.1306 Q867.229 41.7891 867.229 49.9314 Q867.229 58.0738 870.673 62.7728 Q874.156 67.4314 880.192 67.4314 Q886.147 67.4314 889.631 62.7323 Q893.115 58.0333 893.115 49.9314 Q893.115 41.8701 889.631 37.1711 Q886.147 32.4315 880.192 32.4315 M880.192 26.1121 Q889.914 26.1121 895.464 32.4315 Q901.014 38.7509 901.014 49.9314 Q901.014 61.0714 895.464 67.4314 Q889.914 73.7508 880.192 73.7508 Q870.43 73.7508 864.88 67.4314 Q859.371 61.0714 859.371 49.9314 Q859.371 38.7509 864.88 32.4315 Q870.43 26.1121 880.192 26.1121 Z" fill="#000000" fill-rule="evenodd" fill-opacity="1" /><path clip-path="url(#clip740)" d="M951.083 45.1919 L951.083 72.576 L943.629 72.576 L943.629 45.4349 Q943.629 38.994 941.118 35.7938 Q938.606 32.5936 933.583 32.5936 Q927.547 32.5936 924.063 36.4419 Q920.58 40.2903 920.58 46.9338 L920.58 72.576 L913.086 72.576 L913.086 27.2059 L920.58 27.2059 L920.58 34.2544 Q923.253 30.163 926.859 28.1376 Q930.504 26.1121 935.244 26.1121 Q943.062 26.1121 947.073 30.9732 Q951.083 35.7938 951.083 45.1919 Z" fill="#000000" fill-rule="evenodd" fill-opacity="1" /><path clip-path="url(#clip740)" d="M960.603 27.2059 L968.502 27.2059 L982.68 65.2844 L996.858 27.2059 L1004.76 27.2059 L987.744 72.576 L977.616 72.576 L960.603 27.2059 Z" fill="#000000" fill-rule="evenodd" fill-opacity="1" /><path clip-path="url(#clip740)" d="M1032.63 32.4315 Q1026.63 32.4315 1023.15 37.1306 Q1019.66 41.7891 1019.66 49.9314 Q1019.66 58.0738 1023.11 62.7728 Q1026.59 67.4314 1032.63 67.4314 Q1038.58 67.4314 1042.07 62.7323 Q1045.55 58.0333 1045.55 49.9314 Q1045.55 41.8701 1042.07 37.1711 Q1038.58 32.4315 1032.63 32.4315 M1032.63 26.1121 Q1042.35 26.1121 1047.9 32.4315 Q1053.45 38.7509 1053.45 49.9314 Q1053.45 61.0714 1047.9 67.4314 Q1042.35 73.7508 1032.63 73.7508 Q1022.87 73.7508 1017.32 67.4314 Q1011.81 61.0714 1011.81 49.9314 Q1011.81 38.7509 1017.32 32.4315 Q1022.87 26.1121 1032.63 26.1121 Z" fill="#000000" fill-rule="evenodd" fill-opacity="1" /><path clip-path="url(#clip740)" d="M1065.8 9.54393 L1073.26 9.54393 L1073.26 72.576 L1065.8 72.576 L1065.8 9.54393 Z" fill="#000000" fill-rule="evenodd" fill-opacity="1" /><path clip-path="url(#clip740)" d="M1088.08 54.671 L1088.08 27.2059 L1095.54 27.2059 L1095.54 54.3874 Q1095.54 60.8284 1098.05 64.0691 Q1100.56 67.2693 1105.58 67.2693 Q1111.62 67.2693 1115.1 63.421 Q1118.63 59.5726 1118.63 52.9291 L1118.63 27.2059 L1126.08 27.2059 L1126.08 72.576 L1118.63 72.576 L1118.63 65.6084 Q1115.91 69.7404 1112.31 71.7658 Q1108.74 73.7508 1104 73.7508 Q1096.19 73.7508 1092.14 68.8897 Q1088.08 64.0286 1088.08 54.671 M1106.84 26.1121 L1106.84 26.1121 Z" fill="#000000" fill-rule="evenodd" fill-opacity="1" /><path clip-path="url(#clip740)" d="M1148.81 14.324 L1148.81 27.2059 L1164.16 27.2059 L1164.16 32.9987 L1148.81 32.9987 L1148.81 57.6282 Q1148.81 63.1779 1150.31 64.7578 Q1151.85 66.3376 1156.5 66.3376 L1164.16 66.3376 L1164.16 72.576 L1156.5 72.576 Q1147.88 72.576 1144.59 69.3758 Q1141.31 66.1351 1141.31 57.6282 L1141.31 32.9987 L1135.84 32.9987 L1135.84 27.2059 L1141.31 27.2059 L1141.31 14.324 L1148.81 14.324 Z" fill="#000000" fill-rule="evenodd" fill-opacity="1" /><path clip-path="url(#clip740)" d="M1173.96 27.2059 L1181.42 27.2059 L1181.42 72.576 L1173.96 72.576 L1173.96 27.2059 M1173.96 9.54393 L1181.42 9.54393 L1181.42 18.9825 L1173.96 18.9825 L1173.96 9.54393 Z" fill="#000000" fill-rule="evenodd" fill-opacity="1" /><path clip-path="url(#clip740)" d="M1214.59 32.4315 Q1208.6 32.4315 1205.12 37.1306 Q1201.63 41.7891 1201.63 49.9314 Q1201.63 58.0738 1205.07 62.7728 Q1208.56 67.4314 1214.59 67.4314 Q1220.55 67.4314 1224.03 62.7323 Q1227.52 58.0333 1227.52 49.9314 Q1227.52 41.8701 1224.03 37.1711 Q1220.55 32.4315 1214.59 32.4315 M1214.59 26.1121 Q1224.32 26.1121 1229.87 32.4315 Q1235.42 38.7509 1235.42 49.9314 Q1235.42 61.0714 1229.87 67.4314 Q1224.32 73.7508 1214.59 73.7508 Q1204.83 73.7508 1199.28 67.4314 Q1193.77 61.0714 1193.77 49.9314 Q1193.77 38.7509 1199.28 32.4315 Q1204.83 26.1121 1214.59 26.1121 Z" fill="#000000" fill-rule="evenodd" fill-opacity="1" /><path clip-path="url(#clip740)" d="M1285.49 45.1919 L1285.49 72.576 L1278.03 72.576 L1278.03 45.4349 Q1278.03 38.994 1275.52 35.7938 Q1273.01 32.5936 1267.99 32.5936 Q1261.95 32.5936 1258.47 36.4419 Q1254.98 40.2903 1254.98 46.9338 L1254.98 72.576 L1247.49 72.576 L1247.49 27.2059 L1254.98 27.2059 L1254.98 34.2544 Q1257.66 30.163 1261.26 28.1376 Q1264.91 26.1121 1269.65 26.1121 Q1277.46 26.1121 1281.47 30.9732 Q1285.49 35.7938 1285.49 45.1919 Z" fill="#000000" fill-rule="evenodd" fill-opacity="1" /><path clip-path="url(#clip740)" d="M1364.44 27.2059 L1348.03 49.2833 L1365.29 72.576 L1356.5 72.576 L1343.29 54.752 L1330.09 72.576 L1321.3 72.576 L1338.92 48.8377 L1322.79 27.2059 L1331.58 27.2059 L1343.62 43.369 L1355.65 27.2059 L1364.44 27.2059 Z" fill="#000000" fill-rule="evenodd" fill-opacity="1" /><path clip-path="url(#clip740)" d="M1393.73 9.62495 Q1388.3 18.942 1385.66 28.0566 Q1383.03 37.1711 1383.03 46.5287 Q1383.03 55.8863 1385.66 65.0818 Q1388.34 74.2369 1393.73 83.5134 L1387.24 83.5134 Q1381.17 73.9938 1378.13 64.7983 Q1375.13 55.6027 1375.13 46.5287 Q1375.13 37.4952 1378.13 28.3401 Q1381.13 19.1851 1387.24 9.62495 L1393.73 9.62495 Z" fill="#000000" fill-rule="evenodd" fill-opacity="1" /><path clip-path="url(#clip740)" d="M1415.56 14.324 L1415.56 27.2059 L1430.91 27.2059 L1430.91 32.9987 L1415.56 32.9987 L1415.56 57.6282 Q1415.56 63.1779 1417.06 64.7578 Q1418.6 66.3376 1423.26 66.3376 L1430.91 66.3376 L1430.91 72.576 L1423.26 72.576 Q1414.63 72.576 1411.35 69.3758 Q1408.07 66.1351 1408.07 57.6282 L1408.07 32.9987 L1402.6 32.9987 L1402.6 27.2059 L1408.07 27.2059 L1408.07 14.324 L1415.56 14.324 Z" fill="#000000" fill-rule="evenodd" fill-opacity="1" /><path clip-path="url(#clip740)" d="M1439.54 9.62495 L1446.02 9.62495 Q1452.1 19.1851 1455.1 28.3401 Q1458.13 37.4952 1458.13 46.5287 Q1458.13 55.6027 1455.1 64.7983 Q1452.1 73.9938 1446.02 83.5134 L1439.54 83.5134 Q1444.93 74.2369 1447.56 65.0818 Q1450.24 55.8863 1450.24 46.5287 Q1450.24 37.1711 1447.56 28.0566 Q1444.93 18.942 1439.54 9.62495 Z" fill="#000000" fill-rule="evenodd" fill-opacity="1" /><path clip-path="url(#clip740)" d="M1504.27 22.0612 L1489.73 29.92 L1504.27 37.8192 L1501.92 41.7891 L1488.31 33.5658 L1488.31 48.8377 L1483.7 48.8377 L1483.7 33.5658 L1470.08 41.7891 L1467.74 37.8192 L1482.28 29.92 L1467.74 22.0612 L1470.08 18.0508 L1483.7 26.2742 L1483.7 11.0023 L1488.31 11.0023 L1488.31 26.2742 L1501.92 18.0508 L1504.27 22.0612 Z" fill="#000000" fill-rule="evenodd" fill-opacity="1" /><path clip-path="url(#clip740)" d="M1552.28 45.1919 L1552.28 72.576 L1544.82 72.576 L1544.82 45.4349 Q1544.82 38.994 1542.31 35.7938 Q1539.8 32.5936 1534.78 32.5936 Q1528.74 32.5936 1525.26 36.4419 Q1521.77 40.2903 1521.77 46.9338 L1521.77 72.576 L1514.28 72.576 L1514.28 9.54393 L1521.77 9.54393 L1521.77 34.2544 Q1524.45 30.163 1528.05 28.1376 Q1531.7 26.1121 1536.44 26.1121 Q1544.26 26.1121 1548.27 30.9732 Q1552.28 35.7938 1552.28 45.1919 Z" fill="#000000" fill-rule="evenodd" fill-opacity="1" /><path clip-path="url(#clip740)" d="M1585.05 9.62495 Q1579.62 18.942 1576.99 28.0566 Q1574.36 37.1711 1574.36 46.5287 Q1574.36 55.8863 1576.99 65.0818 Q1579.66 74.2369 1585.05 83.5134 L1578.57 83.5134 Q1572.49 73.9938 1569.45 64.7983 Q1566.46 55.6027 1566.46 46.5287 Q1566.46 37.4952 1569.45 28.3401 Q1572.45 19.1851 1578.57 9.62495 L1585.05 9.62495 Z" fill="#000000" fill-rule="evenodd" fill-opacity="1" /><path clip-path="url(#clip740)" d="M1606.88 14.324 L1606.88 27.2059 L1622.24 27.2059 L1622.24 32.9987 L1606.88 32.9987 L1606.88 57.6282 Q1606.88 63.1779 1608.38 64.7578 Q1609.92 66.3376 1614.58 66.3376 L1622.24 66.3376 L1622.24 72.576 L1614.58 72.576 Q1605.95 72.576 1602.67 69.3758 Q1599.39 66.1351 1599.39 57.6282 L1599.39 32.9987 L1593.92 32.9987 L1593.92 27.2059 L1599.39 27.2059 L1599.39 14.324 L1606.88 14.324 Z" fill="#000000" fill-rule="evenodd" fill-opacity="1" /><path clip-path="url(#clip740)" d="M1630.87 9.62495 L1637.35 9.62495 Q1643.42 19.1851 1646.42 28.3401 Q1649.46 37.4952 1649.46 46.5287 Q1649.46 55.6027 1646.42 64.7983 Q1643.42 73.9938 1637.35 83.5134 L1630.87 83.5134 Q1636.25 74.2369 1638.89 65.0818 Q1641.56 55.8863 1641.56 46.5287 Q1641.56 37.1711 1638.89 28.0566 Q1636.25 18.942 1630.87 9.62495 Z" fill="#000000" fill-rule="evenodd" fill-opacity="1" /><path clip-path="url(#clip740)" d="M1666.31 62.2867 L1674.86 62.2867 L1674.86 69.2543 L1668.21 82.2172 L1662.99 82.2172 L1666.31 69.2543 L1666.31 62.2867 Z" fill="#000000" fill-rule="evenodd" fill-opacity="1" /><path clip-path="url(#clip740)" d="M1743.44 34.1734 Q1742.18 33.4443 1740.69 33.1202 Q1739.23 32.7556 1737.44 32.7556 Q1731.13 32.7556 1727.72 36.8875 Q1724.36 40.9789 1724.36 48.6757 L1724.36 72.576 L1716.87 72.576 L1716.87 27.2059 L1724.36 27.2059 L1724.36 34.2544 Q1726.71 30.1225 1730.48 28.1376 Q1734.24 26.1121 1739.63 26.1121 Q1740.4 26.1121 1741.33 26.2337 Q1742.27 26.3147 1743.4 26.5172 L1743.44 34.1734 Z" fill="#000000" fill-rule="evenodd" fill-opacity="1" /><path clip-path="url(#clip740)" d="M1788.24 48.0275 L1788.24 51.6733 L1753.97 51.6733 Q1754.46 59.3701 1758.59 63.421 Q1762.76 67.4314 1770.18 67.4314 Q1774.47 67.4314 1778.48 66.3781 Q1782.53 65.3249 1786.5 63.2184 L1786.5 70.267 Q1782.49 71.9684 1778.28 72.8596 Q1774.06 73.7508 1769.73 73.7508 Q1758.87 73.7508 1752.51 67.4314 Q1746.19 61.1119 1746.19 50.3365 Q1746.19 39.1965 1752.19 32.6746 Q1758.23 26.1121 1768.43 26.1121 Q1777.59 26.1121 1782.9 32.0264 Q1788.24 37.9003 1788.24 48.0275 M1780.79 45.84 Q1780.71 39.7232 1777.35 36.0774 Q1774.02 32.4315 1768.51 32.4315 Q1762.28 32.4315 1758.51 35.9558 Q1754.78 39.4801 1754.22 45.8805 L1780.79 45.84 Z" fill="#000000" fill-rule="evenodd" fill-opacity="1" /><path clip-path="url(#clip740)" d="M1829.4 28.5427 L1829.4 35.5912 Q1826.24 33.9709 1822.84 33.1607 Q1819.43 32.3505 1815.79 32.3505 Q1810.24 32.3505 1807.44 34.0519 Q1804.69 35.7533 1804.69 39.156 Q1804.69 41.7486 1806.67 43.2475 Q1808.66 44.7058 1814.65 46.0426 L1817.21 46.6097 Q1825.15 48.3111 1828.47 51.4303 Q1831.83 54.509 1831.83 60.0587 Q1831.83 66.3781 1826.81 70.0644 Q1821.82 73.7508 1813.07 73.7508 Q1809.43 73.7508 1805.46 73.0216 Q1801.53 72.3329 1797.15 70.9151 L1797.15 63.2184 Q1801.29 65.3654 1805.3 66.4591 Q1809.31 67.5124 1813.24 67.5124 Q1818.5 67.5124 1821.34 65.73 Q1824.17 63.9071 1824.17 60.6258 Q1824.17 57.5877 1822.11 55.9673 Q1820.08 54.3469 1813.16 52.8481 L1810.56 52.2405 Q1803.64 50.7821 1800.56 47.7845 Q1797.48 44.7463 1797.48 39.4801 Q1797.48 33.0797 1802.02 29.5959 Q1806.55 26.1121 1814.9 26.1121 Q1819.03 26.1121 1822.68 26.7198 Q1826.32 27.3274 1829.4 28.5427 Z" fill="#000000" fill-rule="evenodd" fill-opacity="1" /><path clip-path="url(#clip740)" d="M1842.93 54.671 L1842.93 27.2059 L1850.38 27.2059 L1850.38 54.3874 Q1850.38 60.8284 1852.9 64.0691 Q1855.41 67.2693 1860.43 67.2693 Q1866.47 67.2693 1869.95 63.421 Q1873.47 59.5726 1873.47 52.9291 L1873.47 27.2059 L1880.93 27.2059 L1880.93 72.576 L1873.47 72.576 L1873.47 65.6084 Q1870.76 69.7404 1867.15 71.7658 Q1863.59 73.7508 1858.85 73.7508 Q1851.03 73.7508 1846.98 68.8897 Q1842.93 64.0286 1842.93 54.671 M1861.69 26.1121 L1861.69 26.1121 Z" fill="#000000" fill-rule="evenodd" fill-opacity="1" /><path clip-path="url(#clip740)" d="M1896.28 9.54393 L1903.73 9.54393 L1903.73 72.576 L1896.28 72.576 L1896.28 9.54393 Z" fill="#000000" fill-rule="evenodd" fill-opacity="1" /><path clip-path="url(#clip740)" d="M1926.7 14.324 L1926.7 27.2059 L1942.06 27.2059 L1942.06 32.9987 L1926.7 32.9987 L1926.7 57.6282 Q1926.7 63.1779 1928.2 64.7578 Q1929.74 66.3376 1934.4 66.3376 L1942.06 66.3376 L1942.06 72.576 L1934.4 72.576 Q1925.77 72.576 1922.49 69.3758 Q1919.21 66.1351 1919.21 57.6282 L1919.21 32.9987 L1913.74 32.9987 L1913.74 27.2059 L1919.21 27.2059 L1919.21 14.324 L1926.7 14.324 Z" fill="#000000" fill-rule="evenodd" fill-opacity="1" /><polyline clip-path="url(#clip742)" style="stroke:#009af9; stroke-linecap:round; stroke-linejoin:round; stroke-width:4; stroke-opacity:1; fill:none" points="
  186.539,1753.43 202.052,1753.43 345.491,1753.43 431.692,1753.43 504.574,1753.43 583.744,1753.43 656.732,1753.43 695.857,1753.43 734.983,1753.43 780.313,1753.43 
  825.644,1750.64 845.786,1747.44 865.928,1743.04 886.07,1737.44 906.213,1730.64 941.538,1715.8 976.864,1697.26 996.122,1685.6 1015.38,1672.83 1034.64,1658.97 
  1053.89,1644 1073.27,1627.84 1092.64,1610.57 1112.01,1592.18 1131.38,1572.68 1152.8,1549.83 1174.22,1525.61 1195.63,1500.03 1217.05,1473.1 1237.43,1446.21 
  1257.81,1418.08 1278.19,1388.73 1298.57,1358.14 1319.76,1325.04 1340.95,1290.6 1362.13,1254.82 1383.32,1217.77 1419,1154.75 1454.67,1091.74 1541.78,937.881 
  1621.57,796.934 1695.27,666.759 1769.92,534.896 1811.75,461.005 1853.58,387.114 1891.49,320.157 1929.4,253.2 1940.25,234.035 1951.1,214.869 1956.52,205.287 
  1961.95,195.704 1967.37,186.121 1972.8,176.539 1978.22,175.141 1983.65,175.141 1989.07,175.141 1994.5,175.141 2005.35,175.141 2016.2,175.141 2056.38,175.141 
  2096.57,175.141 2175.81,175.141 2252.74,175.141 2331.6,175.141 2418.01,175.141 2543.52,175.141 2569.27,175.141 
  "/>
<path clip-path="url(#clip740)" d="
M2223.5 287.238 L2556.57 287.238 L2556.57 183.558 L2223.5 183.558  Z
  " fill="#ffffff" fill-rule="evenodd" fill-opacity="1"/>
<polyline clip-path="url(#clip740)" style="stroke:#000000; stroke-linecap:round; stroke-linejoin:round; stroke-width:4; stroke-opacity:1; fill:none" points="
  2223.5,287.238 2556.57,287.238 2556.57,183.558 2223.5,183.558 2223.5,287.238 
  "/>
<polyline clip-path="url(#clip740)" style="stroke:#009af9; stroke-linecap:round; stroke-linejoin:round; stroke-width:4; stroke-opacity:1; fill:none" points="
  2251.57,235.398 2419.95,235.398 
  "/>
<path clip-path="url(#clip740)" d="M2461.85 255.086 Q2460.05 259.715 2458.33 261.127 Q2456.62 262.539 2453.75 262.539 L2450.35 262.539 L2450.35 258.975 L2452.85 258.975 Q2454.61 258.975 2455.58 258.141 Q2456.55 257.308 2457.73 254.206 L2458.5 252.262 L2448.01 226.753 L2452.52 226.753 L2460.62 247.03 L2468.73 226.753 L2473.24 226.753 L2461.85 255.086 Z" fill="#000000" fill-rule="evenodd" fill-opacity="1" /><path clip-path="url(#clip740)" d="M2480.53 248.743 L2488.17 248.743 L2488.17 222.378 L2479.86 224.044 L2479.86 219.785 L2488.12 218.118 L2492.8 218.118 L2492.8 248.743 L2500.44 248.743 L2500.44 252.678 L2480.53 252.678 L2480.53 248.743 Z" fill="#000000" fill-rule="evenodd" fill-opacity="1" /></svg>
