<?xml version="1.0" encoding="utf-8"?>
<svg xmlns="http://www.w3.org/2000/svg" xmlns:xlink="http://www.w3.org/1999/xlink" width="672" height="480" viewBox="0 0 2688 1920">
<defs>
  <clipPath id="clip950">
    <rect x="0" y="0" width="2688" height="1920"/>
  </clipPath>
</defs>
<path clip-path="url(#clip950)" d="
M0 1920 L2688 1920 L2688 0 L0 0  Z
  " fill="#ffffff" fill-rule="evenodd" fill-opacity="1"/>
<defs>
  <clipPath id="clip951">
    <rect x="537" y="0" width="1883" height="1883"/>
  </clipPath>
</defs>
<path clip-path="url(#clip950)" d="
M189.154 1800.78 L1311.84 1800.78 L1311.84 127.792 L189.154 127.792  Z
  " fill="#ffffff" fill-rule="evenodd" fill-opacity="1"/>
<defs>
  <clipPath id="clip952">
    <rect x="189" y="127" width="1124" height="1674"/>
  </clipPath>
</defs>
<polyline clip-path="url(#clip952)" style="stroke:#000000; stroke-linecap:round; stroke-linejoin:round; stroke-width:2; stroke-opacity:0.1; fill:none" points="
  220.928,1800.78 220.928,127.792 
  "/>
<polyline clip-path="url(#clip952)" style="stroke:#000000; stroke-linecap:round; stroke-linejoin:round; stroke-width:2; stroke-opacity:0.1; fill:none" points="
  485.712,1800.78 485.712,127.792 
  "/>
<polyline clip-path="url(#clip952)" style="stroke:#000000; stroke-linecap:round; stroke-linejoin:round; stroke-width:2; stroke-opacity:0.1; fill:none" points="
  750.495,1800.78 750.495,127.792 
  "/>
<polyline clip-path="url(#clip952)" style="stroke:#000000; stroke-linecap:round; stroke-linejoin:round; stroke-width:2; stroke-opacity:0.1; fill:none" points="
  1015.28,1800.78 1015.28,127.792 
  "/>
<polyline clip-path="url(#clip952)" style="stroke:#000000; stroke-linecap:round; stroke-linejoin:round; stroke-width:2; stroke-opacity:0.1; fill:none" points="
  1280.06,1800.78 1280.06,127.792 
  "/>
<polyline clip-path="url(#clip950)" style="stroke:#000000; stroke-linecap:round; stroke-linejoin:round; stroke-width:4; stroke-opacity:1; fill:none" points="
  189.154,1800.78 1311.84,1800.78 
  "/>
<polyline clip-path="url(#clip950)" style="stroke:#000000; stroke-linecap:round; stroke-linejoin:round; stroke-width:4; stroke-opacity:1; fill:none" points="
  220.928,1800.78 220.928,1781.88 
  "/>
<polyline clip-path="url(#clip950)" style="stroke:#000000; stroke-linecap:round; stroke-linejoin:round; stroke-width:4; stroke-opacity:1; fill:none" points="
  485.712,1800.78 485.712,1781.88 
  "/>
<polyline clip-path="url(#clip950)" style="stroke:#000000; stroke-linecap:round; stroke-linejoin:round; stroke-width:4; stroke-opacity:1; fill:none" points="
  750.495,1800.78 750.495,1781.88 
  "/>
<polyline clip-path="url(#clip950)" style="stroke:#000000; stroke-linecap:round; stroke-linejoin:round; stroke-width:4; stroke-opacity:1; fill:none" points="
  1015.28,1800.78 1015.28,1781.88 
  "/>
<polyline clip-path="url(#clip950)" style="stroke:#000000; stroke-linecap:round; stroke-linejoin:round; stroke-width:4; stroke-opacity:1; fill:none" points="
  1280.06,1800.78 1280.06,1781.88 
  "/>
<path clip-path="url(#clip950)" d="M190.87 1848.65 L220.546 1848.65 L220.546 1852.59 L190.87 1852.59 L190.87 1848.65 Z" fill="#000000" fill-rule="evenodd" fill-opacity="1" /><path clip-path="url(#clip950)" d="M234.666 1861.55 L250.986 1861.55 L250.986 1865.48 L229.041 1865.48 L229.041 1861.55 Q231.703 1858.79 236.287 1854.16 Q240.893 1849.51 242.074 1848.17 Q244.319 1845.65 245.199 1843.91 Q246.102 1842.15 246.102 1840.46 Q246.102 1837.71 244.157 1835.97 Q242.236 1834.23 239.134 1834.23 Q236.935 1834.23 234.481 1835 Q232.051 1835.76 229.273 1837.31 L229.273 1832.59 Q232.097 1831.46 234.551 1830.88 Q237.004 1830.3 239.041 1830.3 Q244.412 1830.3 247.606 1832.98 Q250.801 1835.67 250.801 1840.16 Q250.801 1842.29 249.99 1844.21 Q249.203 1846.11 247.097 1848.7 Q246.518 1849.37 243.416 1852.59 Q240.315 1855.78 234.666 1861.55 Z" fill="#000000" fill-rule="evenodd" fill-opacity="1" /><path clip-path="url(#clip950)" d="M455.469 1848.65 L485.145 1848.65 L485.145 1852.59 L455.469 1852.59 L455.469 1848.65 Z" fill="#000000" fill-rule="evenodd" fill-opacity="1" /><path clip-path="url(#clip950)" d="M496.047 1861.55 L503.686 1861.55 L503.686 1835.18 L495.376 1836.85 L495.376 1832.59 L503.64 1830.92 L508.316 1830.92 L508.316 1861.55 L515.955 1861.55 L515.955 1865.48 L496.047 1865.48 L496.047 1861.55 Z" fill="#000000" fill-rule="evenodd" fill-opacity="1" /><path clip-path="url(#clip950)" d="M750.495 1834 Q746.884 1834 745.056 1837.57 Q743.25 1841.11 743.25 1848.24 Q743.25 1855.34 745.056 1858.91 Q746.884 1862.45 750.495 1862.45 Q754.13 1862.45 755.935 1858.91 Q757.764 1855.34 757.764 1848.24 Q757.764 1841.11 755.935 1837.57 Q754.13 1834 750.495 1834 M750.495 1830.3 Q756.306 1830.3 759.361 1834.9 Q762.44 1839.49 762.44 1848.24 Q762.44 1856.96 759.361 1861.57 Q756.306 1866.15 750.495 1866.15 Q744.685 1866.15 741.607 1861.57 Q738.551 1856.96 738.551 1848.24 Q738.551 1839.49 741.607 1834.9 Q744.685 1830.3 750.495 1830.3 Z" fill="#000000" fill-rule="evenodd" fill-opacity="1" /><path clip-path="url(#clip950)" d="M1005.66 1861.55 L1013.3 1861.55 L1013.3 1835.18 L1004.99 1836.85 L1004.99 1832.59 L1013.25 1830.92 L1017.93 1830.92 L1017.93 1861.55 L1025.57 1861.55 L1025.57 1865.48 L1005.66 1865.48 L1005.66 1861.55 Z" fill="#000000" fill-rule="evenodd" fill-opacity="1" /><path clip-path="url(#clip950)" d="M1274.72 1861.55 L1291.03 1861.55 L1291.03 1865.48 L1269.09 1865.48 L1269.09 1861.55 Q1271.75 1858.79 1276.34 1854.16 Q1280.94 1849.51 1282.12 1848.17 Q1284.37 1845.65 1285.25 1843.91 Q1286.15 1842.15 1286.15 1840.46 Q1286.15 1837.71 1284.21 1835.97 Q1282.29 1834.23 1279.18 1834.23 Q1276.98 1834.23 1274.53 1835 Q1272.1 1835.76 1269.32 1837.31 L1269.32 1832.59 Q1272.15 1831.46 1274.6 1830.88 Q1277.05 1830.3 1279.09 1830.3 Q1284.46 1830.3 1287.66 1832.98 Q1290.85 1835.67 1290.85 1840.16 Q1290.85 1842.29 1290.04 1844.21 Q1289.25 1846.11 1287.15 1848.7 Q1286.57 1849.37 1283.47 1852.59 Q1280.36 1855.78 1274.72 1861.55 Z" fill="#000000" fill-rule="evenodd" fill-opacity="1" /><polyline clip-path="url(#clip952)" style="stroke:#000000; stroke-linecap:round; stroke-linejoin:round; stroke-width:2; stroke-opacity:0.1; fill:none" points="
  189.154,1753.43 1311.84,1753.43 
  "/>
<polyline clip-path="url(#clip952)" style="stroke:#000000; stroke-linecap:round; stroke-linejoin:round; stroke-width:2; stroke-opacity:0.1; fill:none" points="
  189.154,1358.86 1311.84,1358.86 
  "/>
<polyline clip-path="url(#clip952)" style="stroke:#000000; stroke-linecap:round; stroke-linejoin:round; stroke-width:2; stroke-opacity:0.1; fill:none" points="
  189.154,964.286 1311.84,964.286 
  "/>
<polyline clip-path="url(#clip952)" style="stroke:#000000; stroke-linecap:round; stroke-linejoin:round; stroke-width:2; stroke-opacity:0.1; fill:none" points="
  189.154,569.713 1311.84,569.713 
  "/>
<polyline clip-path="url(#clip952)" style="stroke:#000000; stroke-linecap:round; stroke-linejoin:round; stroke-width:2; stroke-opacity:0.1; fill:none" points="
  189.154,175.141 1311.84,175.141 
  "/>
<polyline clip-path="url(#clip950)" style="stroke:#000000; stroke-linecap:round; stroke-linejoin:round; stroke-width:4; stroke-opacity:1; fill:none" points="
  189.154,1800.78 189.154,127.792 
  "/>
<polyline clip-path="url(#clip950)" style="stroke:#000000; stroke-linecap:round; stroke-linejoin:round; stroke-width:4; stroke-opacity:1; fill:none" points="
  189.154,1753.43 208.052,1753.43 
  "/>
<polyline clip-path="url(#clip950)" style="stroke:#000000; stroke-linecap:round; stroke-linejoin:round; stroke-width:4; stroke-opacity:1; fill:none" points="
  189.154,1358.86 208.052,1358.86 
  "/>
<polyline clip-path="url(#clip950)" style="stroke:#000000; stroke-linecap:round; stroke-linejoin:round; stroke-width:4; stroke-opacity:1; fill:none" points="
  189.154,964.286 208.052,964.286 
  "/>
<polyline clip-path="url(#clip950)" style="stroke:#000000; stroke-linecap:round; stroke-linejoin:round; stroke-width:4; stroke-opacity:1; fill:none" points="
  189.154,569.713 208.052,569.713 
  "/>
<polyline clip-path="url(#clip950)" style="stroke:#000000; stroke-linecap:round; stroke-linejoin:round; stroke-width:4; stroke-opacity:1; fill:none" points="
  189.154,175.141 208.052,175.141 
  "/>
<path clip-path="url(#clip950)" d="M61.4965 1739.23 Q57.8854 1739.23 56.0567 1742.79 Q54.2512 1746.34 54.2512 1753.47 Q54.2512 1760.57 56.0567 1764.14 Q57.8854 1767.68 61.4965 1767.68 Q65.1307 1767.68 66.9363 1764.14 Q68.765 1760.57 68.765 1753.47 Q68.765 1746.34 66.9363 1742.79 Q65.1307 1739.23 61.4965 1739.23 M61.4965 1735.53 Q67.3067 1735.53 70.3622 1740.13 Q73.4409 1744.72 73.4409 1753.47 Q73.4409 1762.19 70.3622 1766.8 Q67.3067 1771.38 61.4965 1771.38 Q55.6864 1771.38 52.6077 1766.8 Q49.5521 1762.19 49.5521 1753.47 Q49.5521 1744.72 52.6077 1740.13 Q55.6864 1735.53 61.4965 1735.53 Z" fill="#000000" fill-rule="evenodd" fill-opacity="1" /><path clip-path="url(#clip950)" d="M81.6584 1764.83 L86.5427 1764.83 L86.5427 1770.71 L81.6584 1770.71 L81.6584 1764.83 Z" fill="#000000" fill-rule="evenodd" fill-opacity="1" /><path clip-path="url(#clip950)" d="M106.728 1739.23 Q103.117 1739.23 101.288 1742.79 Q99.4824 1746.34 99.4824 1753.47 Q99.4824 1760.57 101.288 1764.14 Q103.117 1767.68 106.728 1767.68 Q110.362 1767.68 112.168 1764.14 Q113.996 1760.57 113.996 1753.47 Q113.996 1746.34 112.168 1742.79 Q110.362 1739.23 106.728 1739.23 M106.728 1735.53 Q112.538 1735.53 115.593 1740.13 Q118.672 1744.72 118.672 1753.47 Q118.672 1762.19 115.593 1766.8 Q112.538 1771.38 106.728 1771.38 Q100.918 1771.38 97.8389 1766.8 Q94.7834 1762.19 94.7834 1753.47 Q94.7834 1744.72 97.8389 1740.13 Q100.918 1735.53 106.728 1735.53 Z" fill="#000000" fill-rule="evenodd" fill-opacity="1" /><path clip-path="url(#clip950)" d="M136.89 1739.23 Q133.279 1739.23 131.45 1742.79 Q129.644 1746.34 129.644 1753.47 Q129.644 1760.57 131.45 1764.14 Q133.279 1767.68 136.89 1767.68 Q140.524 1767.68 142.329 1764.14 Q144.158 1760.57 144.158 1753.47 Q144.158 1746.34 142.329 1742.79 Q140.524 1739.23 136.89 1739.23 M136.89 1735.53 Q142.7 1735.53 145.755 1740.13 Q148.834 1744.72 148.834 1753.47 Q148.834 1762.19 145.755 1766.8 Q142.7 1771.38 136.89 1771.38 Q131.079 1771.38 128.001 1766.8 Q124.945 1762.19 124.945 1753.47 Q124.945 1744.72 128.001 1740.13 Q131.079 1735.53 136.89 1735.53 Z" fill="#000000" fill-rule="evenodd" fill-opacity="1" /><path clip-path="url(#clip950)" d="M62.4919 1344.66 Q58.8808 1344.66 57.0521 1348.22 Q55.2465 1351.76 55.2465 1358.89 Q55.2465 1366 57.0521 1369.56 Q58.8808 1373.11 62.4919 1373.11 Q66.1261 1373.11 67.9317 1369.56 Q69.7604 1366 69.7604 1358.89 Q69.7604 1351.76 67.9317 1348.22 Q66.1261 1344.66 62.4919 1344.66 M62.4919 1340.95 Q68.302 1340.95 71.3576 1345.56 Q74.4363 1350.14 74.4363 1358.89 Q74.4363 1367.62 71.3576 1372.23 Q68.302 1376.81 62.4919 1376.81 Q56.6817 1376.81 53.603 1372.23 Q50.5475 1367.62 50.5475 1358.89 Q50.5475 1350.14 53.603 1345.56 Q56.6817 1340.95 62.4919 1340.95 Z" fill="#000000" fill-rule="evenodd" fill-opacity="1" /><path clip-path="url(#clip950)" d="M82.6538 1370.26 L87.538 1370.26 L87.538 1376.14 L82.6538 1376.14 L82.6538 1370.26 Z" fill="#000000" fill-rule="evenodd" fill-opacity="1" /><path clip-path="url(#clip950)" d="M101.751 1372.2 L118.07 1372.2 L118.07 1376.14 L96.126 1376.14 L96.126 1372.2 Q98.788 1369.45 103.371 1364.82 Q107.978 1360.17 109.158 1358.82 Q111.404 1356.3 112.283 1354.56 Q113.186 1352.8 113.186 1351.12 Q113.186 1348.36 111.242 1346.62 Q109.32 1344.89 106.218 1344.89 Q104.019 1344.89 101.566 1345.65 Q99.1352 1346.42 96.3574 1347.97 L96.3574 1343.24 Q99.1815 1342.11 101.635 1341.53 Q104.089 1340.95 106.126 1340.95 Q111.496 1340.95 114.691 1343.64 Q117.885 1346.32 117.885 1350.81 Q117.885 1352.94 117.075 1354.87 Q116.288 1356.76 114.181 1359.36 Q113.603 1360.03 110.501 1363.24 Q107.399 1366.44 101.751 1372.2 Z" fill="#000000" fill-rule="evenodd" fill-opacity="1" /><path clip-path="url(#clip950)" d="M127.931 1341.58 L146.288 1341.58 L146.288 1345.51 L132.214 1345.51 L132.214 1353.99 Q133.232 1353.64 134.251 1353.48 Q135.269 1353.29 136.288 1353.29 Q142.075 1353.29 145.454 1356.46 Q148.834 1359.63 148.834 1365.05 Q148.834 1370.63 145.362 1373.73 Q141.89 1376.81 135.57 1376.81 Q133.394 1376.81 131.126 1376.44 Q128.88 1376.07 126.473 1375.33 L126.473 1370.63 Q128.556 1371.76 130.779 1372.32 Q133.001 1372.87 135.478 1372.87 Q139.482 1372.87 141.82 1370.77 Q144.158 1368.66 144.158 1365.05 Q144.158 1361.44 141.82 1359.33 Q139.482 1357.23 135.478 1357.23 Q133.603 1357.23 131.728 1357.64 Q129.876 1358.06 127.931 1358.94 L127.931 1341.58 Z" fill="#000000" fill-rule="evenodd" fill-opacity="1" /><path clip-path="url(#clip950)" d="M61.4965 950.084 Q57.8854 950.084 56.0567 953.649 Q54.2512 957.191 54.2512 964.32 Q54.2512 971.427 56.0567 974.992 Q57.8854 978.533 61.4965 978.533 Q65.1307 978.533 66.9363 974.992 Q68.765 971.427 68.765 964.32 Q68.765 957.191 66.9363 953.649 Q65.1307 950.084 61.4965 950.084 M61.4965 946.381 Q67.3067 946.381 70.3622 950.987 Q73.4409 955.57 73.4409 964.32 Q73.4409 973.047 70.3622 977.654 Q67.3067 982.237 61.4965 982.237 Q55.6864 982.237 52.6077 977.654 Q49.5521 973.047 49.5521 964.32 Q49.5521 955.57 52.6077 950.987 Q55.6864 946.381 61.4965 946.381 Z" fill="#000000" fill-rule="evenodd" fill-opacity="1" /><path clip-path="url(#clip950)" d="M81.6584 975.686 L86.5427 975.686 L86.5427 981.566 L81.6584 981.566 L81.6584 975.686 Z" fill="#000000" fill-rule="evenodd" fill-opacity="1" /><path clip-path="url(#clip950)" d="M96.7741 947.006 L115.13 947.006 L115.13 950.941 L101.056 950.941 L101.056 959.413 Q102.075 959.066 103.094 958.904 Q104.112 958.719 105.131 958.719 Q110.918 958.719 114.297 961.89 Q117.677 965.061 117.677 970.478 Q117.677 976.056 114.205 979.158 Q110.732 982.237 104.413 982.237 Q102.237 982.237 99.9685 981.867 Q97.7232 981.496 95.3158 980.756 L95.3158 976.056 Q97.3991 977.191 99.6213 977.746 Q101.844 978.302 104.32 978.302 Q108.325 978.302 110.663 976.195 Q113.001 974.089 113.001 970.478 Q113.001 966.867 110.663 964.76 Q108.325 962.654 104.32 962.654 Q102.445 962.654 100.57 963.07 Q98.7185 963.487 96.7741 964.367 L96.7741 947.006 Z" fill="#000000" fill-rule="evenodd" fill-opacity="1" /><path clip-path="url(#clip950)" d="M136.89 950.084 Q133.279 950.084 131.45 953.649 Q129.644 957.191 129.644 964.32 Q129.644 971.427 131.45 974.992 Q133.279 978.533 136.89 978.533 Q140.524 978.533 142.329 974.992 Q144.158 971.427 144.158 964.32 Q144.158 957.191 142.329 953.649 Q140.524 950.084 136.89 950.084 M136.89 946.381 Q142.7 946.381 145.755 950.987 Q148.834 955.57 148.834 964.32 Q148.834 973.047 145.755 977.654 Q142.7 982.237 136.89 982.237 Q131.079 982.237 128.001 977.654 Q124.945 973.047 124.945 964.32 Q124.945 955.57 128.001 950.987 Q131.079 946.381 136.89 946.381 Z" fill="#000000" fill-rule="evenodd" fill-opacity="1" /><path clip-path="url(#clip950)" d="M62.4919 555.512 Q58.8808 555.512 57.0521 559.077 Q55.2465 562.618 55.2465 569.748 Q55.2465 576.854 57.0521 580.419 Q58.8808 583.961 62.4919 583.961 Q66.1261 583.961 67.9317 580.419 Q69.7604 576.854 69.7604 569.748 Q69.7604 562.618 67.9317 559.077 Q66.1261 555.512 62.4919 555.512 M62.4919 551.808 Q68.302 551.808 71.3576 556.415 Q74.4363 560.998 74.4363 569.748 Q74.4363 578.475 71.3576 583.081 Q68.302 587.665 62.4919 587.665 Q56.6817 587.665 53.603 583.081 Q50.5475 578.475 50.5475 569.748 Q50.5475 560.998 53.603 556.415 Q56.6817 551.808 62.4919 551.808 Z" fill="#000000" fill-rule="evenodd" fill-opacity="1" /><path clip-path="url(#clip950)" d="M82.6538 581.114 L87.538 581.114 L87.538 586.993 L82.6538 586.993 L82.6538 581.114 Z" fill="#000000" fill-rule="evenodd" fill-opacity="1" /><path clip-path="url(#clip950)" d="M96.5426 552.433 L118.765 552.433 L118.765 554.424 L106.218 586.993 L101.334 586.993 L113.14 556.368 L96.5426 556.368 L96.5426 552.433 Z" fill="#000000" fill-rule="evenodd" fill-opacity="1" /><path clip-path="url(#clip950)" d="M127.931 552.433 L146.288 552.433 L146.288 556.368 L132.214 556.368 L132.214 564.841 Q133.232 564.493 134.251 564.331 Q135.269 564.146 136.288 564.146 Q142.075 564.146 145.454 567.317 Q148.834 570.489 148.834 575.905 Q148.834 581.484 145.362 584.586 Q141.89 587.665 135.57 587.665 Q133.394 587.665 131.126 587.294 Q128.88 586.924 126.473 586.183 L126.473 581.484 Q128.556 582.618 130.779 583.174 Q133.001 583.729 135.478 583.729 Q139.482 583.729 141.82 581.623 Q144.158 579.516 144.158 575.905 Q144.158 572.294 141.82 570.188 Q139.482 568.081 135.478 568.081 Q133.603 568.081 131.728 568.498 Q129.876 568.915 127.931 569.794 L127.931 552.433 Z" fill="#000000" fill-rule="evenodd" fill-opacity="1" /><path clip-path="url(#clip950)" d="M52.3067 188.486 L59.9456 188.486 L59.9456 162.12 L51.6354 163.787 L51.6354 159.527 L59.8993 157.861 L64.5752 157.861 L64.5752 188.486 L72.214 188.486 L72.214 192.421 L52.3067 192.421 L52.3067 188.486 Z" fill="#000000" fill-rule="evenodd" fill-opacity="1" /><path clip-path="url(#clip950)" d="M81.6584 186.541 L86.5427 186.541 L86.5427 192.421 L81.6584 192.421 L81.6584 186.541 Z" fill="#000000" fill-rule="evenodd" fill-opacity="1" /><path clip-path="url(#clip950)" d="M106.728 160.94 Q103.117 160.94 101.288 164.504 Q99.4824 168.046 99.4824 175.176 Q99.4824 182.282 101.288 185.847 Q103.117 189.388 106.728 189.388 Q110.362 189.388 112.168 185.847 Q113.996 182.282 113.996 175.176 Q113.996 168.046 112.168 164.504 Q110.362 160.94 106.728 160.94 M106.728 157.236 Q112.538 157.236 115.593 161.842 Q118.672 166.426 118.672 175.176 Q118.672 183.902 115.593 188.509 Q112.538 193.092 106.728 193.092 Q100.918 193.092 97.8389 188.509 Q94.7834 183.902 94.7834 175.176 Q94.7834 166.426 97.8389 161.842 Q100.918 157.236 106.728 157.236 Z" fill="#000000" fill-rule="evenodd" fill-opacity="1" /><path clip-path="url(#clip950)" d="M136.89 160.94 Q133.279 160.94 131.45 164.504 Q129.644 168.046 129.644 175.176 Q129.644 182.282 131.45 185.847 Q133.279 189.388 136.89 189.388 Q140.524 189.388 142.329 185.847 Q144.158 182.282 144.158 175.176 Q144.158 168.046 142.329 164.504 Q140.524 160.94 136.89 160.94 M136.89 157.236 Q142.7 157.236 145.755 161.842 Q148.834 166.426 148.834 175.176 Q148.834 183.902 145.755 188.509 Q142.7 193.092 136.89 193.092 Q131.079 193.092 128.001 188.509 Q124.945 183.902 124.945 175.176 Q124.945 166.426 128.001 161.842 Q131.079 157.236 136.89 157.236 Z" fill="#000000" fill-rule="evenodd" fill-opacity="1" /><path clip-path="url(#clip950)" d="M725.218 27.2059 L708.812 49.2833 L726.068 72.576 L717.278 72.576 L704.072 54.752 L690.866 72.576 L682.076 72.576 L699.697 48.8377 L683.574 27.2059 L692.365 27.2059 L704.396 43.369 L716.427 27.2059 L725.218 27.2059 Z" fill="#000000" fill-rule="evenodd" fill-opacity="1" /><path clip-path="url(#clip950)" d="M754.506 9.62495 Q749.078 18.942 746.445 28.0566 Q743.811 37.1711 743.811 46.5287 Q743.811 55.8863 746.445 65.0818 Q749.118 74.2369 754.506 83.5134 L748.024 83.5134 Q741.948 73.9938 738.91 64.7983 Q735.912 55.6027 735.912 46.5287 Q735.912 37.4952 738.91 28.3401 Q741.908 19.1851 748.024 9.62495 L754.506 9.62495 Z" fill="#000000" fill-rule="evenodd" fill-opacity="1" /><path clip-path="url(#clip950)" d="M776.34 14.324 L776.34 27.2059 L791.693 27.2059 L791.693 32.9987 L776.34 32.9987 L776.34 57.6282 Q776.34 63.1779 777.839 64.7578 Q779.378 66.3376 784.037 66.3376 L791.693 66.3376 L791.693 72.576 L784.037 72.576 Q775.408 72.576 772.127 69.3758 Q768.846 66.1351 768.846 57.6282 L768.846 32.9987 L763.377 32.9987 L763.377 27.2059 L768.846 27.2059 L768.846 14.324 L776.34 14.324 Z" fill="#000000" fill-rule="evenodd" fill-opacity="1" /><path clip-path="url(#clip950)" d="M800.322 9.62495 L806.803 9.62495 Q812.879 19.1851 815.877 28.3401 Q818.915 37.4952 818.915 46.5287 Q818.915 55.6027 815.877 64.7983 Q812.879 73.9938 806.803 83.5134 L800.322 83.5134 Q805.709 74.2369 808.342 65.0818 Q811.016 55.8863 811.016 46.5287 Q811.016 37.1711 808.342 28.0566 Q805.709 18.942 800.322 9.62495 Z" fill="#000000" fill-rule="evenodd" fill-opacity="1" /><polyline clip-path="url(#clip952)" style="stroke:#009af9; stroke-linecap:round; stroke-linejoin:round; stroke-width:4; stroke-opacity:1; fill:none" points="
  220.928,1753.43 227.824,1753.43 291.583,1753.43 329.9,1753.43 362.296,1753.43 397.487,1753.43 429.931,1753.43 464.713,1753.43 505.012,1753.43 540.826,1753.43 
  572.231,1753.43 606.47,1753.43 640.914,1753.43 659.954,1753.43 678.995,1753.43 697.112,1753.43 715.229,1753.43 724.647,1753.43 734.066,1753.43 738.775,1753.43 
  743.485,1753.43 744.662,1753.43 745.839,1753.43 747.017,1753.43 748.194,1753.43 748.783,1753.43 749.371,1753.43 749.665,1753.43 749.96,1753.43 750.254,1753.43 
  750.548,175.141 750.843,175.141 751.137,175.141 751.431,175.141 751.726,175.141 752.314,175.141 752.903,175.141 754.885,175.141 756.867,175.141 758.85,175.141 
  760.832,175.141 764.796,175.141 768.76,175.141 776.689,175.141 784.617,175.141 823.336,175.141 858.805,175.141 891.564,175.141 924.747,175.141 961.936,175.141 
  995.636,175.141 1034.22,175.141 1069.94,175.141 1105.16,175.141 1139.36,175.141 1174.42,175.141 1212.82,175.141 1268.62,175.141 1280.06,175.141 
  "/>
<path clip-path="url(#clip950)" d="
M1518.07 1800.78 L2640.76 1800.78 L2640.76 127.792 L1518.07 127.792  Z
  " fill="#ffffff" fill-rule="evenodd" fill-opacity="1"/>
<defs>
  <clipPath id="clip953">
    <rect x="1518" y="127" width="1124" height="1674"/>
  </clipPath>
</defs>
<polyline clip-path="url(#clip953)" style="stroke:#000000; stroke-linecap:round; stroke-linejoin:round; stroke-width:2; stroke-opacity:0.1; fill:none" points="
  1549.85,1800.78 1549.85,127.792 
  "/>
<polyline clip-path="url(#clip953)" style="stroke:#000000; stroke-linecap:round; stroke-linejoin:round; stroke-width:2; stroke-opacity:0.1; fill:none" points="
  1814.63,1800.78 1814.63,127.792 
  "/>
<polyline clip-path="url(#clip953)" style="stroke:#000000; stroke-linecap:round; stroke-linejoin:round; stroke-width:2; stroke-opacity:0.1; fill:none" points="
  2079.41,1800.78 2079.41,127.792 
  "/>
<polyline clip-path="url(#clip953)" style="stroke:#000000; stroke-linecap:round; stroke-linejoin:round; stroke-width:2; stroke-opacity:0.1; fill:none" points="
  2344.2,1800.78 2344.2,127.792 
  "/>
<polyline clip-path="url(#clip953)" style="stroke:#000000; stroke-linecap:round; stroke-linejoin:round; stroke-width:2; stroke-opacity:0.1; fill:none" points="
  2608.98,1800.78 2608.98,127.792 
  "/>
<polyline clip-path="url(#clip950)" style="stroke:#000000; stroke-linecap:round; stroke-linejoin:round; stroke-width:4; stroke-opacity:1; fill:none" points="
  1518.07,1800.78 2640.76,1800.78 
  "/>
<polyline clip-path="url(#clip950)" style="stroke:#000000; stroke-linecap:round; stroke-linejoin:round; stroke-width:4; stroke-opacity:1; fill:none" points="
  1549.85,1800.78 1549.85,1781.88 
  "/>
<polyline clip-path="url(#clip950)" style="stroke:#000000; stroke-linecap:round; stroke-linejoin:round; stroke-width:4; stroke-opacity:1; fill:none" points="
  1814.63,1800.78 1814.63,1781.88 
  "/>
<polyline clip-path="url(#clip950)" style="stroke:#000000; stroke-linecap:round; stroke-linejoin:round; stroke-width:4; stroke-opacity:1; fill:none" points="
  2079.41,1800.78 2079.41,1781.88 
  "/>
<polyline clip-path="url(#clip950)" style="stroke:#000000; stroke-linecap:round; stroke-linejoin:round; stroke-width:4; stroke-opacity:1; fill:none" points="
  2344.2,1800.78 2344.2,1781.88 
  "/>
<polyline clip-path="url(#clip950)" style="stroke:#000000; stroke-linecap:round; stroke-linejoin:round; stroke-width:4; stroke-opacity:1; fill:none" points="
  2608.98,1800.78 2608.98,1781.88 
  "/>
<path clip-path="url(#clip950)" d="M1519.79 1848.65 L1549.47 1848.65 L1549.47 1852.59 L1519.79 1852.59 L1519.79 1848.65 Z" fill="#000000" fill-rule="evenodd" fill-opacity="1" /><path clip-path="url(#clip950)" d="M1563.59 1861.55 L1579.9 1861.55 L1579.9 1865.48 L1557.96 1865.48 L1557.96 1861.55 Q1560.62 1858.79 1565.21 1854.16 Q1569.81 1849.51 1570.99 1848.17 Q1573.24 1845.65 1574.12 1843.91 Q1575.02 1842.15 1575.02 1840.46 Q1575.02 1837.71 1573.08 1835.97 Q1571.15 1834.23 1568.05 1834.23 Q1565.85 1834.23 1563.4 1835 Q1560.97 1835.76 1558.19 1837.31 L1558.19 1832.59 Q1561.02 1831.46 1563.47 1830.88 Q1565.92 1830.3 1567.96 1830.3 Q1573.33 1830.3 1576.53 1832.98 Q1579.72 1835.67 1579.72 1840.16 Q1579.72 1842.29 1578.91 1844.21 Q1578.12 1846.11 1576.02 1848.7 Q1575.44 1849.37 1572.34 1852.59 Q1569.23 1855.78 1563.59 1861.55 Z" fill="#000000" fill-rule="evenodd" fill-opacity="1" /><path clip-path="url(#clip950)" d="M1784.39 1848.65 L1814.06 1848.65 L1814.06 1852.59 L1784.39 1852.59 L1784.39 1848.65 Z" fill="#000000" fill-rule="evenodd" fill-opacity="1" /><path clip-path="url(#clip950)" d="M1824.97 1861.55 L1832.61 1861.55 L1832.61 1835.18 L1824.3 1836.85 L1824.3 1832.59 L1832.56 1830.92 L1837.23 1830.92 L1837.23 1861.55 L1844.87 1861.55 L1844.87 1865.48 L1824.97 1865.48 L1824.97 1861.55 Z" fill="#000000" fill-rule="evenodd" fill-opacity="1" /><path clip-path="url(#clip950)" d="M2079.41 1834 Q2075.8 1834 2073.97 1837.57 Q2072.17 1841.11 2072.17 1848.24 Q2072.17 1855.34 2073.97 1858.91 Q2075.8 1862.45 2079.41 1862.45 Q2083.05 1862.45 2084.85 1858.91 Q2086.68 1855.34 2086.68 1848.24 Q2086.68 1841.11 2084.85 1837.57 Q2083.05 1834 2079.41 1834 M2079.41 1830.3 Q2085.22 1830.3 2088.28 1834.9 Q2091.36 1839.49 2091.36 1848.24 Q2091.36 1856.96 2088.28 1861.57 Q2085.22 1866.15 2079.41 1866.15 Q2073.6 1866.15 2070.53 1861.57 Q2067.47 1856.96 2067.47 1848.24 Q2067.47 1839.49 2070.53 1834.9 Q2073.6 1830.3 2079.41 1830.3 Z" fill="#000000" fill-rule="evenodd" fill-opacity="1" /><path clip-path="url(#clip950)" d="M2334.58 1861.55 L2342.22 1861.55 L2342.22 1835.18 L2333.91 1836.85 L2333.91 1832.59 L2342.17 1830.92 L2346.85 1830.92 L2346.85 1861.55 L2354.49 1861.55 L2354.49 1865.48 L2334.58 1865.48 L2334.58 1861.55 Z" fill="#000000" fill-rule="evenodd" fill-opacity="1" /><path clip-path="url(#clip950)" d="M2603.63 1861.55 L2619.95 1861.55 L2619.95 1865.48 L2598.01 1865.48 L2598.01 1861.55 Q2600.67 1858.79 2605.26 1854.16 Q2609.86 1849.51 2611.04 1848.17 Q2613.29 1845.65 2614.17 1843.91 Q2615.07 1842.15 2615.07 1840.46 Q2615.07 1837.71 2613.13 1835.97 Q2611.2 1834.23 2608.1 1834.23 Q2605.9 1834.23 2603.45 1835 Q2601.02 1835.76 2598.24 1837.31 L2598.24 1832.59 Q2601.07 1831.46 2603.52 1830.88 Q2605.97 1830.3 2608.01 1830.3 Q2613.38 1830.3 2616.57 1832.98 Q2619.77 1835.67 2619.77 1840.16 Q2619.77 1842.29 2618.96 1844.21 Q2618.17 1846.11 2616.07 1848.7 Q2615.49 1849.37 2612.38 1852.59 Q2609.28 1855.78 2603.63 1861.55 Z" fill="#000000" fill-rule="evenodd" fill-opacity="1" /><polyline clip-path="url(#clip953)" style="stroke:#000000; stroke-linecap:round; stroke-linejoin:round; stroke-width:2; stroke-opacity:0.1; fill:none" points="
  1518.07,1753.43 2640.76,1753.43 
  "/>
<polyline clip-path="url(#clip953)" style="stroke:#000000; stroke-linecap:round; stroke-linejoin:round; stroke-width:2; stroke-opacity:0.1; fill:none" points="
  1518.07,1358.86 2640.76,1358.86 
  "/>
<polyline clip-path="url(#clip953)" style="stroke:#000000; stroke-linecap:round; stroke-linejoin:round; stroke-width:2; stroke-opacity:0.1; fill:none" points="
  1518.07,964.286 2640.76,964.286 
  "/>
<polyline clip-path="url(#clip953)" style="stroke:#000000; stroke-linecap:round; stroke-linejoin:round; stroke-width:2; stroke-opacity:0.1; fill:none" points="
  1518.07,569.713 2640.76,569.713 
  "/>
<polyline clip-path="url(#clip953)" style="stroke:#000000; stroke-linecap:round; stroke-linejoin:round; stroke-width:2; stroke-opacity:0.1; fill:none" points="
  1518.07,175.141 2640.76,175.141 
  "/>
<polyline clip-path="url(#clip950)" style="stroke:#000000; stroke-linecap:round; stroke-linejoin:round; stroke-width:4; stroke-opacity:1; fill:none" points="
  1518.07,1800.78 1518.07,127.792 
  "/>
<polyline clip-path="url(#clip950)" style="stroke:#000000; stroke-linecap:round; stroke-linejoin:round; stroke-width:4; stroke-opacity:1; fill:none" points="
  1518.07,1753.43 1536.97,1753.43 
  "/>
<polyline clip-path="url(#clip950)" style="stroke:#000000; stroke-linecap:round; stroke-linejoin:round; stroke-width:4; stroke-opacity:1; fill:none" points="
  1518.07,1358.86 1536.97,1358.86 
  "/>
<polyline clip-path="url(#clip950)" style="stroke:#000000; stroke-linecap:round; stroke-linejoin:round; stroke-width:4; stroke-opacity:1; fill:none" points="
  1518.07,964.286 1536.97,964.286 
  "/>
<polyline clip-path="url(#clip950)" style="stroke:#000000; stroke-linecap:round; stroke-linejoin:round; stroke-width:4; stroke-opacity:1; fill:none" points="
  1518.07,569.713 1536.97,569.713 
  "/>
<polyline clip-path="url(#clip950)" style="stroke:#000000; stroke-linecap:round; stroke-linejoin:round; stroke-width:4; stroke-opacity:1; fill:none" points="
  1518.07,175.141 1536.97,175.141 
  "/>
<path clip-path="url(#clip950)" d="M1420.58 1739.23 Q1416.97 1739.23 1415.14 1742.79 Q1413.33 1746.34 1413.33 1753.47 Q1413.33 1760.57 1415.14 1764.14 Q1416.97 1767.68 1420.58 1767.68 Q1424.21 1767.68 1426.02 1764.14 Q1427.85 1760.57 1427.85 1753.47 Q1427.85 1746.34 1426.02 1742.79 Q1424.21 1739.23 1420.58 1739.23 M1420.58 1735.53 Q1426.39 1735.53 1429.44 1740.13 Q1432.52 1744.72 1432.52 1753.47 Q1432.52 1762.19 1429.44 1766.8 Q1426.39 1771.38 1420.58 1771.38 Q1414.77 1771.38 1411.69 1766.8 Q1408.63 1762.19 1408.63 1753.47 Q1408.63 1744.72 1411.69 1740.13 Q1414.77 1735.53 1420.58 1735.53 Z" fill="#000000" fill-rule="evenodd" fill-opacity="1" /><path clip-path="url(#clip950)" d="M1440.74 1764.83 L1445.62 1764.83 L1445.62 1770.71 L1440.74 1770.71 L1440.74 1764.83 Z" fill="#000000" fill-rule="evenodd" fill-opacity="1" /><path clip-path="url(#clip950)" d="M1465.81 1739.23 Q1462.2 1739.23 1460.37 1742.79 Q1458.56 1746.34 1458.56 1753.47 Q1458.56 1760.57 1460.37 1764.14 Q1462.2 1767.68 1465.81 1767.68 Q1469.44 1767.68 1471.25 1764.14 Q1473.08 1760.57 1473.08 1753.47 Q1473.08 1746.34 1471.25 1742.79 Q1469.44 1739.23 1465.81 1739.23 M1465.81 1735.53 Q1471.62 1735.53 1474.67 1740.13 Q1477.75 1744.72 1477.75 1753.47 Q1477.75 1762.19 1474.67 1766.8 Q1471.62 1771.38 1465.81 1771.38 Q1460 1771.38 1456.92 1766.8 Q1453.86 1762.19 1453.86 1753.47 Q1453.86 1744.72 1456.92 1740.13 Q1460 1735.53 1465.81 1735.53 Z" fill="#000000" fill-rule="evenodd" fill-opacity="1" /><path clip-path="url(#clip950)" d="M1421.57 1344.66 Q1417.96 1344.66 1416.13 1348.22 Q1414.33 1351.76 1414.33 1358.89 Q1414.33 1366 1416.13 1369.56 Q1417.96 1373.11 1421.57 1373.11 Q1425.21 1373.11 1427.01 1369.56 Q1428.84 1366 1428.84 1358.89 Q1428.84 1351.76 1427.01 1348.22 Q1425.21 1344.66 1421.57 1344.66 M1421.57 1340.95 Q1427.38 1340.95 1430.44 1345.56 Q1433.52 1350.14 1433.52 1358.89 Q1433.52 1367.62 1430.44 1372.23 Q1427.38 1376.81 1421.57 1376.81 Q1415.76 1376.81 1412.68 1372.23 Q1409.63 1367.62 1409.63 1358.89 Q1409.63 1350.14 1412.68 1345.56 Q1415.76 1340.95 1421.57 1340.95 Z" fill="#000000" fill-rule="evenodd" fill-opacity="1" /><path clip-path="url(#clip950)" d="M1441.73 1370.26 L1446.62 1370.26 L1446.62 1376.14 L1441.73 1376.14 L1441.73 1370.26 Z" fill="#000000" fill-rule="evenodd" fill-opacity="1" /><path clip-path="url(#clip950)" d="M1456.85 1341.58 L1475.21 1341.58 L1475.21 1345.51 L1461.13 1345.51 L1461.13 1353.99 Q1462.15 1353.64 1463.17 1353.48 Q1464.19 1353.29 1465.21 1353.29 Q1470.99 1353.29 1474.37 1356.46 Q1477.75 1359.63 1477.75 1365.05 Q1477.75 1370.63 1474.28 1373.73 Q1470.81 1376.81 1464.49 1376.81 Q1462.31 1376.81 1460.04 1376.44 Q1457.8 1376.07 1455.39 1375.33 L1455.39 1370.63 Q1457.48 1371.76 1459.7 1372.32 Q1461.92 1372.87 1464.4 1372.87 Q1468.4 1372.87 1470.74 1370.77 Q1473.08 1368.66 1473.08 1365.05 Q1473.08 1361.44 1470.74 1359.33 Q1468.4 1357.23 1464.4 1357.23 Q1462.52 1357.23 1460.65 1357.64 Q1458.79 1358.06 1456.85 1358.94 L1456.85 1341.58 Z" fill="#000000" fill-rule="evenodd" fill-opacity="1" /><path clip-path="url(#clip950)" d="M1411.39 977.631 L1419.03 977.631 L1419.03 951.265 L1410.72 952.932 L1410.72 948.672 L1418.98 947.006 L1423.66 947.006 L1423.66 977.631 L1431.29 977.631 L1431.29 981.566 L1411.39 981.566 L1411.39 977.631 Z" fill="#000000" fill-rule="evenodd" fill-opacity="1" /><path clip-path="url(#clip950)" d="M1440.74 975.686 L1445.62 975.686 L1445.62 981.566 L1440.74 981.566 L1440.74 975.686 Z" fill="#000000" fill-rule="evenodd" fill-opacity="1" /><path clip-path="url(#clip950)" d="M1465.81 950.084 Q1462.2 950.084 1460.37 953.649 Q1458.56 957.191 1458.56 964.32 Q1458.56 971.427 1460.37 974.992 Q1462.2 978.533 1465.81 978.533 Q1469.44 978.533 1471.25 974.992 Q1473.08 971.427 1473.08 964.32 Q1473.08 957.191 1471.25 953.649 Q1469.44 950.084 1465.81 950.084 M1465.81 946.381 Q1471.62 946.381 1474.67 950.987 Q1477.75 955.57 1477.75 964.32 Q1477.75 973.047 1474.67 977.654 Q1471.62 982.237 1465.81 982.237 Q1460 982.237 1456.92 977.654 Q1453.86 973.047 1453.86 964.32 Q1453.86 955.57 1456.92 950.987 Q1460 946.381 1465.81 946.381 Z" fill="#000000" fill-rule="evenodd" fill-opacity="1" /><path clip-path="url(#clip950)" d="M1412.38 583.058 L1420.02 583.058 L1420.02 556.693 L1411.71 558.359 L1411.71 554.1 L1419.98 552.433 L1424.65 552.433 L1424.65 583.058 L1432.29 583.058 L1432.29 586.993 L1412.38 586.993 L1412.38 583.058 Z" fill="#000000" fill-rule="evenodd" fill-opacity="1" /><path clip-path="url(#clip950)" d="M1441.73 581.114 L1446.62 581.114 L1446.62 586.993 L1441.73 586.993 L1441.73 581.114 Z" fill="#000000" fill-rule="evenodd" fill-opacity="1" /><path clip-path="url(#clip950)" d="M1456.85 552.433 L1475.21 552.433 L1475.21 556.368 L1461.13 556.368 L1461.13 564.841 Q1462.15 564.493 1463.17 564.331 Q1464.19 564.146 1465.21 564.146 Q1470.99 564.146 1474.37 567.317 Q1477.75 570.489 1477.75 575.905 Q1477.75 581.484 1474.28 584.586 Q1470.81 587.665 1464.49 587.665 Q1462.31 587.665 1460.04 587.294 Q1457.8 586.924 1455.39 586.183 L1455.39 581.484 Q1457.48 582.618 1459.7 583.174 Q1461.92 583.729 1464.4 583.729 Q1468.4 583.729 1470.74 581.623 Q1473.08 579.516 1473.08 575.905 Q1473.08 572.294 1470.74 570.188 Q1468.4 568.081 1464.4 568.081 Q1462.52 568.081 1460.65 568.498 Q1458.79 568.915 1456.85 569.794 L1456.85 552.433 Z" fill="#000000" fill-rule="evenodd" fill-opacity="1" /><path clip-path="url(#clip950)" d="M1414.61 188.486 L1430.92 188.486 L1430.92 192.421 L1408.98 192.421 L1408.98 188.486 Q1411.64 185.731 1416.23 181.101 Q1420.83 176.449 1422.01 175.106 Q1424.26 172.583 1425.14 170.847 Q1426.04 169.088 1426.04 167.398 Q1426.04 164.643 1424.1 162.907 Q1422.17 161.171 1419.07 161.171 Q1416.87 161.171 1414.42 161.935 Q1411.99 162.699 1409.21 164.25 L1409.21 159.527 Q1412.04 158.393 1414.49 157.815 Q1416.94 157.236 1418.98 157.236 Q1424.35 157.236 1427.54 159.921 Q1430.74 162.606 1430.74 167.097 Q1430.74 169.226 1429.93 171.148 Q1429.14 173.046 1427.04 175.639 Q1426.46 176.31 1423.36 179.527 Q1420.25 182.722 1414.61 188.486 Z" fill="#000000" fill-rule="evenodd" fill-opacity="1" /><path clip-path="url(#clip950)" d="M1440.74 186.541 L1445.62 186.541 L1445.62 192.421 L1440.74 192.421 L1440.74 186.541 Z" fill="#000000" fill-rule="evenodd" fill-opacity="1" /><path clip-path="url(#clip950)" d="M1465.81 160.94 Q1462.2 160.94 1460.37 164.504 Q1458.56 168.046 1458.56 175.176 Q1458.56 182.282 1460.37 185.847 Q1462.2 189.388 1465.81 189.388 Q1469.44 189.388 1471.25 185.847 Q1473.08 182.282 1473.08 175.176 Q1473.08 168.046 1471.25 164.504 Q1469.44 160.94 1465.81 160.94 M1465.81 157.236 Q1471.62 157.236 1474.67 161.842 Q1477.75 166.426 1477.75 175.176 Q1477.75 183.902 1474.67 188.509 Q1471.62 193.092 1465.81 193.092 Q1460 193.092 1456.92 188.509 Q1453.86 183.902 1453.86 175.176 Q1453.86 166.426 1456.92 161.842 Q1460 157.236 1465.81 157.236 Z" fill="#000000" fill-rule="evenodd" fill-opacity="1" /><path clip-path="url(#clip950)" d="M2049.82 45.1919 L2049.82 72.576 L2042.37 72.576 L2042.37 45.4349 Q2042.37 38.994 2039.86 35.7938 Q2037.35 32.5936 2032.32 32.5936 Q2026.29 32.5936 2022.8 36.4419 Q2019.32 40.2903 2019.32 46.9338 L2019.32 72.576 L2011.83 72.576 L2011.83 9.54393 L2019.32 9.54393 L2019.32 34.2544 Q2021.99 30.163 2025.6 28.1376 Q2029.24 26.1121 2033.98 26.1121 Q2041.8 26.1121 2045.81 30.9732 Q2049.82 35.7938 2049.82 45.1919 Z" fill="#000000" fill-rule="evenodd" fill-opacity="1" /><path clip-path="url(#clip950)" d="M2082.59 9.62495 Q2077.17 18.942 2074.53 28.0566 Q2071.9 37.1711 2071.9 46.5287 Q2071.9 55.8863 2074.53 65.0818 Q2077.21 74.2369 2082.59 83.5134 L2076.11 83.5134 Q2070.04 73.9938 2067 64.7983 Q2064 55.6027 2064 46.5287 Q2064 37.4952 2067 28.3401 Q2070 19.1851 2076.11 9.62495 L2082.59 9.62495 Z" fill="#000000" fill-rule="evenodd" fill-opacity="1" /><path clip-path="url(#clip950)" d="M2104.43 14.324 L2104.43 27.2059 L2119.78 27.2059 L2119.78 32.9987 L2104.43 32.9987 L2104.43 57.6282 Q2104.43 63.1779 2105.93 64.7578 Q2107.47 66.3376 2112.13 66.3376 L2119.78 66.3376 L2119.78 72.576 L2112.13 72.576 Q2103.5 72.576 2100.22 69.3758 Q2096.93 66.1351 2096.93 57.6282 L2096.93 32.9987 L2091.47 32.9987 L2091.47 27.2059 L2096.93 27.2059 L2096.93 14.324 L2104.43 14.324 Z" fill="#000000" fill-rule="evenodd" fill-opacity="1" /><path clip-path="url(#clip950)" d="M2128.41 9.62495 L2134.89 9.62495 Q2140.97 19.1851 2143.97 28.3401 Q2147 37.4952 2147 46.5287 Q2147 55.6027 2143.97 64.7983 Q2140.97 73.9938 2134.89 83.5134 L2128.41 83.5134 Q2133.8 74.2369 2136.43 65.0818 Q2139.1 55.8863 2139.1 46.5287 Q2139.1 37.1711 2136.43 28.0566 Q2133.8 18.942 2128.41 9.62495 Z" fill="#000000" fill-rule="evenodd" fill-opacity="1" /><polyline clip-path="url(#clip953)" style="stroke:#009af9; stroke-linecap:round; stroke-linejoin:round; stroke-width:4; stroke-opacity:1; fill:none" points="
  1549.85,1753.43 1556.74,1732.88 1620.5,1542.86 1658.82,1428.66 1691.21,1332.11 1726.41,1227.22 1758.85,1130.53 1793.63,1026.87 1833.93,906.763 1869.74,800.028 
  1901.15,706.43 1935.39,604.384 1969.83,501.732 2007.91,388.236 2044.15,280.248 2053.57,252.177 2062.98,224.106 2067.69,210.071 2072.4,196.036 2074.76,189.018 
  2077.11,182 2079.47,175.141 2081.82,175.141 2085.79,175.141 2089.75,175.141 2093.71,175.141 2097.68,175.141 2105.61,175.141 2113.54,175.141 2152.26,175.141 
  2187.72,175.141 2220.48,175.141 2253.67,175.141 2290.86,175.141 2324.55,175.141 2363.14,175.141 2398.86,175.141 2434.08,175.141 2468.28,175.141 2503.34,175.141 
  2541.74,175.141 2597.54,175.141 2608.98,175.141 
  "/>
</svg>
