<?xml version="1.0" encoding="utf-8"?>
<svg xmlns="http://www.w3.org/2000/svg" xmlns:xlink="http://www.w3.org/1999/xlink" width="672" height="480" viewBox="0 0 2688 1920">
<defs>
  <clipPath id="clip420">
    <rect x="0" y="0" width="2688" height="1920"/>
  </clipPath>
</defs>
<path clip-path="url(#clip420)" d="
M0 1920 L2688 1920 L2688 0 L0 0  Z
  " fill="#ffffff" fill-rule="evenodd" fill-opacity="1"/>
<defs>
  <clipPath id="clip421">
    <rect x="537" y="0" width="1883" height="1883"/>
  </clipPath>
</defs>
<defs>
  <clipPath id="clip422">
    <rect x="189" y="127" width="2453" height="1674"/>
  </clipPath>
</defs>
<path clip-path="url(#clip420)" d="
M158.992 1800.78 L2640.76 1800.78 L2640.76 127.792 L158.992 127.792  Z
  " fill="#ffffff" fill-rule="evenodd" fill-opacity="1"/>
<defs>
  <clipPath id="clip423">
    <rect x="158" y="127" width="2483" height="1674"/>
  </clipPath>
</defs>
<polyline clip-path="url(#clip423)" style="stroke:#000000; stroke-linecap:round; stroke-linejoin:round; stroke-width:2; stroke-opacity:0.1; fill:none" points="
  229.231,1800.78 229.231,127.792 
  "/>
<polyline clip-path="url(#clip423)" style="stroke:#000000; stroke-linecap:round; stroke-linejoin:round; stroke-width:2; stroke-opacity:0.1; fill:none" points="
  697.488,1800.78 697.488,127.792 
  "/>
<polyline clip-path="url(#clip423)" style="stroke:#000000; stroke-linecap:round; stroke-linejoin:round; stroke-width:2; stroke-opacity:0.1; fill:none" points="
  1165.75,1800.78 1165.75,127.792 
  "/>
<polyline clip-path="url(#clip423)" style="stroke:#000000; stroke-linecap:round; stroke-linejoin:round; stroke-width:2; stroke-opacity:0.1; fill:none" points="
  1634,1800.78 1634,127.792 
  "/>
<polyline clip-path="url(#clip423)" style="stroke:#000000; stroke-linecap:round; stroke-linejoin:round; stroke-width:2; stroke-opacity:0.1; fill:none" points="
  2102.26,1800.78 2102.26,127.792 
  "/>
<polyline clip-path="url(#clip423)" style="stroke:#000000; stroke-linecap:round; stroke-linejoin:round; stroke-width:2; stroke-opacity:0.1; fill:none" points="
  2570.52,1800.78 2570.52,127.792 
  "/>
<polyline clip-path="url(#clip420)" style="stroke:#000000; stroke-linecap:round; stroke-linejoin:round; stroke-width:4; stroke-opacity:1; fill:none" points="
  158.992,1800.78 2640.76,1800.78 
  "/>
<polyline clip-path="url(#clip420)" style="stroke:#000000; stroke-linecap:round; stroke-linejoin:round; stroke-width:4; stroke-opacity:1; fill:none" points="
  229.231,1800.78 229.231,1781.88 
  "/>
<polyline clip-path="url(#clip420)" style="stroke:#000000; stroke-linecap:round; stroke-linejoin:round; stroke-width:4; stroke-opacity:1; fill:none" points="
  697.488,1800.78 697.488,1781.88 
  "/>
<polyline clip-path="url(#clip420)" style="stroke:#000000; stroke-linecap:round; stroke-linejoin:round; stroke-width:4; stroke-opacity:1; fill:none" points="
  1165.75,1800.78 1165.75,1781.88 
  "/>
<polyline clip-path="url(#clip420)" style="stroke:#000000; stroke-linecap:round; stroke-linejoin:round; stroke-width:4; stroke-opacity:1; fill:none" points="
  1634,1800.78 1634,1781.88 
  "/>
<polyline clip-path="url(#clip420)" style="stroke:#000000; stroke-linecap:round; stroke-linejoin:round; stroke-width:4; stroke-opacity:1; fill:none" points="
  2102.26,1800.78 2102.26,1781.88 
  "/>
<polyline clip-path="url(#clip420)" style="stroke:#000000; stroke-linecap:round; stroke-linejoin:round; stroke-width:4; stroke-opacity:1; fill:none" points="
  2570.52,1800.78 2570.52,1781.88 
  "/>
<path clip-path="url(#clip420)" d="M198.698 1848.65 L228.374 1848.65 L228.374 1852.59 L198.698 1852.59 L198.698 1848.65 Z" fill="#000000" fill-rule="evenodd" fill-opacity="1" /><path clip-path="url(#clip420)" d="M252.633 1846.85 Q255.99 1847.57 257.865 1849.84 Q259.763 1852.1 259.763 1855.44 Q259.763 1860.55 256.244 1863.35 Q252.726 1866.15 246.245 1866.15 Q244.069 1866.15 241.754 1865.71 Q239.462 1865.3 237.008 1864.44 L237.008 1859.93 Q238.953 1861.06 241.268 1861.64 Q243.582 1862.22 246.106 1862.22 Q250.504 1862.22 252.795 1860.48 Q255.11 1858.75 255.11 1855.44 Q255.11 1852.38 252.957 1850.67 Q250.828 1848.93 247.008 1848.93 L242.981 1848.93 L242.981 1845.09 L247.194 1845.09 Q250.643 1845.09 252.471 1843.72 Q254.3 1842.34 254.3 1839.74 Q254.3 1837.08 252.402 1835.67 Q250.527 1834.23 247.008 1834.23 Q245.087 1834.23 242.888 1834.65 Q240.689 1835.07 238.05 1835.95 L238.05 1831.78 Q240.712 1831.04 243.027 1830.67 Q245.365 1830.3 247.425 1830.3 Q252.749 1830.3 255.851 1832.73 Q258.953 1835.14 258.953 1839.26 Q258.953 1842.13 257.309 1844.12 Q255.666 1846.09 252.633 1846.85 Z" fill="#000000" fill-rule="evenodd" fill-opacity="1" /><path clip-path="url(#clip420)" d="M667.43 1848.65 L697.106 1848.65 L697.106 1852.59 L667.43 1852.59 L667.43 1848.65 Z" fill="#000000" fill-rule="evenodd" fill-opacity="1" /><path clip-path="url(#clip420)" d="M711.226 1861.55 L727.546 1861.55 L727.546 1865.48 L705.601 1865.48 L705.601 1861.55 Q708.263 1858.79 712.847 1854.16 Q717.453 1849.51 718.634 1848.17 Q720.879 1845.65 721.759 1843.91 Q722.662 1842.15 722.662 1840.46 Q722.662 1837.71 720.717 1835.97 Q718.796 1834.23 715.694 1834.23 Q713.495 1834.23 711.041 1835 Q708.611 1835.76 705.833 1837.31 L705.833 1832.59 Q708.657 1831.46 711.111 1830.88 Q713.564 1830.3 715.601 1830.3 Q720.972 1830.3 724.166 1832.98 Q727.361 1835.67 727.361 1840.16 Q727.361 1842.29 726.55 1844.21 Q725.763 1846.11 723.657 1848.7 Q723.078 1849.37 719.976 1852.59 Q716.875 1855.78 711.226 1861.55 Z" fill="#000000" fill-rule="evenodd" fill-opacity="1" /><path clip-path="url(#clip420)" d="M1135.5 1848.65 L1165.18 1848.65 L1165.18 1852.59 L1135.5 1852.59 L1135.5 1848.65 Z" fill="#000000" fill-rule="evenodd" fill-opacity="1" /><path clip-path="url(#clip420)" d="M1176.08 1861.55 L1183.72 1861.55 L1183.72 1835.18 L1175.41 1836.85 L1175.41 1832.59 L1183.67 1830.92 L1188.35 1830.92 L1188.35 1861.55 L1195.99 1861.55 L1195.99 1865.48 L1176.08 1865.48 L1176.08 1861.55 Z" fill="#000000" fill-rule="evenodd" fill-opacity="1" /><path clip-path="url(#clip420)" d="M1634 1834 Q1630.39 1834 1628.56 1837.57 Q1626.76 1841.11 1626.76 1848.24 Q1626.76 1855.34 1628.56 1858.91 Q1630.39 1862.45 1634 1862.45 Q1637.64 1862.45 1639.44 1858.91 Q1641.27 1855.34 1641.27 1848.24 Q1641.27 1841.11 1639.44 1837.57 Q1637.64 1834 1634 1834 M1634 1830.3 Q1639.81 1830.3 1642.87 1834.9 Q1645.95 1839.49 1645.95 1848.24 Q1645.95 1856.96 1642.87 1861.57 Q1639.81 1866.15 1634 1866.15 Q1628.19 1866.15 1625.11 1861.57 Q1622.06 1856.96 1622.06 1848.24 Q1622.06 1839.49 1625.11 1834.9 Q1628.19 1830.3 1634 1830.3 Z" fill="#000000" fill-rule="evenodd" fill-opacity="1" /><path clip-path="url(#clip420)" d="M2092.64 1861.55 L2100.28 1861.55 L2100.28 1835.18 L2091.97 1836.85 L2091.97 1832.59 L2100.23 1830.92 L2104.91 1830.92 L2104.91 1861.55 L2112.55 1861.55 L2112.55 1865.48 L2092.64 1865.48 L2092.64 1861.55 Z" fill="#000000" fill-rule="evenodd" fill-opacity="1" /><path clip-path="url(#clip420)" d="M2565.17 1861.55 L2581.49 1861.55 L2581.49 1865.48 L2559.55 1865.48 L2559.55 1861.55 Q2562.21 1858.79 2566.79 1854.16 Q2571.4 1849.51 2572.58 1848.17 Q2574.82 1845.65 2575.7 1843.91 Q2576.61 1842.15 2576.61 1840.46 Q2576.61 1837.71 2574.66 1835.97 Q2572.74 1834.23 2569.64 1834.23 Q2567.44 1834.23 2564.98 1835 Q2562.55 1835.76 2559.78 1837.31 L2559.78 1832.59 Q2562.6 1831.46 2565.05 1830.88 Q2567.51 1830.3 2569.55 1830.3 Q2574.92 1830.3 2578.11 1832.98 Q2581.3 1835.67 2581.3 1840.16 Q2581.3 1842.29 2580.49 1844.21 Q2579.71 1846.11 2577.6 1848.7 Q2577.02 1849.37 2573.92 1852.59 Q2570.82 1855.78 2565.17 1861.55 Z" fill="#000000" fill-rule="evenodd" fill-opacity="1" /><polyline clip-path="url(#clip423)" style="stroke:#000000; stroke-linecap:round; stroke-linejoin:round; stroke-width:2; stroke-opacity:0.1; fill:none" points="
  158.992,1753.43 2640.76,1753.43 
  "/>
<polyline clip-path="url(#clip423)" style="stroke:#000000; stroke-linecap:round; stroke-linejoin:round; stroke-width:2; stroke-opacity:0.1; fill:none" points="
  158.992,1358.86 2640.76,1358.86 
  "/>
<polyline clip-path="url(#clip423)" style="stroke:#000000; stroke-linecap:round; stroke-linejoin:round; stroke-width:2; stroke-opacity:0.1; fill:none" points="
  158.992,964.286 2640.76,964.286 
  "/>
<polyline clip-path="url(#clip423)" style="stroke:#000000; stroke-linecap:round; stroke-linejoin:round; stroke-width:2; stroke-opacity:0.1; fill:none" points="
  158.992,569.713 2640.76,569.713 
  "/>
<polyline clip-path="url(#clip423)" style="stroke:#000000; stroke-linecap:round; stroke-linejoin:round; stroke-width:2; stroke-opacity:0.1; fill:none" points="
  158.992,175.141 2640.76,175.141 
  "/>
<polyline clip-path="url(#clip420)" style="stroke:#000000; stroke-linecap:round; stroke-linejoin:round; stroke-width:4; stroke-opacity:1; fill:none" points="
  158.992,1800.78 158.992,127.792 
  "/>
<polyline clip-path="url(#clip420)" style="stroke:#000000; stroke-linecap:round; stroke-linejoin:round; stroke-width:4; stroke-opacity:1; fill:none" points="
  158.992,1753.43 177.89,1753.43 
  "/>
<polyline clip-path="url(#clip420)" style="stroke:#000000; stroke-linecap:round; stroke-linejoin:round; stroke-width:4; stroke-opacity:1; fill:none" points="
  158.992,1358.86 177.89,1358.86 
  "/>
<polyline clip-path="url(#clip420)" style="stroke:#000000; stroke-linecap:round; stroke-linejoin:round; stroke-width:4; stroke-opacity:1; fill:none" points="
  158.992,964.286 177.89,964.286 
  "/>
<polyline clip-path="url(#clip420)" style="stroke:#000000; stroke-linecap:round; stroke-linejoin:round; stroke-width:4; stroke-opacity:1; fill:none" points="
  158.992,569.713 177.89,569.713 
  "/>
<polyline clip-path="url(#clip420)" style="stroke:#000000; stroke-linecap:round; stroke-linejoin:round; stroke-width:4; stroke-opacity:1; fill:none" points="
  158.992,175.141 177.89,175.141 
  "/>
<path clip-path="url(#clip420)" d="M61.4965 1739.23 Q57.8854 1739.23 56.0567 1742.79 Q54.2512 1746.34 54.2512 1753.47 Q54.2512 1760.57 56.0567 1764.14 Q57.8854 1767.68 61.4965 1767.68 Q65.1307 1767.68 66.9363 1764.14 Q68.765 1760.57 68.765 1753.47 Q68.765 1746.34 66.9363 1742.79 Q65.1307 1739.23 61.4965 1739.23 M61.4965 1735.53 Q67.3067 1735.53 70.3622 1740.13 Q73.4409 1744.72 73.4409 1753.47 Q73.4409 1762.19 70.3622 1766.8 Q67.3067 1771.38 61.4965 1771.38 Q55.6864 1771.38 52.6077 1766.8 Q49.5521 1762.19 49.5521 1753.47 Q49.5521 1744.72 52.6077 1740.13 Q55.6864 1735.53 61.4965 1735.53 Z" fill="#000000" fill-rule="evenodd" fill-opacity="1" /><path clip-path="url(#clip420)" d="M81.6584 1764.83 L86.5427 1764.83 L86.5427 1770.71 L81.6584 1770.71 L81.6584 1764.83 Z" fill="#000000" fill-rule="evenodd" fill-opacity="1" /><path clip-path="url(#clip420)" d="M106.728 1739.23 Q103.117 1739.23 101.288 1742.79 Q99.4824 1746.34 99.4824 1753.47 Q99.4824 1760.57 101.288 1764.14 Q103.117 1767.68 106.728 1767.68 Q110.362 1767.68 112.168 1764.14 Q113.996 1760.57 113.996 1753.47 Q113.996 1746.34 112.168 1742.79 Q110.362 1739.23 106.728 1739.23 M106.728 1735.53 Q112.538 1735.53 115.593 1740.13 Q118.672 1744.72 118.672 1753.47 Q118.672 1762.19 115.593 1766.8 Q112.538 1771.38 106.728 1771.38 Q100.918 1771.38 97.8389 1766.8 Q94.7834 1762.19 94.7834 1753.47 Q94.7834 1744.72 97.8389 1740.13 Q100.918 1735.53 106.728 1735.53 Z" fill="#000000" fill-rule="evenodd" fill-opacity="1" /><path clip-path="url(#clip420)" d="M62.4919 1344.66 Q58.8808 1344.66 57.0521 1348.22 Q55.2465 1351.76 55.2465 1358.89 Q55.2465 1366 57.0521 1369.56 Q58.8808 1373.11 62.4919 1373.11 Q66.1261 1373.11 67.9317 1369.56 Q69.7604 1366 69.7604 1358.89 Q69.7604 1351.76 67.9317 1348.22 Q66.1261 1344.66 62.4919 1344.66 M62.4919 1340.95 Q68.302 1340.95 71.3576 1345.56 Q74.4363 1350.14 74.4363 1358.89 Q74.4363 1367.62 71.3576 1372.23 Q68.302 1376.81 62.4919 1376.81 Q56.6817 1376.81 53.603 1372.23 Q50.5475 1367.62 50.5475 1358.89 Q50.5475 1350.14 53.603 1345.56 Q56.6817 1340.95 62.4919 1340.95 Z" fill="#000000" fill-rule="evenodd" fill-opacity="1" /><path clip-path="url(#clip420)" d="M82.6538 1370.26 L87.538 1370.26 L87.538 1376.14 L82.6538 1376.14 L82.6538 1370.26 Z" fill="#000000" fill-rule="evenodd" fill-opacity="1" /><path clip-path="url(#clip420)" d="M97.7695 1341.58 L116.126 1341.58 L116.126 1345.51 L102.052 1345.51 L102.052 1353.99 Q103.07 1353.64 104.089 1353.48 Q105.107 1353.29 106.126 1353.29 Q111.913 1353.29 115.293 1356.46 Q118.672 1359.63 118.672 1365.05 Q118.672 1370.63 115.2 1373.73 Q111.728 1376.81 105.408 1376.81 Q103.232 1376.81 100.964 1376.44 Q98.7185 1376.07 96.3111 1375.33 L96.3111 1370.63 Q98.3945 1371.76 100.617 1372.32 Q102.839 1372.87 105.316 1372.87 Q109.32 1372.87 111.658 1370.77 Q113.996 1368.66 113.996 1365.05 Q113.996 1361.44 111.658 1359.33 Q109.32 1357.23 105.316 1357.23 Q103.441 1357.23 101.566 1357.64 Q99.7139 1358.06 97.7695 1358.94 L97.7695 1341.58 Z" fill="#000000" fill-rule="evenodd" fill-opacity="1" /><path clip-path="url(#clip420)" d="M52.3067 977.631 L59.9456 977.631 L59.9456 951.265 L51.6354 952.932 L51.6354 948.672 L59.8993 947.006 L64.5752 947.006 L64.5752 977.631 L72.214 977.631 L72.214 981.566 L52.3067 981.566 L52.3067 977.631 Z" fill="#000000" fill-rule="evenodd" fill-opacity="1" /><path clip-path="url(#clip420)" d="M81.6584 975.686 L86.5427 975.686 L86.5427 981.566 L81.6584 981.566 L81.6584 975.686 Z" fill="#000000" fill-rule="evenodd" fill-opacity="1" /><path clip-path="url(#clip420)" d="M106.728 950.084 Q103.117 950.084 101.288 953.649 Q99.4824 957.191 99.4824 964.32 Q99.4824 971.427 101.288 974.992 Q103.117 978.533 106.728 978.533 Q110.362 978.533 112.168 974.992 Q113.996 971.427 113.996 964.32 Q113.996 957.191 112.168 953.649 Q110.362 950.084 106.728 950.084 M106.728 946.381 Q112.538 946.381 115.593 950.987 Q118.672 955.57 118.672 964.32 Q118.672 973.047 115.593 977.654 Q112.538 982.237 106.728 982.237 Q100.918 982.237 97.8389 977.654 Q94.7834 973.047 94.7834 964.32 Q94.7834 955.57 97.8389 950.987 Q100.918 946.381 106.728 946.381 Z" fill="#000000" fill-rule="evenodd" fill-opacity="1" /><path clip-path="url(#clip420)" d="M53.3021 583.058 L60.941 583.058 L60.941 556.693 L52.6308 558.359 L52.6308 554.1 L60.8947 552.433 L65.5706 552.433 L65.5706 583.058 L73.2094 583.058 L73.2094 586.993 L53.3021 586.993 L53.3021 583.058 Z" fill="#000000" fill-rule="evenodd" fill-opacity="1" /><path clip-path="url(#clip420)" d="M82.6538 581.114 L87.538 581.114 L87.538 586.993 L82.6538 586.993 L82.6538 581.114 Z" fill="#000000" fill-rule="evenodd" fill-opacity="1" /><path clip-path="url(#clip420)" d="M97.7695 552.433 L116.126 552.433 L116.126 556.368 L102.052 556.368 L102.052 564.841 Q103.07 564.493 104.089 564.331 Q105.107 564.146 106.126 564.146 Q111.913 564.146 115.293 567.317 Q118.672 570.489 118.672 575.905 Q118.672 581.484 115.2 584.586 Q111.728 587.665 105.408 587.665 Q103.232 587.665 100.964 587.294 Q98.7185 586.924 96.3111 586.183 L96.3111 581.484 Q98.3945 582.618 100.617 583.174 Q102.839 583.729 105.316 583.729 Q109.32 583.729 111.658 581.623 Q113.996 579.516 113.996 575.905 Q113.996 572.294 111.658 570.188 Q109.32 568.081 105.316 568.081 Q103.441 568.081 101.566 568.498 Q99.7139 568.915 97.7695 569.794 L97.7695 552.433 Z" fill="#000000" fill-rule="evenodd" fill-opacity="1" /><path clip-path="url(#clip420)" d="M55.5243 188.486 L71.8437 188.486 L71.8437 192.421 L49.8993 192.421 L49.8993 188.486 Q52.5614 185.731 57.1447 181.101 Q61.7511 176.449 62.9317 175.106 Q65.177 172.583 66.0567 170.847 Q66.9594 169.088 66.9594 167.398 Q66.9594 164.643 65.015 162.907 Q63.0937 161.171 59.9919 161.171 Q57.7928 161.171 55.3391 161.935 Q52.9086 162.699 50.1308 164.25 L50.1308 159.527 Q52.9549 158.393 55.4086 157.815 Q57.8623 157.236 59.8993 157.236 Q65.2696 157.236 68.4641 159.921 Q71.6585 162.606 71.6585 167.097 Q71.6585 169.226 70.8483 171.148 Q70.0613 173.046 67.9548 175.639 Q67.3761 176.31 64.2743 179.527 Q61.1724 182.722 55.5243 188.486 Z" fill="#000000" fill-rule="evenodd" fill-opacity="1" /><path clip-path="url(#clip420)" d="M81.6584 186.541 L86.5427 186.541 L86.5427 192.421 L81.6584 192.421 L81.6584 186.541 Z" fill="#000000" fill-rule="evenodd" fill-opacity="1" /><path clip-path="url(#clip420)" d="M106.728 160.94 Q103.117 160.94 101.288 164.504 Q99.4824 168.046 99.4824 175.176 Q99.4824 182.282 101.288 185.847 Q103.117 189.388 106.728 189.388 Q110.362 189.388 112.168 185.847 Q113.996 182.282 113.996 175.176 Q113.996 168.046 112.168 164.504 Q110.362 160.94 106.728 160.94 M106.728 157.236 Q112.538 157.236 115.593 161.842 Q118.672 166.426 118.672 175.176 Q118.672 183.902 115.593 188.509 Q112.538 193.092 106.728 193.092 Q100.918 193.092 97.8389 188.509 Q94.7834 183.902 94.7834 175.176 Q94.7834 166.426 97.8389 161.842 Q100.918 157.236 106.728 157.236 Z" fill="#000000" fill-rule="evenodd" fill-opacity="1" /><path clip-path="url(#clip420)" d="M873.378 28.9478 L873.378 35.9153 Q870.218 34.1734 867.018 33.3227 Q863.858 32.4315 860.618 32.4315 Q853.367 32.4315 849.356 37.0496 Q845.346 41.6271 845.346 49.9314 Q845.346 58.2358 849.356 62.8538 Q853.367 67.4314 860.618 67.4314 Q863.858 67.4314 867.018 66.5807 Q870.218 65.6895 873.378 63.9476 L873.378 70.8341 Q870.259 72.2924 866.897 73.0216 Q863.575 73.7508 859.807 73.7508 Q849.559 73.7508 843.523 67.3098 Q837.487 60.8689 837.487 49.9314 Q837.487 38.832 843.563 32.472 Q849.68 26.1121 860.294 26.1121 Q863.737 26.1121 867.018 26.8413 Q870.299 27.5299 873.378 28.9478 Z" fill="#000000" fill-rule="evenodd" fill-opacity="1" /><path clip-path="url(#clip420)" d="M903.922 32.4315 Q897.926 32.4315 894.443 37.1306 Q890.959 41.7891 890.959 49.9314 Q890.959 58.0738 894.402 62.7728 Q897.886 67.4314 903.922 67.4314 Q909.877 67.4314 913.36 62.7323 Q916.844 58.0333 916.844 49.9314 Q916.844 41.8701 913.36 37.1711 Q909.877 32.4315 903.922 32.4315 M903.922 26.1121 Q913.644 26.1121 919.194 32.4315 Q924.743 38.7509 924.743 49.9314 Q924.743 61.0714 919.194 67.4314 Q913.644 73.7508 903.922 73.7508 Q894.159 73.7508 888.609 67.4314 Q883.1 61.0714 883.1 49.9314 Q883.1 38.7509 888.609 32.4315 Q894.159 26.1121 903.922 26.1121 Z" fill="#000000" fill-rule="evenodd" fill-opacity="1" /><path clip-path="url(#clip420)" d="M974.813 45.1919 L974.813 72.576 L967.359 72.576 L967.359 45.4349 Q967.359 38.994 964.847 35.7938 Q962.336 32.5936 957.313 32.5936 Q951.277 32.5936 947.793 36.4419 Q944.309 40.2903 944.309 46.9338 L944.309 72.576 L936.815 72.576 L936.815 27.2059 L944.309 27.2059 L944.309 34.2544 Q946.983 30.163 950.588 28.1376 Q954.234 26.1121 958.974 26.1121 Q966.792 26.1121 970.802 30.9732 Q974.813 35.7938 974.813 45.1919 Z" fill="#000000" fill-rule="evenodd" fill-opacity="1" /><path clip-path="url(#clip420)" d="M984.332 27.2059 L992.232 27.2059 L1006.41 65.2844 L1020.59 27.2059 L1028.49 27.2059 L1011.47 72.576 L1001.35 72.576 L984.332 27.2059 Z" fill="#000000" fill-rule="evenodd" fill-opacity="1" /><path clip-path="url(#clip420)" d="M1056.36 32.4315 Q1050.36 32.4315 1046.88 37.1306 Q1043.39 41.7891 1043.39 49.9314 Q1043.39 58.0738 1046.84 62.7728 Q1050.32 67.4314 1056.36 67.4314 Q1062.31 67.4314 1065.8 62.7323 Q1069.28 58.0333 1069.28 49.9314 Q1069.28 41.8701 1065.8 37.1711 Q1062.31 32.4315 1056.36 32.4315 M1056.36 26.1121 Q1066.08 26.1121 1071.63 32.4315 Q1077.18 38.7509 1077.18 49.9314 Q1077.18 61.0714 1071.63 67.4314 Q1066.08 73.7508 1056.36 73.7508 Q1046.59 73.7508 1041.04 67.4314 Q1035.54 61.0714 1035.54 49.9314 Q1035.54 38.7509 1041.04 32.4315 Q1046.59 26.1121 1056.36 26.1121 Z" fill="#000000" fill-rule="evenodd" fill-opacity="1" /><path clip-path="url(#clip420)" d="M1089.53 9.54393 L1096.99 9.54393 L1096.99 72.576 L1089.53 72.576 L1089.53 9.54393 Z" fill="#000000" fill-rule="evenodd" fill-opacity="1" /><path clip-path="url(#clip420)" d="M1111.81 54.671 L1111.81 27.2059 L1119.27 27.2059 L1119.27 54.3874 Q1119.27 60.8284 1121.78 64.0691 Q1124.29 67.2693 1129.31 67.2693 Q1135.35 67.2693 1138.83 63.421 Q1142.36 59.5726 1142.36 52.9291 L1142.36 27.2059 L1149.81 27.2059 L1149.81 72.576 L1142.36 72.576 L1142.36 65.6084 Q1139.64 69.7404 1136.04 71.7658 Q1132.47 73.7508 1127.73 73.7508 Q1119.92 73.7508 1115.87 68.8897 Q1111.81 64.0286 1111.81 54.671 M1130.57 26.1121 L1130.57 26.1121 Z" fill="#000000" fill-rule="evenodd" fill-opacity="1" /><path clip-path="url(#clip420)" d="M1172.54 14.324 L1172.54 27.2059 L1187.89 27.2059 L1187.89 32.9987 L1172.54 32.9987 L1172.54 57.6282 Q1172.54 63.1779 1174.04 64.7578 Q1175.58 66.3376 1180.23 66.3376 L1187.89 66.3376 L1187.89 72.576 L1180.23 72.576 Q1171.61 72.576 1168.32 69.3758 Q1165.04 66.1351 1165.04 57.6282 L1165.04 32.9987 L1159.57 32.9987 L1159.57 27.2059 L1165.04 27.2059 L1165.04 14.324 L1172.54 14.324 Z" fill="#000000" fill-rule="evenodd" fill-opacity="1" /><path clip-path="url(#clip420)" d="M1197.69 27.2059 L1205.15 27.2059 L1205.15 72.576 L1197.69 72.576 L1197.69 27.2059 M1197.69 9.54393 L1205.15 9.54393 L1205.15 18.9825 L1197.69 18.9825 L1197.69 9.54393 Z" fill="#000000" fill-rule="evenodd" fill-opacity="1" /><path clip-path="url(#clip420)" d="M1238.32 32.4315 Q1232.33 32.4315 1228.84 37.1306 Q1225.36 41.7891 1225.36 49.9314 Q1225.36 58.0738 1228.8 62.7728 Q1232.29 67.4314 1238.32 67.4314 Q1244.28 67.4314 1247.76 62.7323 Q1251.25 58.0333 1251.25 49.9314 Q1251.25 41.8701 1247.76 37.1711 Q1244.28 32.4315 1238.32 32.4315 M1238.32 26.1121 Q1248.05 26.1121 1253.6 32.4315 Q1259.15 38.7509 1259.15 49.9314 Q1259.15 61.0714 1253.6 67.4314 Q1248.05 73.7508 1238.32 73.7508 Q1228.56 73.7508 1223.01 67.4314 Q1217.5 61.0714 1217.5 49.9314 Q1217.5 38.7509 1223.01 32.4315 Q1228.56 26.1121 1238.32 26.1121 Z" fill="#000000" fill-rule="evenodd" fill-opacity="1" /><path clip-path="url(#clip420)" d="M1309.21 45.1919 L1309.21 72.576 L1301.76 72.576 L1301.76 45.4349 Q1301.76 38.994 1299.25 35.7938 Q1296.74 32.5936 1291.71 32.5936 Q1285.68 32.5936 1282.2 36.4419 Q1278.71 40.2903 1278.71 46.9338 L1278.71 72.576 L1271.22 72.576 L1271.22 27.2059 L1278.71 27.2059 L1278.71 34.2544 Q1281.39 30.163 1284.99 28.1376 Q1288.64 26.1121 1293.38 26.1121 Q1301.19 26.1121 1305.2 30.9732 Q1309.21 35.7938 1309.21 45.1919 Z" fill="#000000" fill-rule="evenodd" fill-opacity="1" /><path clip-path="url(#clip420)" d="M1388.17 27.2059 L1371.76 49.2833 L1389.02 72.576 L1380.23 72.576 L1367.02 54.752 L1353.82 72.576 L1345.02 72.576 L1362.65 48.8377 L1346.52 27.2059 L1355.31 27.2059 L1367.35 43.369 L1379.38 27.2059 L1388.17 27.2059 Z" fill="#000000" fill-rule="evenodd" fill-opacity="1" /><path clip-path="url(#clip420)" d="M1417.45 9.62495 Q1412.03 18.942 1409.39 28.0566 Q1406.76 37.1711 1406.76 46.5287 Q1406.76 55.8863 1409.39 65.0818 Q1412.07 74.2369 1417.45 83.5134 L1410.97 83.5134 Q1404.9 73.9938 1401.86 64.7983 Q1398.86 55.6027 1398.86 46.5287 Q1398.86 37.4952 1401.86 28.3401 Q1404.86 19.1851 1410.97 9.62495 L1417.45 9.62495 Z" fill="#000000" fill-rule="evenodd" fill-opacity="1" /><path clip-path="url(#clip420)" d="M1439.29 14.324 L1439.29 27.2059 L1454.64 27.2059 L1454.64 32.9987 L1439.29 32.9987 L1439.29 57.6282 Q1439.29 63.1779 1440.79 64.7578 Q1442.33 66.3376 1446.99 66.3376 L1454.64 66.3376 L1454.64 72.576 L1446.99 72.576 Q1438.36 72.576 1435.08 69.3758 Q1431.8 66.1351 1431.8 57.6282 L1431.8 32.9987 L1426.33 32.9987 L1426.33 27.2059 L1431.8 27.2059 L1431.8 14.324 L1439.29 14.324 Z" fill="#000000" fill-rule="evenodd" fill-opacity="1" /><path clip-path="url(#clip420)" d="M1463.27 9.62495 L1469.75 9.62495 Q1475.83 19.1851 1478.83 28.3401 Q1481.86 37.4952 1481.86 46.5287 Q1481.86 55.6027 1478.83 64.7983 Q1475.83 73.9938 1469.75 83.5134 L1463.27 83.5134 Q1468.66 74.2369 1471.29 65.0818 Q1473.97 55.8863 1473.97 46.5287 Q1473.97 37.1711 1471.29 28.0566 Q1468.66 18.942 1463.27 9.62495 Z" fill="#000000" fill-rule="evenodd" fill-opacity="1" /><path clip-path="url(#clip420)" d="M1528 22.0612 L1513.46 29.92 L1528 37.8192 L1525.65 41.7891 L1512.04 33.5658 L1512.04 48.8377 L1507.43 48.8377 L1507.43 33.5658 L1493.81 41.7891 L1491.46 37.8192 L1506.01 29.92 L1491.46 22.0612 L1493.81 18.0508 L1507.43 26.2742 L1507.43 11.0023 L1512.04 11.0023 L1512.04 26.2742 L1525.65 18.0508 L1528 22.0612 Z" fill="#000000" fill-rule="evenodd" fill-opacity="1" /><path clip-path="url(#clip420)" d="M1576.01 45.1919 L1576.01 72.576 L1568.55 72.576 L1568.55 45.4349 Q1568.55 38.994 1566.04 35.7938 Q1563.53 32.5936 1558.51 32.5936 Q1552.47 32.5936 1548.99 36.4419 Q1545.5 40.2903 1545.5 46.9338 L1545.5 72.576 L1538.01 72.576 L1538.01 9.54393 L1545.5 9.54393 L1545.5 34.2544 Q1548.18 30.163 1551.78 28.1376 Q1555.43 26.1121 1560.17 26.1121 Q1567.99 26.1121 1572 30.9732 Q1576.01 35.7938 1576.01 45.1919 Z" fill="#000000" fill-rule="evenodd" fill-opacity="1" /><path clip-path="url(#clip420)" d="M1608.78 9.62495 Q1603.35 18.942 1600.72 28.0566 Q1598.08 37.1711 1598.08 46.5287 Q1598.08 55.8863 1600.72 65.0818 Q1603.39 74.2369 1608.78 83.5134 L1602.3 83.5134 Q1596.22 73.9938 1593.18 64.7983 Q1590.19 55.6027 1590.19 46.5287 Q1590.19 37.4952 1593.18 28.3401 Q1596.18 19.1851 1602.3 9.62495 L1608.78 9.62495 Z" fill="#000000" fill-rule="evenodd" fill-opacity="1" /><path clip-path="url(#clip420)" d="M1630.61 14.324 L1630.61 27.2059 L1645.97 27.2059 L1645.97 32.9987 L1630.61 32.9987 L1630.61 57.6282 Q1630.61 63.1779 1632.11 64.7578 Q1633.65 66.3376 1638.31 66.3376 L1645.97 66.3376 L1645.97 72.576 L1638.31 72.576 Q1629.68 72.576 1626.4 69.3758 Q1623.12 66.1351 1623.12 57.6282 L1623.12 32.9987 L1617.65 32.9987 L1617.65 27.2059 L1623.12 27.2059 L1623.12 14.324 L1630.61 14.324 Z" fill="#000000" fill-rule="evenodd" fill-opacity="1" /><path clip-path="url(#clip420)" d="M1654.59 9.62495 L1661.08 9.62495 Q1667.15 19.1851 1670.15 28.3401 Q1673.19 37.4952 1673.19 46.5287 Q1673.19 55.6027 1670.15 64.7983 Q1667.15 73.9938 1661.08 83.5134 L1654.59 83.5134 Q1659.98 74.2369 1662.62 65.0818 Q1665.29 55.8863 1665.29 46.5287 Q1665.29 37.1711 1662.62 28.0566 Q1659.98 18.942 1654.59 9.62495 Z" fill="#000000" fill-rule="evenodd" fill-opacity="1" /><path clip-path="url(#clip420)" d="M1690.04 62.2867 L1698.59 62.2867 L1698.59 69.2543 L1691.94 82.2172 L1686.72 82.2172 L1690.04 69.2543 L1690.04 62.2867 Z" fill="#000000" fill-rule="evenodd" fill-opacity="1" /><path clip-path="url(#clip420)" d="M1748.25 14.324 L1748.25 27.2059 L1763.6 27.2059 L1763.6 32.9987 L1748.25 32.9987 L1748.25 57.6282 Q1748.25 63.1779 1749.75 64.7578 Q1751.29 66.3376 1755.95 66.3376 L1763.6 66.3376 L1763.6 72.576 L1755.95 72.576 Q1747.32 72.576 1744.04 69.3758 Q1740.76 66.1351 1740.76 57.6282 L1740.76 32.9987 L1735.29 32.9987 L1735.29 27.2059 L1740.76 27.2059 L1740.76 14.324 L1748.25 14.324 Z" fill="#000000" fill-rule="evenodd" fill-opacity="1" /><path clip-path="url(#clip420)" d="M1852.68 31.7429 L1810.88 46.6097 L1852.68 61.3955 L1852.68 68.7682 L1800.75 49.9314 L1800.75 43.2069 L1852.68 24.3702 L1852.68 31.7429 Z" fill="#000000" fill-rule="evenodd" fill-opacity="1" /><path clip-path="url(#clip420)" d="M1891.9 46.5287 L1913.73 46.5287 L1913.73 53.1722 L1891.9 53.1722 L1891.9 46.5287 Z" fill="#000000" fill-rule="evenodd" fill-opacity="1" /><path clip-path="url(#clip420)" d="M1933.7 65.6895 L1962.26 65.6895 L1962.26 72.576 L1923.86 72.576 L1923.86 65.6895 Q1928.52 60.8689 1936.54 52.7671 Q1944.6 44.6248 1946.67 42.2752 Q1950.59 37.8598 1952.13 34.8216 Q1953.71 31.7429 1953.71 28.7857 Q1953.71 23.9651 1950.31 20.927 Q1946.95 17.8888 1941.52 17.8888 Q1937.67 17.8888 1933.38 19.2256 Q1929.12 20.5624 1924.26 23.2765 L1924.26 15.0127 Q1929.21 13.0277 1933.5 12.015 Q1937.79 11.0023 1941.36 11.0023 Q1950.76 11.0023 1956.35 15.7013 Q1961.94 20.4004 1961.94 28.2591 Q1961.94 31.9859 1960.52 35.3482 Q1959.14 38.6699 1955.46 43.2069 Q1954.44 44.3817 1949.01 50.0125 Q1943.59 55.6027 1933.7 65.6895 Z" fill="#000000" fill-rule="evenodd" fill-opacity="1" /><polyline clip-path="url(#clip423)" style="stroke:#009af9; stroke-linecap:round; stroke-linejoin:round; stroke-width:4; stroke-opacity:1; fill:none" points="
  229.231,964.286 236.852,964.286 244.474,964.286 314.946,964.286 385.418,964.286 406.593,964.286 427.769,964.286 438.356,964.286 448.944,964.286 451.591,964.286 
  454.238,964.286 456.885,964.286 459.532,964.286 460.193,964.286 460.855,964.286 461.517,964.286 462.179,964.286 462.84,964.286 463.502,1753.43 464.164,1753.43 
  464.825,1753.43 466.149,1753.43 467.472,1753.43 468.796,1753.43 470.119,1753.43 474.595,1753.43 479.071,1753.43 483.547,1753.43 488.023,1753.43 496.975,1753.43 
  505.926,1753.43 523.83,1753.43 541.733,1753.43 619.526,1753.43 691.244,1753.43 768.134,1753.43 857.218,1753.43 936.385,1753.43 1005.81,1753.43 1081.5,1753.43 
  1157.64,1753.43 1241.82,1753.43 1321.91,1753.43 1405.2,1753.43 1475.3,1753.43 1560.89,1753.43 1639.3,1753.43 1711.71,1753.43 1785.07,1753.43 1867.28,1753.43 
  1941.77,1753.43 2027.06,1753.43 2106.04,1753.43 2183.89,1753.43 2259.49,1753.43 2336.98,1753.43 2421.88,1753.43 2545.21,1753.43 2570.52,1753.43 
  "/>
<polyline clip-path="url(#clip423)" style="stroke:#e26f46; stroke-linecap:round; stroke-linejoin:round; stroke-width:4; stroke-opacity:1; fill:none" points="
  229.231,1753.43 244.474,1753.43 385.418,1753.43 470.119,1753.43 541.733,1753.43 580.63,1753.43 619.526,1753.43 637.456,1753.43 655.385,1753.43 664.35,1753.43 
  673.315,1753.43 682.28,1753.43 691.244,1753.43 696.05,1753.43 700.856,1747.76 705.661,1739.66 710.467,1731.56 720.078,1715.36 729.689,1699.16 748.912,1666.77 
  768.134,1634.37 812.676,1559.31 857.218,1484.24 936.385,1350.82 1005.81,1233.83 1081.5,1106.27 1157.64,977.952 1241.82,836.082 1321.91,701.097 1405.2,560.743 
  1475.3,442.596 1518.1,370.473 1560.89,298.351 1580.49,265.317 1600.1,232.282 1609.9,215.765 1619.7,199.248 1624.6,190.989 1629.5,182.731 1631.95,178.601 
  1634.4,175.141 1636.85,175.141 1639.3,175.141 1648.35,175.141 1657.4,175.141 1666.46,175.141 1675.51,175.141 1693.61,175.141 1711.71,175.141 1748.39,175.141 
  1785.07,175.141 1867.28,175.141 1941.77,175.141 2027.06,175.141 2106.04,175.141 2183.89,175.141 2259.49,175.141 2336.98,175.141 2421.88,175.141 2545.21,175.141 
  2570.52,175.141 
  "/>
<path clip-path="url(#clip420)" d="
M2110.47 339.078 L2558.03 339.078 L2558.03 183.558 L2110.47 183.558  Z
  " fill="#ffffff" fill-rule="evenodd" fill-opacity="1"/>
<polyline clip-path="url(#clip420)" style="stroke:#000000; stroke-linecap:round; stroke-linejoin:round; stroke-width:4; stroke-opacity:1; fill:none" points="
  2110.47,339.078 2558.03,339.078 2558.03,183.558 2110.47,183.558 2110.47,339.078 
  "/>
<polyline clip-path="url(#clip420)" style="stroke:#009af9; stroke-linecap:round; stroke-linejoin:round; stroke-width:4; stroke-opacity:1; fill:none" points="
  2138.05,235.398 2303.5,235.398 
  "/>
<path clip-path="url(#clip420)" d="M2354.96 229.237 Q2354.96 230.548 2354.14 231.298 Q2353.32 232.024 2352.39 232.024 Q2351.5 232.024 2351.03 231.509 Q2350.56 230.994 2350.56 230.338 Q2350.56 229.448 2351.22 228.675 Q2351.87 227.902 2352.86 227.738 Q2351.9 227.129 2350.47 227.129 Q2349.53 227.129 2348.71 227.621 Q2347.91 228.113 2347.42 228.745 Q2346.95 229.377 2346.53 230.291 Q2346.13 231.181 2345.97 231.72 Q2345.83 232.235 2345.71 232.797 L2344.07 239.355 Q2343.28 242.471 2343.28 243.571 Q2343.28 244.93 2343.93 245.843 Q2344.59 246.733 2345.9 246.733 Q2346.41 246.733 2347 246.593 Q2347.59 246.429 2348.33 246.007 Q2349.11 245.562 2349.79 244.906 Q2350.49 244.227 2351.17 243.079 Q2351.85 241.932 2352.29 240.456 Q2352.43 239.941 2352.9 239.941 Q2353.49 239.941 2353.49 240.409 Q2353.49 240.808 2353.16 241.651 Q2352.86 242.471 2352.18 243.548 Q2351.52 244.602 2350.65 245.562 Q2349.79 246.499 2348.5 247.155 Q2347.21 247.811 2345.81 247.811 Q2343.79 247.811 2342.46 246.733 Q2341.12 245.656 2340.63 244.157 Q2340.51 244.368 2340.35 244.649 Q2340.18 244.93 2339.69 245.562 Q2339.22 246.171 2338.68 246.64 Q2338.15 247.085 2337.3 247.436 Q2336.48 247.811 2335.59 247.811 Q2334.47 247.811 2333.46 247.483 Q2332.48 247.155 2331.78 246.405 Q2331.07 245.656 2331.07 244.625 Q2331.07 243.478 2331.85 242.681 Q2332.64 241.862 2333.72 241.862 Q2334.4 241.862 2334.94 242.26 Q2335.5 242.658 2335.5 243.525 Q2335.5 244.485 2334.84 245.211 Q2334.19 245.937 2333.25 246.124 Q2334.21 246.733 2335.64 246.733 Q2337.19 246.733 2338.4 245.375 Q2339.62 244.016 2340.21 241.744 Q2341.66 236.287 2342.22 233.851 Q2342.78 231.392 2342.78 230.338 Q2342.78 229.354 2342.53 228.675 Q2342.27 227.995 2341.82 227.691 Q2341.4 227.363 2341 227.246 Q2340.63 227.129 2340.21 227.129 Q2339.5 227.129 2338.71 227.41 Q2337.94 227.691 2337 228.347 Q2336.08 228.979 2335.22 230.291 Q2334.35 231.602 2333.77 233.406 Q2333.65 233.945 2333.13 233.945 Q2332.57 233.921 2332.57 233.453 Q2332.57 233.055 2332.88 232.235 Q2333.2 231.392 2333.86 230.338 Q2334.54 229.284 2335.41 228.347 Q2336.3 227.386 2337.58 226.731 Q2338.9 226.075 2340.3 226.075 Q2340.93 226.075 2341.54 226.215 Q2342.17 226.332 2342.92 226.684 Q2343.7 227.035 2344.38 227.808 Q2345.06 228.581 2345.48 229.705 Q2345.76 229.167 2346.13 228.651 Q2346.53 228.136 2347.14 227.504 Q2347.77 226.848 2348.64 226.473 Q2349.53 226.075 2350.51 226.075 Q2351.47 226.075 2352.41 226.332 Q2353.35 226.567 2354.14 227.34 Q2354.96 228.089 2354.96 229.237 Z" fill="#000000" fill-rule="evenodd" fill-opacity="1" /><path clip-path="url(#clip420)" d="M2361.31 235.28 Q2361.31 227.176 2364.33 220.641 Q2365.62 217.9 2367.42 215.605 Q2369.23 213.31 2370.42 212.302 Q2371.62 211.295 2371.94 211.295 Q2372.41 211.295 2372.44 211.764 Q2372.44 211.998 2371.8 212.583 Q2364.07 220.453 2364.1 235.28 Q2364.1 250.153 2371.62 257.719 Q2372.44 258.538 2372.44 258.796 Q2372.44 259.264 2371.94 259.264 Q2371.62 259.264 2370.47 258.304 Q2369.32 257.344 2367.54 255.142 Q2365.76 252.94 2364.47 250.247 Q2361.31 243.712 2361.31 235.28 Z" fill="#000000" fill-rule="evenodd" fill-opacity="1" /><path clip-path="url(#clip420)" d="M2390.82 227.129 Q2390.82 227.785 2390.51 227.949 Q2390.21 228.089 2389.36 228.089 L2384.87 228.089 L2381.31 242.236 Q2381.03 243.478 2381.03 244.532 Q2381.03 245.703 2381.38 246.218 Q2381.75 246.733 2382.52 246.733 Q2384.05 246.733 2385.69 245.351 Q2387.35 243.97 2388.76 240.597 Q2388.94 240.152 2389.04 240.058 Q2389.15 239.941 2389.46 239.941 Q2390.04 239.941 2390.04 240.409 Q2390.04 240.573 2389.72 241.323 Q2389.41 242.072 2388.73 243.173 Q2388.08 244.274 2387.21 245.305 Q2386.37 246.335 2385.08 247.085 Q2383.79 247.811 2382.41 247.811 Q2380.46 247.811 2379.22 246.569 Q2378 245.328 2378 243.384 Q2378 242.752 2378.5 240.737 Q2378.99 238.7 2381.66 228.089 L2377.42 228.089 Q2376.83 228.089 2376.6 228.066 Q2376.39 228.042 2376.22 227.925 Q2376.08 227.785 2376.08 227.504 Q2376.08 227.059 2376.27 226.871 Q2376.46 226.66 2376.69 226.637 Q2376.95 226.59 2377.54 226.59 L2382.03 226.59 L2383.91 218.978 Q2384.09 218.228 2384.56 217.807 Q2385.05 217.362 2385.34 217.315 Q2385.62 217.245 2385.83 217.245 Q2386.46 217.245 2386.83 217.596 Q2387.21 217.924 2387.21 218.533 Q2387.21 218.861 2385.24 226.59 L2389.46 226.59 Q2390 226.59 2390.21 226.614 Q2390.44 226.637 2390.63 226.754 Q2390.82 226.871 2390.82 227.129 Z" fill="#000000" fill-rule="evenodd" fill-opacity="1" /><path clip-path="url(#clip420)" d="M2438.21 234.601 Q2438.49 234.882 2438.49 235.28 Q2438.49 235.678 2438.21 235.959 Q2437.93 236.24 2437.53 236.24 L2407.5 236.24 Q2407.1 236.24 2406.82 235.959 Q2406.54 235.678 2406.54 235.28 Q2406.54 234.882 2406.82 234.601 Q2407.1 234.32 2407.5 234.32 L2437.53 234.32 Q2437.93 234.32 2438.21 234.601 Z" fill="#000000" fill-rule="evenodd" fill-opacity="1" /><path clip-path="url(#clip420)" d="M2480.04 227.738 Q2480.04 229.377 2477.68 229.377 L2469.62 229.377 L2466.41 245.797 Q2466.34 246.218 2466.25 246.452 Q2466.18 246.687 2465.97 247.085 Q2465.78 247.459 2465.38 247.647 Q2465.01 247.858 2464.44 247.858 Q2463.74 247.858 2463.39 247.436 Q2463.06 247.038 2463.06 246.546 Q2463.06 246.242 2463.53 244.789 L2468.24 229.377 L2464.26 229.377 Q2460.51 229.377 2458.17 233.078 Q2457.79 233.57 2457.58 233.617 Q2457.49 233.64 2457.39 233.64 Q2457.14 233.64 2456.97 233.523 Q2456.83 233.406 2456.83 233.289 L2456.81 233.172 Q2456.81 233.008 2457.18 232.352 Q2457.58 231.673 2458.28 230.666 Q2459.01 229.658 2459.74 228.862 Q2460.7 227.831 2461.77 227.293 Q2462.85 226.731 2463.39 226.66 Q2463.95 226.59 2464.68 226.59 L2478.12 226.59 Q2478.73 226.59 2479.06 226.637 Q2479.39 226.66 2479.71 226.941 Q2480.04 227.199 2480.04 227.738 Z" fill="#000000" fill-rule="evenodd" fill-opacity="1" /><path clip-path="url(#clip420)" d="M2484.46 258.796 Q2484.46 258.562 2485.07 257.976 Q2492.8 250.106 2492.8 235.28 Q2492.8 220.407 2485.37 212.888 Q2484.46 212.021 2484.46 211.764 Q2484.46 211.295 2484.93 211.295 Q2485.26 211.295 2486.4 212.256 Q2487.57 213.216 2489.33 215.418 Q2491.11 217.619 2492.42 220.313 Q2495.59 226.848 2495.59 235.28 Q2495.59 243.384 2492.56 249.919 Q2491.28 252.659 2489.47 254.955 Q2487.67 257.25 2486.47 258.257 Q2485.28 259.264 2484.93 259.264 Q2484.46 259.264 2484.46 258.796 Z" fill="#000000" fill-rule="evenodd" fill-opacity="1" /><polyline clip-path="url(#clip420)" style="stroke:#e26f46; stroke-linecap:round; stroke-linejoin:round; stroke-width:4; stroke-opacity:1; fill:none" points="
  2138.05,287.238 2303.5,287.238 
  "/>
<path clip-path="url(#clip420)" d="M2354.61 292.249 Q2354.61 292.437 2354.4 293.163 Q2354.19 293.889 2353.68 295.013 Q2353.18 296.137 2352.5 297.168 Q2351.82 298.175 2350.7 298.925 Q2349.6 299.651 2348.33 299.651 Q2346.65 299.651 2345.52 298.527 Q2344.4 297.402 2344.4 295.716 Q2344.4 295.482 2344.42 295.247 Q2344.45 295.013 2344.47 294.873 Q2344.49 294.709 2344.56 294.451 Q2344.66 294.17 2344.68 294.053 Q2344.73 293.936 2344.84 293.584 Q2344.99 293.21 2345.03 293.069 Q2348.01 285.48 2348.01 282.318 Q2348.01 278.969 2345.41 278.969 Q2343.09 278.969 2340.79 280.655 Q2339.74 281.498 2338.73 282.997 Q2337.72 284.497 2337.54 285.059 Q2337.33 286.277 2337.02 287.214 Q2336.88 287.869 2336.2 290.422 L2335.15 294.756 L2334.23 298.386 Q2334.05 298.901 2333.53 299.276 Q2333.02 299.651 2332.45 299.651 Q2331.99 299.651 2331.52 299.323 Q2331.07 299.018 2331.07 298.292 Q2331.07 297.918 2331.26 297.238 L2338.22 269.6 L2338.36 268.663 Q2338.36 268.382 2338.24 268.241 Q2338.15 268.077 2337.58 267.96 Q2337.05 267.843 2335.97 267.843 Q2335.52 267.843 2335.31 267.82 Q2335.12 267.796 2334.96 267.679 Q2334.8 267.539 2334.8 267.258 Q2334.8 266.859 2334.96 266.649 Q2335.15 266.414 2335.29 266.368 Q2335.43 266.321 2335.71 266.297 Q2336.11 266.274 2337.44 266.157 Q2338.78 266.016 2339.93 265.923 Q2341.07 265.829 2341.57 265.829 Q2341.85 265.829 2341.99 265.969 Q2342.15 266.086 2342.17 266.227 L2342.2 266.344 L2338.45 281.592 Q2341.43 277.915 2345.55 277.915 Q2348.22 277.915 2349.65 279.297 Q2351.08 280.655 2351.08 283.044 Q2351.08 285.785 2348.15 293.584 Q2347.28 295.763 2347.28 297.004 Q2347.28 297.824 2347.54 298.199 Q2347.82 298.573 2348.43 298.573 Q2349.37 298.573 2350.19 298.035 Q2351.03 297.473 2351.61 296.559 Q2352.2 295.622 2352.6 294.685 Q2353.02 293.725 2353.32 292.648 Q2353.51 292.062 2353.6 291.921 Q2353.72 291.781 2354.05 291.781 Q2354.61 291.781 2354.61 292.249 Z" fill="#000000" fill-rule="evenodd" fill-opacity="1" /><path clip-path="url(#clip420)" d="M2360.54 287.12 Q2360.54 279.016 2363.56 272.481 Q2364.85 269.74 2366.65 267.445 Q2368.45 265.15 2369.65 264.142 Q2370.84 263.135 2371.17 263.135 Q2371.64 263.135 2371.66 263.604 Q2371.66 263.838 2371.03 264.423 Q2363.3 272.293 2363.32 287.12 Q2363.32 301.993 2370.84 309.559 Q2371.66 310.378 2371.66 310.636 Q2371.66 311.104 2371.17 311.104 Q2370.84 311.104 2369.69 310.144 Q2368.55 309.184 2366.77 306.982 Q2364.99 304.78 2363.7 302.087 Q2360.54 295.552 2360.54 287.12 Z" fill="#000000" fill-rule="evenodd" fill-opacity="1" /><path clip-path="url(#clip420)" d="M2398.54 279.578 Q2398.54 281.217 2396.18 281.217 L2388.12 281.217 L2384.91 297.637 Q2384.84 298.058 2384.75 298.292 Q2384.68 298.527 2384.47 298.925 Q2384.28 299.299 2383.88 299.487 Q2383.51 299.698 2382.94 299.698 Q2382.24 299.698 2381.89 299.276 Q2381.56 298.878 2381.56 298.386 Q2381.56 298.082 2382.03 296.629 L2386.74 281.217 L2382.76 281.217 Q2379.01 281.217 2376.67 284.918 Q2376.29 285.41 2376.08 285.457 Q2375.99 285.48 2375.89 285.48 Q2375.64 285.48 2375.47 285.363 Q2375.33 285.246 2375.33 285.129 L2375.31 285.012 Q2375.31 284.848 2375.68 284.192 Q2376.08 283.513 2376.78 282.506 Q2377.51 281.498 2378.24 280.702 Q2379.2 279.671 2380.27 279.133 Q2381.35 278.571 2381.89 278.5 Q2382.45 278.43 2383.18 278.43 L2396.62 278.43 Q2397.23 278.43 2397.56 278.477 Q2397.89 278.5 2398.22 278.781 Q2398.54 279.039 2398.54 279.578 Z" fill="#000000" fill-rule="evenodd" fill-opacity="1" /><path clip-path="url(#clip420)" d="M2402.96 310.636 Q2402.96 310.402 2403.57 309.816 Q2411.3 301.946 2411.3 287.12 Q2411.3 272.247 2403.87 264.728 Q2402.96 263.861 2402.96 263.604 Q2402.96 263.135 2403.43 263.135 Q2403.76 263.135 2404.91 264.096 Q2406.08 265.056 2407.83 267.258 Q2409.61 269.459 2410.93 272.153 Q2414.09 278.688 2414.09 287.12 Q2414.09 295.224 2411.07 301.759 Q2409.78 304.499 2407.97 306.795 Q2406.17 309.09 2404.98 310.097 Q2403.78 311.104 2403.43 311.104 Q2402.96 311.104 2402.96 310.636 Z" fill="#000000" fill-rule="evenodd" fill-opacity="1" /></svg>
