<?xml version="1.0" encoding="utf-8"?>
<svg xmlns="http://www.w3.org/2000/svg" xmlns:xlink="http://www.w3.org/1999/xlink" width="672" height="480" viewBox="0 0 2688 1920">
<defs>
  <clipPath id="clip030">
    <rect x="0" y="0" width="2688" height="1920"/>
  </clipPath>
</defs>
<path clip-path="url(#clip030)" d="
M0 1920 L2688 1920 L2688 0 L0 0  Z
  " fill="#ffffff" fill-rule="evenodd" fill-opacity="1"/>
<defs>
  <clipPath id="clip031">
    <rect x="537" y="0" width="1883" height="1883"/>
  </clipPath>
</defs>
<defs>
  <clipPath id="clip032">
    <rect x="189" y="127" width="2453" height="1674"/>
  </clipPath>
</defs>
<path clip-path="url(#clip030)" d="
M189.154 1800.78 L2640.76 1800.78 L2640.76 127.792 L189.154 127.792  Z
  " fill="#ffffff" fill-rule="evenodd" fill-opacity="1"/>
<polyline clip-path="url(#clip032)" style="stroke:#000000; stroke-linecap:round; stroke-linejoin:round; stroke-width:2; stroke-opacity:0.1; fill:none" points="
  258.539,1800.78 258.539,127.792 
  "/>
<polyline clip-path="url(#clip032)" style="stroke:#000000; stroke-linecap:round; stroke-linejoin:round; stroke-width:2; stroke-opacity:0.1; fill:none" points="
  721.105,1800.78 721.105,127.792 
  "/>
<polyline clip-path="url(#clip032)" style="stroke:#000000; stroke-linecap:round; stroke-linejoin:round; stroke-width:2; stroke-opacity:0.1; fill:none" points="
  1183.67,1800.78 1183.67,127.792 
  "/>
<polyline clip-path="url(#clip032)" style="stroke:#000000; stroke-linecap:round; stroke-linejoin:round; stroke-width:2; stroke-opacity:0.1; fill:none" points="
  1646.24,1800.78 1646.24,127.792 
  "/>
<polyline clip-path="url(#clip032)" style="stroke:#000000; stroke-linecap:round; stroke-linejoin:round; stroke-width:2; stroke-opacity:0.1; fill:none" points="
  2108.8,1800.78 2108.8,127.792 
  "/>
<polyline clip-path="url(#clip032)" style="stroke:#000000; stroke-linecap:round; stroke-linejoin:round; stroke-width:2; stroke-opacity:0.1; fill:none" points="
  2571.37,1800.78 2571.37,127.792 
  "/>
<polyline clip-path="url(#clip030)" style="stroke:#000000; stroke-linecap:round; stroke-linejoin:round; stroke-width:4; stroke-opacity:1; fill:none" points="
  189.154,1800.78 2640.76,1800.78 
  "/>
<polyline clip-path="url(#clip030)" style="stroke:#000000; stroke-linecap:round; stroke-linejoin:round; stroke-width:4; stroke-opacity:1; fill:none" points="
  258.539,1800.78 258.539,1781.88 
  "/>
<polyline clip-path="url(#clip030)" style="stroke:#000000; stroke-linecap:round; stroke-linejoin:round; stroke-width:4; stroke-opacity:1; fill:none" points="
  721.105,1800.78 721.105,1781.88 
  "/>
<polyline clip-path="url(#clip030)" style="stroke:#000000; stroke-linecap:round; stroke-linejoin:round; stroke-width:4; stroke-opacity:1; fill:none" points="
  1183.67,1800.78 1183.67,1781.88 
  "/>
<polyline clip-path="url(#clip030)" style="stroke:#000000; stroke-linecap:round; stroke-linejoin:round; stroke-width:4; stroke-opacity:1; fill:none" points="
  1646.24,1800.78 1646.24,1781.88 
  "/>
<polyline clip-path="url(#clip030)" style="stroke:#000000; stroke-linecap:round; stroke-linejoin:round; stroke-width:4; stroke-opacity:1; fill:none" points="
  2108.8,1800.78 2108.8,1781.88 
  "/>
<polyline clip-path="url(#clip030)" style="stroke:#000000; stroke-linecap:round; stroke-linejoin:round; stroke-width:4; stroke-opacity:1; fill:none" points="
  2571.37,1800.78 2571.37,1781.88 
  "/>
<path clip-path="url(#clip030)" d="M228.007 1848.65 L257.682 1848.65 L257.682 1852.59 L228.007 1852.59 L228.007 1848.65 Z" fill="#000000" fill-rule="evenodd" fill-opacity="1" /><path clip-path="url(#clip030)" d="M281.942 1846.85 Q285.298 1847.57 287.173 1849.84 Q289.071 1852.1 289.071 1855.44 Q289.071 1860.55 285.553 1863.35 Q282.034 1866.15 275.553 1866.15 Q273.377 1866.15 271.062 1865.71 Q268.77 1865.3 266.317 1864.44 L266.317 1859.93 Q268.261 1861.06 270.576 1861.64 Q272.891 1862.22 275.414 1862.22 Q279.812 1862.22 282.104 1860.48 Q284.418 1858.75 284.418 1855.44 Q284.418 1852.38 282.266 1850.67 Q280.136 1848.93 276.317 1848.93 L272.289 1848.93 L272.289 1845.09 L276.502 1845.09 Q279.951 1845.09 281.78 1843.72 Q283.608 1842.34 283.608 1839.74 Q283.608 1837.08 281.71 1835.67 Q279.835 1834.23 276.317 1834.23 Q274.395 1834.23 272.196 1834.65 Q269.997 1835.07 267.358 1835.95 L267.358 1831.78 Q270.02 1831.04 272.335 1830.67 Q274.673 1830.3 276.733 1830.3 Q282.057 1830.3 285.159 1832.73 Q288.261 1835.14 288.261 1839.26 Q288.261 1842.13 286.618 1844.12 Q284.974 1846.09 281.942 1846.85 Z" fill="#000000" fill-rule="evenodd" fill-opacity="1" /><path clip-path="url(#clip030)" d="M691.048 1848.65 L720.723 1848.65 L720.723 1852.59 L691.048 1852.59 L691.048 1848.65 Z" fill="#000000" fill-rule="evenodd" fill-opacity="1" /><path clip-path="url(#clip030)" d="M734.844 1861.55 L751.163 1861.55 L751.163 1865.48 L729.219 1865.48 L729.219 1861.55 Q731.881 1858.79 736.464 1854.16 Q741.071 1849.51 742.251 1848.17 Q744.496 1845.65 745.376 1843.91 Q746.279 1842.15 746.279 1840.46 Q746.279 1837.71 744.334 1835.97 Q742.413 1834.23 739.311 1834.23 Q737.112 1834.23 734.659 1835 Q732.228 1835.76 729.45 1837.31 L729.45 1832.59 Q732.274 1831.46 734.728 1830.88 Q737.182 1830.3 739.219 1830.3 Q744.589 1830.3 747.783 1832.98 Q750.978 1835.67 750.978 1840.16 Q750.978 1842.29 750.168 1844.21 Q749.381 1846.11 747.274 1848.7 Q746.695 1849.37 743.594 1852.59 Q740.492 1855.78 734.844 1861.55 Z" fill="#000000" fill-rule="evenodd" fill-opacity="1" /><path clip-path="url(#clip030)" d="M1153.43 1848.65 L1183.1 1848.65 L1183.1 1852.59 L1153.43 1852.59 L1153.43 1848.65 Z" fill="#000000" fill-rule="evenodd" fill-opacity="1" /><path clip-path="url(#clip030)" d="M1194.01 1861.55 L1201.65 1861.55 L1201.65 1835.18 L1193.34 1836.85 L1193.34 1832.59 L1201.6 1830.92 L1206.28 1830.92 L1206.28 1861.55 L1213.91 1861.55 L1213.91 1865.48 L1194.01 1865.48 L1194.01 1861.55 Z" fill="#000000" fill-rule="evenodd" fill-opacity="1" /><path clip-path="url(#clip030)" d="M1646.24 1834 Q1642.63 1834 1640.8 1837.57 Q1638.99 1841.11 1638.99 1848.24 Q1638.99 1855.34 1640.8 1858.91 Q1642.63 1862.45 1646.24 1862.45 Q1649.87 1862.45 1651.68 1858.91 Q1653.51 1855.34 1653.51 1848.24 Q1653.51 1841.11 1651.68 1837.57 Q1649.87 1834 1646.24 1834 M1646.24 1830.3 Q1652.05 1830.3 1655.1 1834.9 Q1658.18 1839.49 1658.18 1848.24 Q1658.18 1856.96 1655.1 1861.57 Q1652.05 1866.15 1646.24 1866.15 Q1640.43 1866.15 1637.35 1861.57 Q1634.29 1856.96 1634.29 1848.24 Q1634.29 1839.49 1637.35 1834.9 Q1640.43 1830.3 1646.24 1830.3 Z" fill="#000000" fill-rule="evenodd" fill-opacity="1" /><path clip-path="url(#clip030)" d="M2099.19 1861.55 L2106.83 1861.55 L2106.83 1835.18 L2098.52 1836.85 L2098.52 1832.59 L2106.78 1830.92 L2111.45 1830.92 L2111.45 1861.55 L2119.09 1861.55 L2119.09 1865.48 L2099.19 1865.48 L2099.19 1861.55 Z" fill="#000000" fill-rule="evenodd" fill-opacity="1" /><path clip-path="url(#clip030)" d="M2566.02 1861.55 L2582.34 1861.55 L2582.34 1865.48 L2560.4 1865.48 L2560.4 1861.55 Q2563.06 1858.79 2567.64 1854.16 Q2572.25 1849.51 2573.43 1848.17 Q2575.68 1845.65 2576.56 1843.91 Q2577.46 1842.15 2577.46 1840.46 Q2577.46 1837.71 2575.51 1835.97 Q2573.59 1834.23 2570.49 1834.23 Q2568.29 1834.23 2565.84 1835 Q2563.41 1835.76 2560.63 1837.31 L2560.63 1832.59 Q2563.45 1831.46 2565.91 1830.88 Q2568.36 1830.3 2570.4 1830.3 Q2575.77 1830.3 2578.96 1832.98 Q2582.16 1835.67 2582.16 1840.16 Q2582.16 1842.29 2581.35 1844.21 Q2580.56 1846.11 2578.45 1848.7 Q2577.88 1849.37 2574.77 1852.59 Q2571.67 1855.78 2566.02 1861.55 Z" fill="#000000" fill-rule="evenodd" fill-opacity="1" /><polyline clip-path="url(#clip032)" style="stroke:#000000; stroke-linecap:round; stroke-linejoin:round; stroke-width:2; stroke-opacity:0.1; fill:none" points="
  189.154,1753.43 2640.76,1753.43 
  "/>
<polyline clip-path="url(#clip032)" style="stroke:#000000; stroke-linecap:round; stroke-linejoin:round; stroke-width:2; stroke-opacity:0.1; fill:none" points="
  189.154,1358.86 2640.76,1358.86 
  "/>
<polyline clip-path="url(#clip032)" style="stroke:#000000; stroke-linecap:round; stroke-linejoin:round; stroke-width:2; stroke-opacity:0.1; fill:none" points="
  189.154,964.286 2640.76,964.286 
  "/>
<polyline clip-path="url(#clip032)" style="stroke:#000000; stroke-linecap:round; stroke-linejoin:round; stroke-width:2; stroke-opacity:0.1; fill:none" points="
  189.154,569.713 2640.76,569.713 
  "/>
<polyline clip-path="url(#clip032)" style="stroke:#000000; stroke-linecap:round; stroke-linejoin:round; stroke-width:2; stroke-opacity:0.1; fill:none" points="
  189.154,175.141 2640.76,175.141 
  "/>
<polyline clip-path="url(#clip030)" style="stroke:#000000; stroke-linecap:round; stroke-linejoin:round; stroke-width:4; stroke-opacity:1; fill:none" points="
  189.154,1800.78 189.154,127.792 
  "/>
<polyline clip-path="url(#clip030)" style="stroke:#000000; stroke-linecap:round; stroke-linejoin:round; stroke-width:4; stroke-opacity:1; fill:none" points="
  189.154,1753.43 208.052,1753.43 
  "/>
<polyline clip-path="url(#clip030)" style="stroke:#000000; stroke-linecap:round; stroke-linejoin:round; stroke-width:4; stroke-opacity:1; fill:none" points="
  189.154,1358.86 208.052,1358.86 
  "/>
<polyline clip-path="url(#clip030)" style="stroke:#000000; stroke-linecap:round; stroke-linejoin:round; stroke-width:4; stroke-opacity:1; fill:none" points="
  189.154,964.286 208.052,964.286 
  "/>
<polyline clip-path="url(#clip030)" style="stroke:#000000; stroke-linecap:round; stroke-linejoin:round; stroke-width:4; stroke-opacity:1; fill:none" points="
  189.154,569.713 208.052,569.713 
  "/>
<polyline clip-path="url(#clip030)" style="stroke:#000000; stroke-linecap:round; stroke-linejoin:round; stroke-width:4; stroke-opacity:1; fill:none" points="
  189.154,175.141 208.052,175.141 
  "/>
<path clip-path="url(#clip030)" d="M61.4965 1739.23 Q57.8854 1739.23 56.0567 1742.79 Q54.2512 1746.34 54.2512 1753.47 Q54.2512 1760.57 56.0567 1764.14 Q57.8854 1767.68 61.4965 1767.68 Q65.1307 1767.68 66.9363 1764.14 Q68.765 1760.57 68.765 1753.47 Q68.765 1746.34 66.9363 1742.79 Q65.1307 1739.23 61.4965 1739.23 M61.4965 1735.53 Q67.3067 1735.53 70.3622 1740.13 Q73.4409 1744.72 73.4409 1753.47 Q73.4409 1762.19 70.3622 1766.8 Q67.3067 1771.38 61.4965 1771.38 Q55.6864 1771.38 52.6077 1766.8 Q49.5521 1762.19 49.5521 1753.47 Q49.5521 1744.72 52.6077 1740.13 Q55.6864 1735.53 61.4965 1735.53 Z" fill="#000000" fill-rule="evenodd" fill-opacity="1" /><path clip-path="url(#clip030)" d="M81.6584 1764.83 L86.5427 1764.83 L86.5427 1770.71 L81.6584 1770.71 L81.6584 1764.83 Z" fill="#000000" fill-rule="evenodd" fill-opacity="1" /><path clip-path="url(#clip030)" d="M106.728 1739.23 Q103.117 1739.23 101.288 1742.79 Q99.4824 1746.34 99.4824 1753.47 Q99.4824 1760.57 101.288 1764.14 Q103.117 1767.68 106.728 1767.68 Q110.362 1767.68 112.168 1764.14 Q113.996 1760.57 113.996 1753.47 Q113.996 1746.34 112.168 1742.79 Q110.362 1739.23 106.728 1739.23 M106.728 1735.53 Q112.538 1735.53 115.593 1740.13 Q118.672 1744.72 118.672 1753.47 Q118.672 1762.19 115.593 1766.8 Q112.538 1771.38 106.728 1771.38 Q100.918 1771.38 97.8389 1766.8 Q94.7834 1762.19 94.7834 1753.47 Q94.7834 1744.72 97.8389 1740.13 Q100.918 1735.53 106.728 1735.53 Z" fill="#000000" fill-rule="evenodd" fill-opacity="1" /><path clip-path="url(#clip030)" d="M136.89 1739.23 Q133.279 1739.23 131.45 1742.79 Q129.644 1746.34 129.644 1753.47 Q129.644 1760.57 131.45 1764.14 Q133.279 1767.68 136.89 1767.68 Q140.524 1767.68 142.329 1764.14 Q144.158 1760.57 144.158 1753.47 Q144.158 1746.34 142.329 1742.79 Q140.524 1739.23 136.89 1739.23 M136.89 1735.53 Q142.7 1735.53 145.755 1740.13 Q148.834 1744.72 148.834 1753.47 Q148.834 1762.19 145.755 1766.8 Q142.7 1771.38 136.89 1771.38 Q131.079 1771.38 128.001 1766.8 Q124.945 1762.19 124.945 1753.47 Q124.945 1744.72 128.001 1740.13 Q131.079 1735.53 136.89 1735.53 Z" fill="#000000" fill-rule="evenodd" fill-opacity="1" /><path clip-path="url(#clip030)" d="M62.4919 1344.66 Q58.8808 1344.66 57.0521 1348.22 Q55.2465 1351.76 55.2465 1358.89 Q55.2465 1366 57.0521 1369.56 Q58.8808 1373.11 62.4919 1373.11 Q66.1261 1373.11 67.9317 1369.56 Q69.7604 1366 69.7604 1358.89 Q69.7604 1351.76 67.9317 1348.22 Q66.1261 1344.66 62.4919 1344.66 M62.4919 1340.95 Q68.302 1340.95 71.3576 1345.56 Q74.4363 1350.14 74.4363 1358.89 Q74.4363 1367.62 71.3576 1372.23 Q68.302 1376.81 62.4919 1376.81 Q56.6817 1376.81 53.603 1372.23 Q50.5475 1367.62 50.5475 1358.89 Q50.5475 1350.14 53.603 1345.56 Q56.6817 1340.95 62.4919 1340.95 Z" fill="#000000" fill-rule="evenodd" fill-opacity="1" /><path clip-path="url(#clip030)" d="M82.6538 1370.26 L87.538 1370.26 L87.538 1376.14 L82.6538 1376.14 L82.6538 1370.26 Z" fill="#000000" fill-rule="evenodd" fill-opacity="1" /><path clip-path="url(#clip030)" d="M101.751 1372.2 L118.07 1372.2 L118.07 1376.14 L96.126 1376.14 L96.126 1372.2 Q98.788 1369.45 103.371 1364.82 Q107.978 1360.17 109.158 1358.82 Q111.404 1356.3 112.283 1354.56 Q113.186 1352.8 113.186 1351.12 Q113.186 1348.36 111.242 1346.62 Q109.32 1344.89 106.218 1344.89 Q104.019 1344.89 101.566 1345.65 Q99.1352 1346.42 96.3574 1347.97 L96.3574 1343.24 Q99.1815 1342.11 101.635 1341.53 Q104.089 1340.95 106.126 1340.95 Q111.496 1340.95 114.691 1343.64 Q117.885 1346.32 117.885 1350.81 Q117.885 1352.94 117.075 1354.87 Q116.288 1356.76 114.181 1359.36 Q113.603 1360.03 110.501 1363.24 Q107.399 1366.44 101.751 1372.2 Z" fill="#000000" fill-rule="evenodd" fill-opacity="1" /><path clip-path="url(#clip030)" d="M127.931 1341.58 L146.288 1341.58 L146.288 1345.51 L132.214 1345.51 L132.214 1353.99 Q133.232 1353.64 134.251 1353.48 Q135.269 1353.29 136.288 1353.29 Q142.075 1353.29 145.454 1356.46 Q148.834 1359.63 148.834 1365.05 Q148.834 1370.63 145.362 1373.73 Q141.89 1376.81 135.57 1376.81 Q133.394 1376.81 131.126 1376.44 Q128.88 1376.07 126.473 1375.33 L126.473 1370.63 Q128.556 1371.76 130.779 1372.32 Q133.001 1372.87 135.478 1372.87 Q139.482 1372.87 141.82 1370.77 Q144.158 1368.66 144.158 1365.05 Q144.158 1361.44 141.82 1359.33 Q139.482 1357.23 135.478 1357.23 Q133.603 1357.23 131.728 1357.64 Q129.876 1358.06 127.931 1358.94 L127.931 1341.58 Z" fill="#000000" fill-rule="evenodd" fill-opacity="1" /><path clip-path="url(#clip030)" d="M61.4965 950.084 Q57.8854 950.084 56.0567 953.649 Q54.2512 957.191 54.2512 964.32 Q54.2512 971.427 56.0567 974.992 Q57.8854 978.533 61.4965 978.533 Q65.1307 978.533 66.9363 974.992 Q68.765 971.427 68.765 964.32 Q68.765 957.191 66.9363 953.649 Q65.1307 950.084 61.4965 950.084 M61.4965 946.381 Q67.3067 946.381 70.3622 950.987 Q73.4409 955.57 73.4409 964.32 Q73.4409 973.047 70.3622 977.654 Q67.3067 982.237 61.4965 982.237 Q55.6864 982.237 52.6077 977.654 Q49.5521 973.047 49.5521 964.32 Q49.5521 955.57 52.6077 950.987 Q55.6864 946.381 61.4965 946.381 Z" fill="#000000" fill-rule="evenodd" fill-opacity="1" /><path clip-path="url(#clip030)" d="M81.6584 975.686 L86.5427 975.686 L86.5427 981.566 L81.6584 981.566 L81.6584 975.686 Z" fill="#000000" fill-rule="evenodd" fill-opacity="1" /><path clip-path="url(#clip030)" d="M96.7741 947.006 L115.13 947.006 L115.13 950.941 L101.056 950.941 L101.056 959.413 Q102.075 959.066 103.094 958.904 Q104.112 958.719 105.131 958.719 Q110.918 958.719 114.297 961.89 Q117.677 965.061 117.677 970.478 Q117.677 976.056 114.205 979.158 Q110.732 982.237 104.413 982.237 Q102.237 982.237 99.9685 981.867 Q97.7232 981.496 95.3158 980.756 L95.3158 976.056 Q97.3991 977.191 99.6213 977.746 Q101.844 978.302 104.32 978.302 Q108.325 978.302 110.663 976.195 Q113.001 974.089 113.001 970.478 Q113.001 966.867 110.663 964.76 Q108.325 962.654 104.32 962.654 Q102.445 962.654 100.57 963.07 Q98.7185 963.487 96.7741 964.367 L96.7741 947.006 Z" fill="#000000" fill-rule="evenodd" fill-opacity="1" /><path clip-path="url(#clip030)" d="M136.89 950.084 Q133.279 950.084 131.45 953.649 Q129.644 957.191 129.644 964.32 Q129.644 971.427 131.45 974.992 Q133.279 978.533 136.89 978.533 Q140.524 978.533 142.329 974.992 Q144.158 971.427 144.158 964.32 Q144.158 957.191 142.329 953.649 Q140.524 950.084 136.89 950.084 M136.89 946.381 Q142.7 946.381 145.755 950.987 Q148.834 955.57 148.834 964.32 Q148.834 973.047 145.755 977.654 Q142.7 982.237 136.89 982.237 Q131.079 982.237 128.001 977.654 Q124.945 973.047 124.945 964.32 Q124.945 955.57 128.001 950.987 Q131.079 946.381 136.89 946.381 Z" fill="#000000" fill-rule="evenodd" fill-opacity="1" /><path clip-path="url(#clip030)" d="M62.4919 555.512 Q58.8808 555.512 57.0521 559.077 Q55.2465 562.618 55.2465 569.748 Q55.2465 576.854 57.0521 580.419 Q58.8808 583.961 62.4919 583.961 Q66.1261 583.961 67.9317 580.419 Q69.7604 576.854 69.7604 569.748 Q69.7604 562.618 67.9317 559.077 Q66.1261 555.512 62.4919 555.512 M62.4919 551.808 Q68.302 551.808 71.3576 556.415 Q74.4363 560.998 74.4363 569.748 Q74.4363 578.475 71.3576 583.081 Q68.302 587.665 62.4919 587.665 Q56.6817 587.665 53.603 583.081 Q50.5475 578.475 50.5475 569.748 Q50.5475 560.998 53.603 556.415 Q56.6817 551.808 62.4919 551.808 Z" fill="#000000" fill-rule="evenodd" fill-opacity="1" /><path clip-path="url(#clip030)" d="M82.6538 581.114 L87.538 581.114 L87.538 586.993 L82.6538 586.993 L82.6538 581.114 Z" fill="#000000" fill-rule="evenodd" fill-opacity="1" /><path clip-path="url(#clip030)" d="M96.5426 552.433 L118.765 552.433 L118.765 554.424 L106.218 586.993 L101.334 586.993 L113.14 556.368 L96.5426 556.368 L96.5426 552.433 Z" fill="#000000" fill-rule="evenodd" fill-opacity="1" /><path clip-path="url(#clip030)" d="M127.931 552.433 L146.288 552.433 L146.288 556.368 L132.214 556.368 L132.214 564.841 Q133.232 564.493 134.251 564.331 Q135.269 564.146 136.288 564.146 Q142.075 564.146 145.454 567.317 Q148.834 570.489 148.834 575.905 Q148.834 581.484 145.362 584.586 Q141.89 587.665 135.57 587.665 Q133.394 587.665 131.126 587.294 Q128.88 586.924 126.473 586.183 L126.473 581.484 Q128.556 582.618 130.779 583.174 Q133.001 583.729 135.478 583.729 Q139.482 583.729 141.82 581.623 Q144.158 579.516 144.158 575.905 Q144.158 572.294 141.82 570.188 Q139.482 568.081 135.478 568.081 Q133.603 568.081 131.728 568.498 Q129.876 568.915 127.931 569.794 L127.931 552.433 Z" fill="#000000" fill-rule="evenodd" fill-opacity="1" /><path clip-path="url(#clip030)" d="M52.3067 188.486 L59.9456 188.486 L59.9456 162.12 L51.6354 163.787 L51.6354 159.527 L59.8993 157.861 L64.5752 157.861 L64.5752 188.486 L72.214 188.486 L72.214 192.421 L52.3067 192.421 L52.3067 188.486 Z" fill="#000000" fill-rule="evenodd" fill-opacity="1" /><path clip-path="url(#clip030)" d="M81.6584 186.541 L86.5427 186.541 L86.5427 192.421 L81.6584 192.421 L81.6584 186.541 Z" fill="#000000" fill-rule="evenodd" fill-opacity="1" /><path clip-path="url(#clip030)" d="M106.728 160.94 Q103.117 160.94 101.288 164.504 Q99.4824 168.046 99.4824 175.176 Q99.4824 182.282 101.288 185.847 Q103.117 189.388 106.728 189.388 Q110.362 189.388 112.168 185.847 Q113.996 182.282 113.996 175.176 Q113.996 168.046 112.168 164.504 Q110.362 160.94 106.728 160.94 M106.728 157.236 Q112.538 157.236 115.593 161.842 Q118.672 166.426 118.672 175.176 Q118.672 183.902 115.593 188.509 Q112.538 193.092 106.728 193.092 Q100.918 193.092 97.8389 188.509 Q94.7834 183.902 94.7834 175.176 Q94.7834 166.426 97.8389 161.842 Q100.918 157.236 106.728 157.236 Z" fill="#000000" fill-rule="evenodd" fill-opacity="1" /><path clip-path="url(#clip030)" d="M136.89 160.94 Q133.279 160.94 131.45 164.504 Q129.644 168.046 129.644 175.176 Q129.644 182.282 131.45 185.847 Q133.279 189.388 136.89 189.388 Q140.524 189.388 142.329 185.847 Q144.158 182.282 144.158 175.176 Q144.158 168.046 142.329 164.504 Q140.524 160.94 136.89 160.94 M136.89 157.236 Q142.7 157.236 145.755 161.842 Q148.834 166.426 148.834 175.176 Q148.834 183.902 145.755 188.509 Q142.7 193.092 136.89 193.092 Q131.079 193.092 128.001 188.509 Q124.945 183.902 124.945 175.176 Q124.945 166.426 128.001 161.842 Q131.079 157.236 136.89 157.236 Z" fill="#000000" fill-rule="evenodd" fill-opacity="1" /><path clip-path="url(#clip030)" d="M1306.44 43.6515 Q1306.44 45.9469 1305.01 47.2586 Q1303.58 48.5292 1301.94 48.5292 Q1300.38 48.5292 1299.56 47.6275 Q1298.74 46.7257 1298.74 45.578 Q1298.74 44.0204 1299.89 42.6678 Q1301.03 41.3151 1302.76 41.0282 Q1301.08 39.9625 1298.57 39.9625 Q1296.94 39.9625 1295.5 40.8232 Q1294.11 41.684 1293.25 42.7907 Q1292.43 43.8974 1291.69 45.496 Q1290.99 47.0536 1290.7 47.9964 Q1290.46 48.8981 1290.25 49.8819 L1287.38 61.3589 Q1285.99 66.8104 1285.99 68.7369 Q1285.99 71.1143 1287.14 72.7129 Q1288.29 74.2705 1290.58 74.2705 Q1291.48 74.2705 1292.51 74.0246 Q1293.53 73.7376 1294.84 72.9998 Q1296.2 72.221 1297.39 71.0733 Q1298.62 69.8846 1299.8 67.8762 Q1300.99 65.8677 1301.77 63.2854 Q1302.02 62.3836 1302.84 62.3836 Q1303.86 62.3836 1303.86 63.2034 Q1303.86 63.9002 1303.29 65.3758 Q1302.76 66.8104 1301.57 68.696 Q1300.42 70.5405 1298.9 72.221 Q1297.39 73.8606 1295.13 75.0083 Q1292.88 76.156 1290.42 76.156 Q1286.89 76.156 1284.56 74.2705 Q1282.22 72.385 1281.36 69.7617 Q1281.15 70.1306 1280.87 70.6225 Q1280.58 71.1143 1279.72 72.221 Q1278.9 73.2868 1277.96 74.1065 Q1277.01 74.8853 1275.54 75.5002 Q1274.1 76.156 1272.55 76.156 Q1270.58 76.156 1268.82 75.5822 Q1267.09 75.0083 1265.87 73.6966 Q1264.64 72.385 1264.64 70.5815 Q1264.64 68.573 1265.99 67.1794 Q1267.38 65.7447 1269.27 65.7447 Q1270.46 65.7447 1271.4 66.4415 Q1272.38 67.1384 1272.38 68.655 Q1272.38 70.3355 1271.23 71.6062 Q1270.09 72.8769 1268.45 73.2048 Q1270.13 74.2705 1272.63 74.2705 Q1275.33 74.2705 1277.47 71.8931 Q1279.6 69.5157 1280.62 65.5398 Q1283.16 55.9893 1284.15 51.7264 Q1285.13 47.4225 1285.13 45.578 Q1285.13 43.8565 1284.68 42.6678 Q1284.23 41.4791 1283.45 40.9462 Q1282.71 40.3724 1282.02 40.1674 Q1281.36 39.9625 1280.62 39.9625 Q1279.39 39.9625 1278 40.4543 Q1276.65 40.9462 1275.01 42.0939 Q1273.41 43.2006 1271.89 45.496 Q1270.37 47.7914 1269.35 50.9476 Q1269.14 51.8904 1268.24 51.8904 Q1267.26 51.8494 1267.26 51.0296 Q1267.26 50.3328 1267.79 48.8981 Q1268.37 47.4225 1269.51 45.578 Q1270.7 43.7335 1272.22 42.0939 Q1273.78 40.4134 1276.03 39.2657 Q1278.33 38.118 1280.79 38.118 Q1281.89 38.118 1282.96 38.3639 Q1284.06 38.5688 1285.38 39.1837 Q1286.73 39.7985 1287.92 41.1512 Q1289.11 42.5038 1289.84 44.4713 Q1290.34 43.5285 1290.99 42.6268 Q1291.69 41.725 1292.75 40.6183 Q1293.86 39.4706 1295.38 38.8148 Q1296.94 38.118 1298.66 38.118 Q1300.34 38.118 1301.98 38.5688 Q1303.62 38.9787 1305.01 40.3314 Q1306.44 41.643 1306.44 43.6515 Z" fill="#000000" fill-rule="evenodd" fill-opacity="1" /><path clip-path="url(#clip030)" d="M1317.55 54.2267 Q1317.55 40.0444 1322.84 28.6084 Q1325.09 23.8127 1328.25 19.7957 Q1331.4 15.7788 1333.5 14.0163 Q1335.59 12.2537 1336.16 12.2537 Q1336.98 12.2537 1337.02 13.0735 Q1337.02 13.4834 1335.91 14.5081 Q1322.39 28.2805 1322.43 54.2267 Q1322.43 80.2549 1335.59 93.4945 Q1337.02 94.9291 1337.02 95.38 Q1337.02 96.1998 1336.16 96.1998 Q1335.59 96.1998 1333.58 94.5192 Q1331.57 92.8386 1328.45 88.9856 Q1325.34 85.1327 1323.08 80.4189 Q1317.55 68.9829 1317.55 54.2267 Z" fill="#000000" fill-rule="evenodd" fill-opacity="1" /><path clip-path="url(#clip030)" d="M1369.18 39.9625 Q1369.18 41.1102 1368.65 41.3971 Q1368.12 41.643 1366.64 41.643 L1358.77 41.643 L1352.54 66.4006 Q1352.05 68.573 1352.05 70.4175 Q1352.05 72.467 1352.66 73.3687 Q1353.32 74.2705 1354.67 74.2705 Q1357.34 74.2705 1360.21 71.8521 Q1363.12 69.4338 1365.58 63.5313 Q1365.9 62.7525 1366.07 62.5886 Q1366.27 62.3836 1366.81 62.3836 Q1367.83 62.3836 1367.83 63.2034 Q1367.83 63.4903 1367.26 64.802 Q1366.72 66.1136 1365.53 68.0401 Q1364.39 69.9666 1362.87 71.7702 Q1361.39 73.5737 1359.14 74.8853 Q1356.89 76.156 1354.47 76.156 Q1351.07 76.156 1348.89 73.9836 Q1346.76 71.8111 1346.76 68.409 Q1346.76 67.3023 1347.62 63.7772 Q1348.48 60.2112 1353.16 41.643 L1345.74 41.643 Q1344.71 41.643 1344.3 41.602 Q1343.93 41.5611 1343.65 41.3561 Q1343.4 41.1102 1343.4 40.6183 Q1343.4 39.8395 1343.73 39.5116 Q1344.06 39.1427 1344.47 39.1017 Q1344.92 39.0197 1345.94 39.0197 L1353.81 39.0197 L1357.09 25.6982 Q1357.42 24.3865 1358.24 23.6487 Q1359.1 22.8699 1359.59 22.788 Q1360.08 22.665 1360.45 22.665 Q1361.56 22.665 1362.21 23.2798 Q1362.87 23.8537 1362.87 24.9194 Q1362.87 25.4933 1359.43 39.0197 L1366.81 39.0197 Q1367.75 39.0197 1368.12 39.0607 Q1368.53 39.1017 1368.85 39.3066 Q1369.18 39.5116 1369.18 39.9625 Z" fill="#000000" fill-rule="evenodd" fill-opacity="1" /><path clip-path="url(#clip030)" d="M1452.11 53.0381 Q1452.6 53.5299 1452.6 54.2267 Q1452.6 54.9236 1452.11 55.4154 Q1451.62 55.9073 1450.92 55.9073 L1398.37 55.9073 Q1397.67 55.9073 1397.18 55.4154 Q1396.69 54.9236 1396.69 54.2267 Q1396.69 53.5299 1397.18 53.0381 Q1397.67 52.5462 1398.37 52.5462 L1450.92 52.5462 Q1451.62 52.5462 1452.11 53.0381 Z" fill="#000000" fill-rule="evenodd" fill-opacity="1" /><path clip-path="url(#clip030)" d="M1525.31 41.0282 Q1525.31 43.8974 1521.17 43.8974 L1507.07 43.8974 L1501.46 72.6309 Q1501.33 73.3687 1501.17 73.7786 Q1501.05 74.1885 1500.68 74.8853 Q1500.35 75.5412 1499.65 75.8691 Q1499 76.238 1498.01 76.238 Q1496.78 76.238 1496.17 75.5002 Q1495.59 74.8034 1495.59 73.9426 Q1495.59 73.4097 1496.41 70.8684 L1504.65 43.8974 L1497.69 43.8974 Q1491.13 43.8974 1487.03 50.3737 Q1486.37 51.2345 1486 51.3165 Q1485.84 51.3575 1485.68 51.3575 Q1485.22 51.3575 1484.94 51.1525 Q1484.69 50.9476 1484.69 50.7427 L1484.65 50.5377 Q1484.65 50.2508 1485.31 49.1031 Q1486 47.9144 1487.23 46.1519 Q1488.5 44.3893 1489.77 42.9957 Q1491.45 41.1921 1493.34 40.2494 Q1495.23 39.2657 1496.17 39.1427 Q1497.15 39.0197 1498.42 39.0197 L1521.95 39.0197 Q1523.02 39.0197 1523.59 39.1017 Q1524.16 39.1427 1524.74 39.6346 Q1525.31 40.0854 1525.31 41.0282 Z" fill="#000000" fill-rule="evenodd" fill-opacity="1" /><path clip-path="url(#clip030)" d="M1533.04 95.38 Q1533.04 94.9701 1534.11 93.9454 Q1547.63 80.173 1547.63 54.2267 Q1547.63 28.1985 1534.64 15.041 Q1533.04 13.5244 1533.04 13.0735 Q1533.04 12.2537 1533.86 12.2537 Q1534.43 12.2537 1536.44 13.9343 Q1538.49 15.6148 1541.57 19.4678 Q1544.68 23.3208 1546.98 28.0346 Q1552.51 39.4706 1552.51 54.2267 Q1552.51 68.409 1547.22 79.845 Q1544.97 84.6408 1541.81 88.6577 Q1538.66 92.6747 1536.57 94.4372 Q1534.47 96.1998 1533.86 96.1998 Q1533.04 96.1998 1533.04 95.38 Z" fill="#000000" fill-rule="evenodd" fill-opacity="1" /><polyline clip-path="url(#clip032)" style="stroke:#009af9; stroke-linecap:round; stroke-linejoin:round; stroke-width:4; stroke-opacity:1; fill:none" points="
  258.539,175.141 273.597,175.141 412.828,175.141 496.5,175.141 567.244,175.141 644.091,175.141 714.938,175.141 790.893,175.141 878.894,175.141 957.099,175.141 
  1025.68,175.141 1100.45,175.141 1175.66,175.141 1258.82,175.141 1337.94,175.141 1420.21,175.141 1489.47,175.141 1574.02,175.141 1651.47,175.141 1723.01,175.141 
  1795.47,175.141 1876.68,175.141 1950.27,175.141 1992.39,175.141 2034.52,175.141 2054.03,175.141 2073.53,175.141 2083.28,175.141 2093.03,175.141 2097.91,175.141 
  2102.78,175.141 2104,175.141 2105.22,175.141 2105.83,175.141 2106.44,175.141 2107.05,175.141 2107.66,175.141 2108.27,175.141 2108.88,1753.43 2109.49,1753.43 
  2110.1,1753.43 2111.32,1753.43 2112.53,1753.43 2114.94,1753.43 2117.34,1753.43 2119.74,1753.43 2122.15,1753.43 2126.96,1753.43 2131.76,1753.43 2141.38,1753.43 
  2150.99,1753.43 2170.22,1753.43 2189.45,1753.43 2226.78,1753.43 2264.12,1753.43 2340.67,1753.43 2424.54,1753.43 2546.38,1753.43 2571.37,1753.43 
  "/>
</svg>
