<?xml version="1.0" encoding="utf-8"?>
<svg xmlns="http://www.w3.org/2000/svg" xmlns:xlink="http://www.w3.org/1999/xlink" width="672" height="480" viewBox="0 0 2688 1920">
<defs>
  <clipPath id="clip340">
    <rect x="0" y="0" width="2688" height="1920"/>
  </clipPath>
</defs>
<path clip-path="url(#clip340)" d="
M0 1920 L2688 1920 L2688 0 L0 0  Z
  " fill="#ffffff" fill-rule="evenodd" fill-opacity="1"/>
<defs>
  <clipPath id="clip341">
    <rect x="537" y="0" width="1883" height="1883"/>
  </clipPath>
</defs>
<path clip-path="url(#clip340)" d="
M158.992 1800.78 L2640.76 1800.78 L2640.76 47.2441 L158.992 47.2441  Z
  " fill="#ffffff" fill-rule="evenodd" fill-opacity="1"/>
<defs>
  <clipPath id="clip342">
    <rect x="158" y="47" width="2483" height="1755"/>
  </clipPath>
</defs>
<polyline clip-path="url(#clip342)" style="stroke:#000000; stroke-linecap:round; stroke-linejoin:round; stroke-width:2; stroke-opacity:0.1; fill:none" points="
  229.231,1800.78 229.231,47.2441 
  "/>
<polyline clip-path="url(#clip342)" style="stroke:#000000; stroke-linecap:round; stroke-linejoin:round; stroke-width:2; stroke-opacity:0.1; fill:none" points="
  697.488,1800.78 697.488,47.2441 
  "/>
<polyline clip-path="url(#clip342)" style="stroke:#000000; stroke-linecap:round; stroke-linejoin:round; stroke-width:2; stroke-opacity:0.1; fill:none" points="
  1165.75,1800.78 1165.75,47.2441 
  "/>
<polyline clip-path="url(#clip342)" style="stroke:#000000; stroke-linecap:round; stroke-linejoin:round; stroke-width:2; stroke-opacity:0.1; fill:none" points="
  1634,1800.78 1634,47.2441 
  "/>
<polyline clip-path="url(#clip342)" style="stroke:#000000; stroke-linecap:round; stroke-linejoin:round; stroke-width:2; stroke-opacity:0.1; fill:none" points="
  2102.26,1800.78 2102.26,47.2441 
  "/>
<polyline clip-path="url(#clip342)" style="stroke:#000000; stroke-linecap:round; stroke-linejoin:round; stroke-width:2; stroke-opacity:0.1; fill:none" points="
  2570.52,1800.78 2570.52,47.2441 
  "/>
<polyline clip-path="url(#clip340)" style="stroke:#000000; stroke-linecap:round; stroke-linejoin:round; stroke-width:4; stroke-opacity:1; fill:none" points="
  158.992,1800.78 2640.76,1800.78 
  "/>
<polyline clip-path="url(#clip340)" style="stroke:#000000; stroke-linecap:round; stroke-linejoin:round; stroke-width:4; stroke-opacity:1; fill:none" points="
  229.231,1800.78 229.231,1781.88 
  "/>
<polyline clip-path="url(#clip340)" style="stroke:#000000; stroke-linecap:round; stroke-linejoin:round; stroke-width:4; stroke-opacity:1; fill:none" points="
  697.488,1800.78 697.488,1781.88 
  "/>
<polyline clip-path="url(#clip340)" style="stroke:#000000; stroke-linecap:round; stroke-linejoin:round; stroke-width:4; stroke-opacity:1; fill:none" points="
  1165.75,1800.78 1165.75,1781.88 
  "/>
<polyline clip-path="url(#clip340)" style="stroke:#000000; stroke-linecap:round; stroke-linejoin:round; stroke-width:4; stroke-opacity:1; fill:none" points="
  1634,1800.78 1634,1781.88 
  "/>
<polyline clip-path="url(#clip340)" style="stroke:#000000; stroke-linecap:round; stroke-linejoin:round; stroke-width:4; stroke-opacity:1; fill:none" points="
  2102.26,1800.78 2102.26,1781.88 
  "/>
<polyline clip-path="url(#clip340)" style="stroke:#000000; stroke-linecap:round; stroke-linejoin:round; stroke-width:4; stroke-opacity:1; fill:none" points="
  2570.52,1800.78 2570.52,1781.88 
  "/>
<path clip-path="url(#clip340)" d="M198.698 1848.65 L228.374 1848.65 L228.374 1852.59 L198.698 1852.59 L198.698 1848.65 Z" fill="#000000" fill-rule="evenodd" fill-opacity="1" /><path clip-path="url(#clip340)" d="M252.633 1846.85 Q255.99 1847.57 257.865 1849.84 Q259.763 1852.1 259.763 1855.44 Q259.763 1860.55 256.244 1863.35 Q252.726 1866.15 246.245 1866.15 Q244.069 1866.15 241.754 1865.71 Q239.462 1865.3 237.008 1864.44 L237.008 1859.93 Q238.953 1861.06 241.268 1861.64 Q243.582 1862.22 246.106 1862.22 Q250.504 1862.22 252.795 1860.48 Q255.11 1858.75 255.11 1855.44 Q255.11 1852.38 252.957 1850.67 Q250.828 1848.93 247.008 1848.93 L242.981 1848.93 L242.981 1845.09 L247.194 1845.09 Q250.643 1845.09 252.471 1843.72 Q254.3 1842.34 254.3 1839.74 Q254.3 1837.08 252.402 1835.67 Q250.527 1834.23 247.008 1834.23 Q245.087 1834.23 242.888 1834.65 Q240.689 1835.07 238.05 1835.95 L238.05 1831.78 Q240.712 1831.04 243.027 1830.67 Q245.365 1830.3 247.425 1830.3 Q252.749 1830.3 255.851 1832.73 Q258.953 1835.14 258.953 1839.26 Q258.953 1842.13 257.309 1844.12 Q255.666 1846.09 252.633 1846.85 Z" fill="#000000" fill-rule="evenodd" fill-opacity="1" /><path clip-path="url(#clip340)" d="M667.43 1848.65 L697.106 1848.65 L697.106 1852.59 L667.43 1852.59 L667.43 1848.65 Z" fill="#000000" fill-rule="evenodd" fill-opacity="1" /><path clip-path="url(#clip340)" d="M711.226 1861.55 L727.546 1861.55 L727.546 1865.48 L705.601 1865.48 L705.601 1861.55 Q708.263 1858.79 712.847 1854.16 Q717.453 1849.51 718.634 1848.17 Q720.879 1845.65 721.759 1843.91 Q722.662 1842.15 722.662 1840.46 Q722.662 1837.71 720.717 1835.97 Q718.796 1834.23 715.694 1834.23 Q713.495 1834.23 711.041 1835 Q708.611 1835.76 705.833 1837.31 L705.833 1832.59 Q708.657 1831.46 711.111 1830.88 Q713.564 1830.3 715.601 1830.3 Q720.972 1830.3 724.166 1832.98 Q727.361 1835.67 727.361 1840.16 Q727.361 1842.29 726.55 1844.21 Q725.763 1846.11 723.657 1848.7 Q723.078 1849.37 719.976 1852.59 Q716.875 1855.78 711.226 1861.55 Z" fill="#000000" fill-rule="evenodd" fill-opacity="1" /><path clip-path="url(#clip340)" d="M1135.5 1848.65 L1165.18 1848.65 L1165.18 1852.59 L1135.5 1852.59 L1135.5 1848.65 Z" fill="#000000" fill-rule="evenodd" fill-opacity="1" /><path clip-path="url(#clip340)" d="M1176.08 1861.55 L1183.72 1861.55 L1183.72 1835.18 L1175.41 1836.85 L1175.41 1832.59 L1183.67 1830.92 L1188.35 1830.92 L1188.35 1861.55 L1195.99 1861.55 L1195.99 1865.48 L1176.08 1865.48 L1176.08 1861.55 Z" fill="#000000" fill-rule="evenodd" fill-opacity="1" /><path clip-path="url(#clip340)" d="M1634 1834 Q1630.39 1834 1628.56 1837.57 Q1626.76 1841.11 1626.76 1848.24 Q1626.76 1855.34 1628.56 1858.91 Q1630.39 1862.45 1634 1862.45 Q1637.64 1862.45 1639.44 1858.91 Q1641.27 1855.34 1641.27 1848.24 Q1641.27 1841.11 1639.44 1837.57 Q1637.64 1834 1634 1834 M1634 1830.3 Q1639.81 1830.3 1642.87 1834.9 Q1645.95 1839.49 1645.95 1848.24 Q1645.95 1856.96 1642.87 1861.57 Q1639.81 1866.15 1634 1866.15 Q1628.19 1866.15 1625.11 1861.57 Q1622.06 1856.96 1622.06 1848.24 Q1622.06 1839.49 1625.11 1834.9 Q1628.19 1830.3 1634 1830.3 Z" fill="#000000" fill-rule="evenodd" fill-opacity="1" /><path clip-path="url(#clip340)" d="M2092.64 1861.55 L2100.28 1861.55 L2100.28 1835.18 L2091.97 1836.85 L2091.97 1832.59 L2100.23 1830.92 L2104.91 1830.92 L2104.91 1861.55 L2112.55 1861.55 L2112.55 1865.48 L2092.64 1865.48 L2092.64 1861.55 Z" fill="#000000" fill-rule="evenodd" fill-opacity="1" /><path clip-path="url(#clip340)" d="M2565.17 1861.55 L2581.49 1861.55 L2581.49 1865.48 L2559.55 1865.48 L2559.55 1861.55 Q2562.21 1858.79 2566.79 1854.16 Q2571.4 1849.51 2572.58 1848.17 Q2574.82 1845.65 2575.7 1843.91 Q2576.61 1842.15 2576.61 1840.46 Q2576.61 1837.71 2574.66 1835.97 Q2572.74 1834.23 2569.64 1834.23 Q2567.44 1834.23 2564.98 1835 Q2562.55 1835.76 2559.78 1837.31 L2559.78 1832.59 Q2562.6 1831.46 2565.05 1830.88 Q2567.51 1830.3 2569.55 1830.3 Q2574.92 1830.3 2578.11 1832.98 Q2581.3 1835.67 2581.3 1840.16 Q2581.3 1842.29 2580.49 1844.21 Q2579.71 1846.11 2577.6 1848.7 Q2577.02 1849.37 2573.92 1852.59 Q2570.82 1855.78 2565.17 1861.55 Z" fill="#000000" fill-rule="evenodd" fill-opacity="1" /><polyline clip-path="url(#clip342)" style="stroke:#000000; stroke-linecap:round; stroke-linejoin:round; stroke-width:2; stroke-opacity:0.1; fill:none" points="
  158.992,1751.15 2640.76,1751.15 
  "/>
<polyline clip-path="url(#clip342)" style="stroke:#000000; stroke-linecap:round; stroke-linejoin:round; stroke-width:2; stroke-opacity:0.1; fill:none" points="
  158.992,1337.58 2640.76,1337.58 
  "/>
<polyline clip-path="url(#clip342)" style="stroke:#000000; stroke-linecap:round; stroke-linejoin:round; stroke-width:2; stroke-opacity:0.1; fill:none" points="
  158.992,924.012 2640.76,924.012 
  "/>
<polyline clip-path="url(#clip342)" style="stroke:#000000; stroke-linecap:round; stroke-linejoin:round; stroke-width:2; stroke-opacity:0.1; fill:none" points="
  158.992,510.442 2640.76,510.442 
  "/>
<polyline clip-path="url(#clip342)" style="stroke:#000000; stroke-linecap:round; stroke-linejoin:round; stroke-width:2; stroke-opacity:0.1; fill:none" points="
  158.992,96.8724 2640.76,96.8724 
  "/>
<polyline clip-path="url(#clip340)" style="stroke:#000000; stroke-linecap:round; stroke-linejoin:round; stroke-width:4; stroke-opacity:1; fill:none" points="
  158.992,1800.78 158.992,47.2441 
  "/>
<polyline clip-path="url(#clip340)" style="stroke:#000000; stroke-linecap:round; stroke-linejoin:round; stroke-width:4; stroke-opacity:1; fill:none" points="
  158.992,1751.15 177.89,1751.15 
  "/>
<polyline clip-path="url(#clip340)" style="stroke:#000000; stroke-linecap:round; stroke-linejoin:round; stroke-width:4; stroke-opacity:1; fill:none" points="
  158.992,1337.58 177.89,1337.58 
  "/>
<polyline clip-path="url(#clip340)" style="stroke:#000000; stroke-linecap:round; stroke-linejoin:round; stroke-width:4; stroke-opacity:1; fill:none" points="
  158.992,924.012 177.89,924.012 
  "/>
<polyline clip-path="url(#clip340)" style="stroke:#000000; stroke-linecap:round; stroke-linejoin:round; stroke-width:4; stroke-opacity:1; fill:none" points="
  158.992,510.442 177.89,510.442 
  "/>
<polyline clip-path="url(#clip340)" style="stroke:#000000; stroke-linecap:round; stroke-linejoin:round; stroke-width:4; stroke-opacity:1; fill:none" points="
  158.992,96.8724 177.89,96.8724 
  "/>
<path clip-path="url(#clip340)" d="M61.4965 1736.95 Q57.8854 1736.95 56.0567 1740.51 Q54.2512 1744.06 54.2512 1751.19 Q54.2512 1758.29 56.0567 1761.86 Q57.8854 1765.4 61.4965 1765.4 Q65.1307 1765.4 66.9363 1761.86 Q68.765 1758.29 68.765 1751.19 Q68.765 1744.06 66.9363 1740.51 Q65.1307 1736.95 61.4965 1736.95 M61.4965 1733.25 Q67.3067 1733.25 70.3622 1737.85 Q73.4409 1742.44 73.4409 1751.19 Q73.4409 1759.91 70.3622 1764.52 Q67.3067 1769.1 61.4965 1769.1 Q55.6864 1769.1 52.6077 1764.52 Q49.5521 1759.91 49.5521 1751.19 Q49.5521 1742.44 52.6077 1737.85 Q55.6864 1733.25 61.4965 1733.25 Z" fill="#000000" fill-rule="evenodd" fill-opacity="1" /><path clip-path="url(#clip340)" d="M81.6584 1762.55 L86.5427 1762.55 L86.5427 1768.43 L81.6584 1768.43 L81.6584 1762.55 Z" fill="#000000" fill-rule="evenodd" fill-opacity="1" /><path clip-path="url(#clip340)" d="M106.728 1736.95 Q103.117 1736.95 101.288 1740.51 Q99.4824 1744.06 99.4824 1751.19 Q99.4824 1758.29 101.288 1761.86 Q103.117 1765.4 106.728 1765.4 Q110.362 1765.4 112.168 1761.86 Q113.996 1758.29 113.996 1751.19 Q113.996 1744.06 112.168 1740.51 Q110.362 1736.95 106.728 1736.95 M106.728 1733.25 Q112.538 1733.25 115.593 1737.85 Q118.672 1742.44 118.672 1751.19 Q118.672 1759.91 115.593 1764.52 Q112.538 1769.1 106.728 1769.1 Q100.918 1769.1 97.8389 1764.52 Q94.7834 1759.91 94.7834 1751.19 Q94.7834 1742.44 97.8389 1737.85 Q100.918 1733.25 106.728 1733.25 Z" fill="#000000" fill-rule="evenodd" fill-opacity="1" /><path clip-path="url(#clip340)" d="M62.4919 1323.38 Q58.8808 1323.38 57.0521 1326.94 Q55.2465 1330.49 55.2465 1337.62 Q55.2465 1344.72 57.0521 1348.29 Q58.8808 1351.83 62.4919 1351.83 Q66.1261 1351.83 67.9317 1348.29 Q69.7604 1344.72 69.7604 1337.62 Q69.7604 1330.49 67.9317 1326.94 Q66.1261 1323.38 62.4919 1323.38 M62.4919 1319.68 Q68.302 1319.68 71.3576 1324.28 Q74.4363 1328.87 74.4363 1337.62 Q74.4363 1346.34 71.3576 1350.95 Q68.302 1355.53 62.4919 1355.53 Q56.6817 1355.53 53.603 1350.95 Q50.5475 1346.34 50.5475 1337.62 Q50.5475 1328.87 53.603 1324.28 Q56.6817 1319.68 62.4919 1319.68 Z" fill="#000000" fill-rule="evenodd" fill-opacity="1" /><path clip-path="url(#clip340)" d="M82.6538 1348.98 L87.538 1348.98 L87.538 1354.86 L82.6538 1354.86 L82.6538 1348.98 Z" fill="#000000" fill-rule="evenodd" fill-opacity="1" /><path clip-path="url(#clip340)" d="M97.7695 1320.3 L116.126 1320.3 L116.126 1324.24 L102.052 1324.24 L102.052 1332.71 Q103.07 1332.36 104.089 1332.2 Q105.107 1332.01 106.126 1332.01 Q111.913 1332.01 115.293 1335.19 Q118.672 1338.36 118.672 1343.77 Q118.672 1349.35 115.2 1352.45 Q111.728 1355.53 105.408 1355.53 Q103.232 1355.53 100.964 1355.16 Q98.7185 1354.79 96.3111 1354.05 L96.3111 1349.35 Q98.3945 1350.49 100.617 1351.04 Q102.839 1351.6 105.316 1351.6 Q109.32 1351.6 111.658 1349.49 Q113.996 1347.38 113.996 1343.77 Q113.996 1340.16 111.658 1338.06 Q109.32 1335.95 105.316 1335.95 Q103.441 1335.95 101.566 1336.37 Q99.7139 1336.78 97.7695 1337.66 L97.7695 1320.3 Z" fill="#000000" fill-rule="evenodd" fill-opacity="1" /><path clip-path="url(#clip340)" d="M52.3067 937.357 L59.9456 937.357 L59.9456 910.991 L51.6354 912.658 L51.6354 908.398 L59.8993 906.732 L64.5752 906.732 L64.5752 937.357 L72.214 937.357 L72.214 941.292 L52.3067 941.292 L52.3067 937.357 Z" fill="#000000" fill-rule="evenodd" fill-opacity="1" /><path clip-path="url(#clip340)" d="M81.6584 935.412 L86.5427 935.412 L86.5427 941.292 L81.6584 941.292 L81.6584 935.412 Z" fill="#000000" fill-rule="evenodd" fill-opacity="1" /><path clip-path="url(#clip340)" d="M106.728 909.81 Q103.117 909.81 101.288 913.375 Q99.4824 916.917 99.4824 924.046 Q99.4824 931.153 101.288 934.718 Q103.117 938.259 106.728 938.259 Q110.362 938.259 112.168 934.718 Q113.996 931.153 113.996 924.046 Q113.996 916.917 112.168 913.375 Q110.362 909.81 106.728 909.81 M106.728 906.107 Q112.538 906.107 115.593 910.713 Q118.672 915.296 118.672 924.046 Q118.672 932.773 115.593 937.38 Q112.538 941.963 106.728 941.963 Q100.918 941.963 97.8389 937.38 Q94.7834 932.773 94.7834 924.046 Q94.7834 915.296 97.8389 910.713 Q100.918 906.107 106.728 906.107 Z" fill="#000000" fill-rule="evenodd" fill-opacity="1" /><path clip-path="url(#clip340)" d="M53.3021 523.787 L60.941 523.787 L60.941 497.421 L52.6308 499.088 L52.6308 494.829 L60.8947 493.162 L65.5706 493.162 L65.5706 523.787 L73.2094 523.787 L73.2094 527.722 L53.3021 527.722 L53.3021 523.787 Z" fill="#000000" fill-rule="evenodd" fill-opacity="1" /><path clip-path="url(#clip340)" d="M82.6538 521.842 L87.538 521.842 L87.538 527.722 L82.6538 527.722 L82.6538 521.842 Z" fill="#000000" fill-rule="evenodd" fill-opacity="1" /><path clip-path="url(#clip340)" d="M97.7695 493.162 L116.126 493.162 L116.126 497.097 L102.052 497.097 L102.052 505.569 Q103.07 505.222 104.089 505.06 Q105.107 504.875 106.126 504.875 Q111.913 504.875 115.293 508.046 Q118.672 511.218 118.672 516.634 Q118.672 522.213 115.2 525.315 Q111.728 528.393 105.408 528.393 Q103.232 528.393 100.964 528.023 Q98.7185 527.653 96.3111 526.912 L96.3111 522.213 Q98.3945 523.347 100.617 523.903 Q102.839 524.458 105.316 524.458 Q109.32 524.458 111.658 522.352 Q113.996 520.245 113.996 516.634 Q113.996 513.023 111.658 510.917 Q109.32 508.81 105.316 508.81 Q103.441 508.81 101.566 509.227 Q99.7139 509.643 97.7695 510.523 L97.7695 493.162 Z" fill="#000000" fill-rule="evenodd" fill-opacity="1" /><path clip-path="url(#clip340)" d="M55.5243 110.217 L71.8437 110.217 L71.8437 114.152 L49.8993 114.152 L49.8993 110.217 Q52.5614 107.463 57.1447 102.833 Q61.7511 98.1803 62.9317 96.8377 Q65.177 94.3146 66.0567 92.5785 Q66.9594 90.8192 66.9594 89.1294 Q66.9594 86.3748 65.015 84.6387 Q63.0937 82.9026 59.9919 82.9026 Q57.7928 82.9026 55.3391 83.6665 Q52.9086 84.4304 50.1308 85.9813 L50.1308 81.2591 Q52.9549 80.1249 55.4086 79.5462 Q57.8623 78.9675 59.8993 78.9675 Q65.2696 78.9675 68.4641 81.6526 Q71.6585 84.3378 71.6585 88.8285 Q71.6585 90.9581 70.8483 92.8794 Q70.0613 94.7776 67.9548 97.3701 Q67.3761 98.0414 64.2743 101.259 Q61.1724 104.453 55.5243 110.217 Z" fill="#000000" fill-rule="evenodd" fill-opacity="1" /><path clip-path="url(#clip340)" d="M81.6584 108.273 L86.5427 108.273 L86.5427 114.152 L81.6584 114.152 L81.6584 108.273 Z" fill="#000000" fill-rule="evenodd" fill-opacity="1" /><path clip-path="url(#clip340)" d="M106.728 82.6711 Q103.117 82.6711 101.288 86.2359 Q99.4824 89.7776 99.4824 96.9072 Q99.4824 104.014 101.288 107.578 Q103.117 111.12 106.728 111.12 Q110.362 111.12 112.168 107.578 Q113.996 104.014 113.996 96.9072 Q113.996 89.7776 112.168 86.2359 Q110.362 82.6711 106.728 82.6711 M106.728 78.9675 Q112.538 78.9675 115.593 83.5739 Q118.672 88.1572 118.672 96.9072 Q118.672 105.634 115.593 110.24 Q112.538 114.824 106.728 114.824 Q100.918 114.824 97.8389 110.24 Q94.7834 105.634 94.7834 96.9072 Q94.7834 88.1572 97.8389 83.5739 Q100.918 78.9675 106.728 78.9675 Z" fill="#000000" fill-rule="evenodd" fill-opacity="1" /><polyline clip-path="url(#clip342)" style="stroke:#009af9; stroke-linecap:round; stroke-linejoin:round; stroke-width:4; stroke-opacity:1; fill:none" points="
  229.231,924.012 236.852,924.012 244.474,924.012 314.946,924.012 385.418,924.012 406.593,924.012 427.769,924.012 438.356,924.012 448.944,924.012 451.591,924.012 
  454.238,924.012 456.885,924.012 459.532,924.012 460.193,924.012 460.855,924.012 461.517,924.012 462.179,924.012 462.84,924.012 463.502,1751.15 464.164,1751.15 
  464.825,1751.15 466.149,1751.15 467.472,1751.15 468.796,1751.15 470.119,1751.15 474.595,1751.15 479.071,1751.15 483.547,1751.15 488.023,1751.15 496.975,1751.15 
  505.926,1751.15 523.83,1751.15 541.733,1751.15 619.526,1751.15 691.244,1751.15 768.134,1751.15 857.218,1751.15 936.385,1751.15 1005.81,1751.15 1081.5,1751.15 
  1157.64,1751.15 1241.82,1751.15 1321.91,1751.15 1405.2,1751.15 1475.3,1751.15 1560.89,1751.15 1639.3,1751.15 1711.71,1751.15 1785.07,1751.15 1867.28,1751.15 
  1941.77,1751.15 2027.06,1751.15 2106.04,1751.15 2183.89,1751.15 2259.49,1751.15 2336.98,1751.15 2421.88,1751.15 2545.21,1751.15 2570.52,1751.15 
  "/>
<polyline clip-path="url(#clip342)" style="stroke:#e26f46; stroke-linecap:round; stroke-linejoin:round; stroke-width:4; stroke-opacity:1; fill:none" points="
  229.231,1751.15 244.474,1751.15 385.418,1751.15 470.119,1751.15 541.733,1751.15 580.63,1751.15 619.526,1751.15 637.456,1751.15 655.385,1751.15 664.35,1751.15 
  673.315,1751.15 682.28,1751.15 691.244,1751.15 696.05,1751.15 700.856,1745.2 705.661,1736.71 710.467,1728.22 720.078,1711.25 729.689,1694.27 748.912,1660.32 
  768.134,1626.36 812.676,1547.68 857.218,1469 936.385,1329.16 1005.81,1206.53 1081.5,1072.83 1157.64,938.336 1241.82,789.636 1321.91,648.151 1405.2,501.04 
  1475.3,377.204 1518.1,301.61 1560.89,226.015 1580.49,191.39 1600.1,156.765 1609.9,139.453 1619.7,122.14 1624.6,113.484 1629.5,104.828 1631.95,100.5 
  1634.4,96.8724 1636.85,96.8724 1639.3,96.8724 1648.35,96.8724 1657.4,96.8724 1666.46,96.8724 1675.51,96.8724 1693.61,96.8724 1711.71,96.8724 1748.39,96.8724 
  1785.07,96.8724 1867.28,96.8724 1941.77,96.8724 2027.06,96.8724 2106.04,96.8724 2183.89,96.8724 2259.49,96.8724 2336.98,96.8724 2421.88,96.8724 2545.21,96.8724 
  2570.52,96.8724 
  "/>
</svg>
