<?xml version="1.0" encoding="utf-8"?>
<svg xmlns="http://www.w3.org/2000/svg" xmlns:xlink="http://www.w3.org/1999/xlink" width="672" height="480" viewBox="0 0 2688 1920">
<defs>
  <clipPath id="clip660">
    <rect x="0" y="0" width="2688" height="1920"/>
  </clipPath>
</defs>
<path clip-path="url(#clip660)" d="
M0 1920 L2688 1920 L2688 0 L0 0  Z
  " fill="#ffffff" fill-rule="evenodd" fill-opacity="1"/>
<defs>
  <clipPath id="clip661">
    <rect x="537" y="0" width="1883" height="1883"/>
  </clipPath>
</defs>
<defs>
  <clipPath id="clip662">
    <rect x="158" y="127" width="2483" height="1674"/>
  </clipPath>
</defs>
<path clip-path="url(#clip660)" d="
M158.992 1800.78 L2640.76 1800.78 L2640.76 127.792 L158.992 127.792  Z
  " fill="#ffffff" fill-rule="evenodd" fill-opacity="1"/>
<polyline clip-path="url(#clip662)" style="stroke:#000000; stroke-linecap:round; stroke-linejoin:round; stroke-width:2; stroke-opacity:0.1; fill:none" points="
  229.231,1800.78 229.231,127.792 
  "/>
<polyline clip-path="url(#clip662)" style="stroke:#000000; stroke-linecap:round; stroke-linejoin:round; stroke-width:2; stroke-opacity:0.1; fill:none" points="
  619.445,1800.78 619.445,127.792 
  "/>
<polyline clip-path="url(#clip662)" style="stroke:#000000; stroke-linecap:round; stroke-linejoin:round; stroke-width:2; stroke-opacity:0.1; fill:none" points="
  1009.66,1800.78 1009.66,127.792 
  "/>
<polyline clip-path="url(#clip662)" style="stroke:#000000; stroke-linecap:round; stroke-linejoin:round; stroke-width:2; stroke-opacity:0.1; fill:none" points="
  1399.87,1800.78 1399.87,127.792 
  "/>
<polyline clip-path="url(#clip662)" style="stroke:#000000; stroke-linecap:round; stroke-linejoin:round; stroke-width:2; stroke-opacity:0.1; fill:none" points="
  1790.09,1800.78 1790.09,127.792 
  "/>
<polyline clip-path="url(#clip662)" style="stroke:#000000; stroke-linecap:round; stroke-linejoin:round; stroke-width:2; stroke-opacity:0.1; fill:none" points="
  2180.3,1800.78 2180.3,127.792 
  "/>
<polyline clip-path="url(#clip662)" style="stroke:#000000; stroke-linecap:round; stroke-linejoin:round; stroke-width:2; stroke-opacity:0.1; fill:none" points="
  2570.52,1800.78 2570.52,127.792 
  "/>
<polyline clip-path="url(#clip660)" style="stroke:#000000; stroke-linecap:round; stroke-linejoin:round; stroke-width:4; stroke-opacity:1; fill:none" points="
  158.992,1800.78 2640.76,1800.78 
  "/>
<polyline clip-path="url(#clip660)" style="stroke:#000000; stroke-linecap:round; stroke-linejoin:round; stroke-width:4; stroke-opacity:1; fill:none" points="
  229.231,1800.78 229.231,1781.88 
  "/>
<polyline clip-path="url(#clip660)" style="stroke:#000000; stroke-linecap:round; stroke-linejoin:round; stroke-width:4; stroke-opacity:1; fill:none" points="
  619.445,1800.78 619.445,1781.88 
  "/>
<polyline clip-path="url(#clip660)" style="stroke:#000000; stroke-linecap:round; stroke-linejoin:round; stroke-width:4; stroke-opacity:1; fill:none" points="
  1009.66,1800.78 1009.66,1781.88 
  "/>
<polyline clip-path="url(#clip660)" style="stroke:#000000; stroke-linecap:round; stroke-linejoin:round; stroke-width:4; stroke-opacity:1; fill:none" points="
  1399.87,1800.78 1399.87,1781.88 
  "/>
<polyline clip-path="url(#clip660)" style="stroke:#000000; stroke-linecap:round; stroke-linejoin:round; stroke-width:4; stroke-opacity:1; fill:none" points="
  1790.09,1800.78 1790.09,1781.88 
  "/>
<polyline clip-path="url(#clip660)" style="stroke:#000000; stroke-linecap:round; stroke-linejoin:round; stroke-width:4; stroke-opacity:1; fill:none" points="
  2180.3,1800.78 2180.3,1781.88 
  "/>
<polyline clip-path="url(#clip660)" style="stroke:#000000; stroke-linecap:round; stroke-linejoin:round; stroke-width:4; stroke-opacity:1; fill:none" points="
  2570.52,1800.78 2570.52,1781.88 
  "/>
<path clip-path="url(#clip660)" d="M198.698 1848.65 L228.374 1848.65 L228.374 1852.59 L198.698 1852.59 L198.698 1848.65 Z" fill="#000000" fill-rule="evenodd" fill-opacity="1" /><path clip-path="url(#clip660)" d="M252.633 1846.85 Q255.99 1847.57 257.865 1849.84 Q259.763 1852.1 259.763 1855.44 Q259.763 1860.55 256.244 1863.35 Q252.726 1866.15 246.245 1866.15 Q244.069 1866.15 241.754 1865.71 Q239.462 1865.3 237.008 1864.44 L237.008 1859.93 Q238.953 1861.06 241.268 1861.64 Q243.582 1862.22 246.106 1862.22 Q250.504 1862.22 252.795 1860.48 Q255.11 1858.75 255.11 1855.44 Q255.11 1852.38 252.957 1850.67 Q250.828 1848.93 247.008 1848.93 L242.981 1848.93 L242.981 1845.09 L247.194 1845.09 Q250.643 1845.09 252.471 1843.72 Q254.3 1842.34 254.3 1839.74 Q254.3 1837.08 252.402 1835.67 Q250.527 1834.23 247.008 1834.23 Q245.087 1834.23 242.888 1834.65 Q240.689 1835.07 238.05 1835.95 L238.05 1831.78 Q240.712 1831.04 243.027 1830.67 Q245.365 1830.3 247.425 1830.3 Q252.749 1830.3 255.851 1832.73 Q258.953 1835.14 258.953 1839.26 Q258.953 1842.13 257.309 1844.12 Q255.666 1846.09 252.633 1846.85 Z" fill="#000000" fill-rule="evenodd" fill-opacity="1" /><path clip-path="url(#clip660)" d="M589.387 1848.65 L619.063 1848.65 L619.063 1852.59 L589.387 1852.59 L589.387 1848.65 Z" fill="#000000" fill-rule="evenodd" fill-opacity="1" /><path clip-path="url(#clip660)" d="M633.184 1861.55 L649.503 1861.55 L649.503 1865.48 L627.559 1865.48 L627.559 1861.55 Q630.221 1858.79 634.804 1854.16 Q639.41 1849.51 640.591 1848.17 Q642.836 1845.65 643.716 1843.91 Q644.619 1842.15 644.619 1840.46 Q644.619 1837.71 642.674 1835.97 Q640.753 1834.23 637.651 1834.23 Q635.452 1834.23 632.998 1835 Q630.568 1835.76 627.79 1837.31 L627.79 1832.59 Q630.614 1831.46 633.068 1830.88 Q635.521 1830.3 637.558 1830.3 Q642.929 1830.3 646.123 1832.98 Q649.318 1835.67 649.318 1840.16 Q649.318 1842.29 648.507 1844.21 Q647.72 1846.11 645.614 1848.7 Q645.035 1849.37 641.933 1852.59 Q638.832 1855.78 633.184 1861.55 Z" fill="#000000" fill-rule="evenodd" fill-opacity="1" /><path clip-path="url(#clip660)" d="M979.417 1848.65 L1009.09 1848.65 L1009.09 1852.59 L979.417 1852.59 L979.417 1848.65 Z" fill="#000000" fill-rule="evenodd" fill-opacity="1" /><path clip-path="url(#clip660)" d="M1020 1861.55 L1027.63 1861.55 L1027.63 1835.18 L1019.32 1836.85 L1019.32 1832.59 L1027.59 1830.92 L1032.26 1830.92 L1032.26 1861.55 L1039.9 1861.55 L1039.9 1865.48 L1020 1865.48 L1020 1861.55 Z" fill="#000000" fill-rule="evenodd" fill-opacity="1" /><path clip-path="url(#clip660)" d="M1399.87 1834 Q1396.26 1834 1394.43 1837.57 Q1392.63 1841.11 1392.63 1848.24 Q1392.63 1855.34 1394.43 1858.91 Q1396.26 1862.45 1399.87 1862.45 Q1403.51 1862.45 1405.31 1858.91 Q1407.14 1855.34 1407.14 1848.24 Q1407.14 1841.11 1405.31 1837.57 Q1403.51 1834 1399.87 1834 M1399.87 1830.3 Q1405.68 1830.3 1408.74 1834.9 Q1411.82 1839.49 1411.82 1848.24 Q1411.82 1856.96 1408.74 1861.57 Q1405.68 1866.15 1399.87 1866.15 Q1394.06 1866.15 1390.99 1861.57 Q1387.93 1856.96 1387.93 1848.24 Q1387.93 1839.49 1390.99 1834.9 Q1394.06 1830.3 1399.87 1830.3 Z" fill="#000000" fill-rule="evenodd" fill-opacity="1" /><path clip-path="url(#clip660)" d="M1780.47 1861.55 L1788.11 1861.55 L1788.11 1835.18 L1779.8 1836.85 L1779.8 1832.59 L1788.06 1830.92 L1792.74 1830.92 L1792.74 1861.55 L1800.38 1861.55 L1800.38 1865.48 L1780.47 1865.48 L1780.47 1861.55 Z" fill="#000000" fill-rule="evenodd" fill-opacity="1" /><path clip-path="url(#clip660)" d="M2174.96 1861.55 L2191.28 1861.55 L2191.28 1865.48 L2169.33 1865.48 L2169.33 1861.55 Q2171.99 1858.79 2176.58 1854.16 Q2181.18 1849.51 2182.36 1848.17 Q2184.61 1845.65 2185.49 1843.91 Q2186.39 1842.15 2186.39 1840.46 Q2186.39 1837.71 2184.45 1835.97 Q2182.53 1834.23 2179.42 1834.23 Q2177.22 1834.23 2174.77 1835 Q2172.34 1835.76 2169.56 1837.31 L2169.56 1832.59 Q2172.39 1831.46 2174.84 1830.88 Q2177.29 1830.3 2179.33 1830.3 Q2184.7 1830.3 2187.9 1832.98 Q2191.09 1835.67 2191.09 1840.16 Q2191.09 1842.29 2190.28 1844.21 Q2189.49 1846.11 2187.39 1848.7 Q2186.81 1849.37 2183.71 1852.59 Q2180.6 1855.78 2174.96 1861.55 Z" fill="#000000" fill-rule="evenodd" fill-opacity="1" /><path clip-path="url(#clip660)" d="M2574.76 1846.85 Q2578.12 1847.57 2580 1849.84 Q2581.89 1852.1 2581.89 1855.44 Q2581.89 1860.55 2578.38 1863.35 Q2574.86 1866.15 2568.38 1866.15 Q2566.2 1866.15 2563.89 1865.71 Q2561.59 1865.3 2559.14 1864.44 L2559.14 1859.93 Q2561.08 1861.06 2563.4 1861.64 Q2565.71 1862.22 2568.24 1862.22 Q2572.64 1862.22 2574.93 1860.48 Q2577.24 1858.75 2577.24 1855.44 Q2577.24 1852.38 2575.09 1850.67 Q2572.96 1848.93 2569.14 1848.93 L2565.11 1848.93 L2565.11 1845.09 L2569.33 1845.09 Q2572.77 1845.09 2574.6 1843.72 Q2576.43 1842.34 2576.43 1839.74 Q2576.43 1837.08 2574.53 1835.67 Q2572.66 1834.23 2569.14 1834.23 Q2567.22 1834.23 2565.02 1834.65 Q2562.82 1835.07 2560.18 1835.95 L2560.18 1831.78 Q2562.84 1831.04 2565.16 1830.67 Q2567.5 1830.3 2569.56 1830.3 Q2574.88 1830.3 2577.98 1832.73 Q2581.08 1835.14 2581.08 1839.26 Q2581.08 1842.13 2579.44 1844.12 Q2577.8 1846.09 2574.76 1846.85 Z" fill="#000000" fill-rule="evenodd" fill-opacity="1" /><polyline clip-path="url(#clip662)" style="stroke:#000000; stroke-linecap:round; stroke-linejoin:round; stroke-width:2; stroke-opacity:0.1; fill:none" points="
  158.992,1753.43 2640.76,1753.43 
  "/>
<polyline clip-path="url(#clip662)" style="stroke:#000000; stroke-linecap:round; stroke-linejoin:round; stroke-width:2; stroke-opacity:0.1; fill:none" points="
  158.992,1358.86 2640.76,1358.86 
  "/>
<polyline clip-path="url(#clip662)" style="stroke:#000000; stroke-linecap:round; stroke-linejoin:round; stroke-width:2; stroke-opacity:0.1; fill:none" points="
  158.992,964.286 2640.76,964.286 
  "/>
<polyline clip-path="url(#clip662)" style="stroke:#000000; stroke-linecap:round; stroke-linejoin:round; stroke-width:2; stroke-opacity:0.1; fill:none" points="
  158.992,569.713 2640.76,569.713 
  "/>
<polyline clip-path="url(#clip662)" style="stroke:#000000; stroke-linecap:round; stroke-linejoin:round; stroke-width:2; stroke-opacity:0.1; fill:none" points="
  158.992,175.141 2640.76,175.141 
  "/>
<polyline clip-path="url(#clip660)" style="stroke:#000000; stroke-linecap:round; stroke-linejoin:round; stroke-width:4; stroke-opacity:1; fill:none" points="
  158.992,1800.78 158.992,127.792 
  "/>
<polyline clip-path="url(#clip660)" style="stroke:#000000; stroke-linecap:round; stroke-linejoin:round; stroke-width:4; stroke-opacity:1; fill:none" points="
  158.992,1753.43 177.89,1753.43 
  "/>
<polyline clip-path="url(#clip660)" style="stroke:#000000; stroke-linecap:round; stroke-linejoin:round; stroke-width:4; stroke-opacity:1; fill:none" points="
  158.992,1358.86 177.89,1358.86 
  "/>
<polyline clip-path="url(#clip660)" style="stroke:#000000; stroke-linecap:round; stroke-linejoin:round; stroke-width:4; stroke-opacity:1; fill:none" points="
  158.992,964.286 177.89,964.286 
  "/>
<polyline clip-path="url(#clip660)" style="stroke:#000000; stroke-linecap:round; stroke-linejoin:round; stroke-width:4; stroke-opacity:1; fill:none" points="
  158.992,569.713 177.89,569.713 
  "/>
<polyline clip-path="url(#clip660)" style="stroke:#000000; stroke-linecap:round; stroke-linejoin:round; stroke-width:4; stroke-opacity:1; fill:none" points="
  158.992,175.141 177.89,175.141 
  "/>
<path clip-path="url(#clip660)" d="M61.4965 1739.23 Q57.8854 1739.23 56.0567 1742.79 Q54.2512 1746.34 54.2512 1753.47 Q54.2512 1760.57 56.0567 1764.14 Q57.8854 1767.68 61.4965 1767.68 Q65.1307 1767.68 66.9363 1764.14 Q68.765 1760.57 68.765 1753.47 Q68.765 1746.34 66.9363 1742.79 Q65.1307 1739.23 61.4965 1739.23 M61.4965 1735.53 Q67.3067 1735.53 70.3622 1740.13 Q73.4409 1744.72 73.4409 1753.47 Q73.4409 1762.19 70.3622 1766.8 Q67.3067 1771.38 61.4965 1771.38 Q55.6864 1771.38 52.6077 1766.8 Q49.5521 1762.19 49.5521 1753.47 Q49.5521 1744.72 52.6077 1740.13 Q55.6864 1735.53 61.4965 1735.53 Z" fill="#000000" fill-rule="evenodd" fill-opacity="1" /><path clip-path="url(#clip660)" d="M81.6584 1764.83 L86.5427 1764.83 L86.5427 1770.71 L81.6584 1770.71 L81.6584 1764.83 Z" fill="#000000" fill-rule="evenodd" fill-opacity="1" /><path clip-path="url(#clip660)" d="M106.728 1739.23 Q103.117 1739.23 101.288 1742.79 Q99.4824 1746.34 99.4824 1753.47 Q99.4824 1760.57 101.288 1764.14 Q103.117 1767.68 106.728 1767.68 Q110.362 1767.68 112.168 1764.14 Q113.996 1760.57 113.996 1753.47 Q113.996 1746.34 112.168 1742.79 Q110.362 1739.23 106.728 1739.23 M106.728 1735.53 Q112.538 1735.53 115.593 1740.13 Q118.672 1744.72 118.672 1753.47 Q118.672 1762.19 115.593 1766.8 Q112.538 1771.38 106.728 1771.38 Q100.918 1771.38 97.8389 1766.8 Q94.7834 1762.19 94.7834 1753.47 Q94.7834 1744.72 97.8389 1740.13 Q100.918 1735.53 106.728 1735.53 Z" fill="#000000" fill-rule="evenodd" fill-opacity="1" /><path clip-path="url(#clip660)" d="M62.4919 1344.66 Q58.8808 1344.66 57.0521 1348.22 Q55.2465 1351.76 55.2465 1358.89 Q55.2465 1366 57.0521 1369.56 Q58.8808 1373.11 62.4919 1373.11 Q66.1261 1373.11 67.9317 1369.56 Q69.7604 1366 69.7604 1358.89 Q69.7604 1351.76 67.9317 1348.22 Q66.1261 1344.66 62.4919 1344.66 M62.4919 1340.95 Q68.302 1340.95 71.3576 1345.56 Q74.4363 1350.14 74.4363 1358.89 Q74.4363 1367.62 71.3576 1372.23 Q68.302 1376.81 62.4919 1376.81 Q56.6817 1376.81 53.603 1372.23 Q50.5475 1367.62 50.5475 1358.89 Q50.5475 1350.14 53.603 1345.56 Q56.6817 1340.95 62.4919 1340.95 Z" fill="#000000" fill-rule="evenodd" fill-opacity="1" /><path clip-path="url(#clip660)" d="M82.6538 1370.26 L87.538 1370.26 L87.538 1376.14 L82.6538 1376.14 L82.6538 1370.26 Z" fill="#000000" fill-rule="evenodd" fill-opacity="1" /><path clip-path="url(#clip660)" d="M97.7695 1341.58 L116.126 1341.58 L116.126 1345.51 L102.052 1345.51 L102.052 1353.99 Q103.07 1353.64 104.089 1353.48 Q105.107 1353.29 106.126 1353.29 Q111.913 1353.29 115.293 1356.46 Q118.672 1359.63 118.672 1365.05 Q118.672 1370.63 115.2 1373.73 Q111.728 1376.81 105.408 1376.81 Q103.232 1376.81 100.964 1376.44 Q98.7185 1376.07 96.3111 1375.33 L96.3111 1370.63 Q98.3945 1371.76 100.617 1372.32 Q102.839 1372.87 105.316 1372.87 Q109.32 1372.87 111.658 1370.77 Q113.996 1368.66 113.996 1365.05 Q113.996 1361.44 111.658 1359.33 Q109.32 1357.23 105.316 1357.23 Q103.441 1357.23 101.566 1357.64 Q99.7139 1358.06 97.7695 1358.94 L97.7695 1341.58 Z" fill="#000000" fill-rule="evenodd" fill-opacity="1" /><path clip-path="url(#clip660)" d="M52.3067 977.631 L59.9456 977.631 L59.9456 951.265 L51.6354 952.932 L51.6354 948.672 L59.8993 947.006 L64.5752 947.006 L64.5752 977.631 L72.214 977.631 L72.214 981.566 L52.3067 981.566 L52.3067 977.631 Z" fill="#000000" fill-rule="evenodd" fill-opacity="1" /><path clip-path="url(#clip660)" d="M81.6584 975.686 L86.5427 975.686 L86.5427 981.566 L81.6584 981.566 L81.6584 975.686 Z" fill="#000000" fill-rule="evenodd" fill-opacity="1" /><path clip-path="url(#clip660)" d="M106.728 950.084 Q103.117 950.084 101.288 953.649 Q99.4824 957.191 99.4824 964.32 Q99.4824 971.427 101.288 974.992 Q103.117 978.533 106.728 978.533 Q110.362 978.533 112.168 974.992 Q113.996 971.427 113.996 964.32 Q113.996 957.191 112.168 953.649 Q110.362 950.084 106.728 950.084 M106.728 946.381 Q112.538 946.381 115.593 950.987 Q118.672 955.57 118.672 964.32 Q118.672 973.047 115.593 977.654 Q112.538 982.237 106.728 982.237 Q100.918 982.237 97.8389 977.654 Q94.7834 973.047 94.7834 964.32 Q94.7834 955.57 97.8389 950.987 Q100.918 946.381 106.728 946.381 Z" fill="#000000" fill-rule="evenodd" fill-opacity="1" /><path clip-path="url(#clip660)" d="M53.3021 583.058 L60.941 583.058 L60.941 556.693 L52.6308 558.359 L52.6308 554.1 L60.8947 552.433 L65.5706 552.433 L65.5706 583.058 L73.2094 583.058 L73.2094 586.993 L53.3021 586.993 L53.3021 583.058 Z" fill="#000000" fill-rule="evenodd" fill-opacity="1" /><path clip-path="url(#clip660)" d="M82.6538 581.114 L87.538 581.114 L87.538 586.993 L82.6538 586.993 L82.6538 581.114 Z" fill="#000000" fill-rule="evenodd" fill-opacity="1" /><path clip-path="url(#clip660)" d="M97.7695 552.433 L116.126 552.433 L116.126 556.368 L102.052 556.368 L102.052 564.841 Q103.07 564.493 104.089 564.331 Q105.107 564.146 106.126 564.146 Q111.913 564.146 115.293 567.317 Q118.672 570.489 118.672 575.905 Q118.672 581.484 115.2 584.586 Q111.728 587.665 105.408 587.665 Q103.232 587.665 100.964 587.294 Q98.7185 586.924 96.3111 586.183 L96.3111 581.484 Q98.3945 582.618 100.617 583.174 Q102.839 583.729 105.316 583.729 Q109.32 583.729 111.658 581.623 Q113.996 579.516 113.996 575.905 Q113.996 572.294 111.658 570.188 Q109.32 568.081 105.316 568.081 Q103.441 568.081 101.566 568.498 Q99.7139 568.915 97.7695 569.794 L97.7695 552.433 Z" fill="#000000" fill-rule="evenodd" fill-opacity="1" /><path clip-path="url(#clip660)" d="M55.5243 188.486 L71.8437 188.486 L71.8437 192.421 L49.8993 192.421 L49.8993 188.486 Q52.5614 185.731 57.1447 181.101 Q61.7511 176.449 62.9317 175.106 Q65.177 172.583 66.0567 170.847 Q66.9594 169.088 66.9594 167.398 Q66.9594 164.643 65.015 162.907 Q63.0937 161.171 59.9919 161.171 Q57.7928 161.171 55.3391 161.935 Q52.9086 162.699 50.1308 164.25 L50.1308 159.527 Q52.9549 158.393 55.4086 157.815 Q57.8623 157.236 59.8993 157.236 Q65.2696 157.236 68.4641 159.921 Q71.6585 162.606 71.6585 167.097 Q71.6585 169.226 70.8483 171.148 Q70.0613 173.046 67.9548 175.639 Q67.3761 176.31 64.2743 179.527 Q61.1724 182.722 55.5243 188.486 Z" fill="#000000" fill-rule="evenodd" fill-opacity="1" /><path clip-path="url(#clip660)" d="M81.6584 186.541 L86.5427 186.541 L86.5427 192.421 L81.6584 192.421 L81.6584 186.541 Z" fill="#000000" fill-rule="evenodd" fill-opacity="1" /><path clip-path="url(#clip660)" d="M106.728 160.94 Q103.117 160.94 101.288 164.504 Q99.4824 168.046 99.4824 175.176 Q99.4824 182.282 101.288 185.847 Q103.117 189.388 106.728 189.388 Q110.362 189.388 112.168 185.847 Q113.996 182.282 113.996 175.176 Q113.996 168.046 112.168 164.504 Q110.362 160.94 106.728 160.94 M106.728 157.236 Q112.538 157.236 115.593 161.842 Q118.672 166.426 118.672 175.176 Q118.672 183.902 115.593 188.509 Q112.538 193.092 106.728 193.092 Q100.918 193.092 97.8389 188.509 Q94.7834 183.902 94.7834 175.176 Q94.7834 166.426 97.8389 161.842 Q100.918 157.236 106.728 157.236 Z" fill="#000000" fill-rule="evenodd" fill-opacity="1" /><path clip-path="url(#clip660)" d="M800.826 28.9478 L800.826 35.9153 Q797.667 34.1734 794.466 33.3227 Q791.307 32.4315 788.066 32.4315 Q780.815 32.4315 776.804 37.0496 Q772.794 41.6271 772.794 49.9314 Q772.794 58.2358 776.804 62.8538 Q780.815 67.4314 788.066 67.4314 Q791.307 67.4314 794.466 66.5807 Q797.667 65.6895 800.826 63.9476 L800.826 70.8341 Q797.707 72.2924 794.345 73.0216 Q791.023 73.7508 787.256 73.7508 Q777.007 73.7508 770.971 67.3098 Q764.935 60.8689 764.935 49.9314 Q764.935 38.832 771.012 32.472 Q777.129 26.1121 787.742 26.1121 Q791.185 26.1121 794.466 26.8413 Q797.748 27.5299 800.826 28.9478 Z" fill="#000000" fill-rule="evenodd" fill-opacity="1" /><path clip-path="url(#clip660)" d="M831.37 32.4315 Q825.375 32.4315 821.891 37.1306 Q818.407 41.7891 818.407 49.9314 Q818.407 58.0738 821.85 62.7728 Q825.334 67.4314 831.37 67.4314 Q837.325 67.4314 840.809 62.7323 Q844.293 58.0333 844.293 49.9314 Q844.293 41.8701 840.809 37.1711 Q837.325 32.4315 831.37 32.4315 M831.37 26.1121 Q841.092 26.1121 846.642 32.4315 Q852.192 38.7509 852.192 49.9314 Q852.192 61.0714 846.642 67.4314 Q841.092 73.7508 831.37 73.7508 Q821.607 73.7508 816.058 67.4314 Q810.548 61.0714 810.548 49.9314 Q810.548 38.7509 816.058 32.4315 Q821.607 26.1121 831.37 26.1121 Z" fill="#000000" fill-rule="evenodd" fill-opacity="1" /><path clip-path="url(#clip660)" d="M902.261 45.1919 L902.261 72.576 L894.807 72.576 L894.807 45.4349 Q894.807 38.994 892.296 35.7938 Q889.784 32.5936 884.761 32.5936 Q878.725 32.5936 875.241 36.4419 Q871.758 40.2903 871.758 46.9338 L871.758 72.576 L864.263 72.576 L864.263 27.2059 L871.758 27.2059 L871.758 34.2544 Q874.431 30.163 878.037 28.1376 Q881.682 26.1121 886.422 26.1121 Q894.24 26.1121 898.251 30.9732 Q902.261 35.7938 902.261 45.1919 Z" fill="#000000" fill-rule="evenodd" fill-opacity="1" /><path clip-path="url(#clip660)" d="M911.781 27.2059 L919.68 27.2059 L933.858 65.2844 L948.036 27.2059 L955.935 27.2059 L938.922 72.576 L928.794 72.576 L911.781 27.2059 Z" fill="#000000" fill-rule="evenodd" fill-opacity="1" /><path clip-path="url(#clip660)" d="M983.806 32.4315 Q977.81 32.4315 974.327 37.1306 Q970.843 41.7891 970.843 49.9314 Q970.843 58.0738 974.286 62.7728 Q977.77 67.4314 983.806 67.4314 Q989.76 67.4314 993.244 62.7323 Q996.728 58.0333 996.728 49.9314 Q996.728 41.8701 993.244 37.1711 Q989.76 32.4315 983.806 32.4315 M983.806 26.1121 Q993.528 26.1121 999.078 32.4315 Q1004.63 38.7509 1004.63 49.9314 Q1004.63 61.0714 999.078 67.4314 Q993.528 73.7508 983.806 73.7508 Q974.043 73.7508 968.493 67.4314 Q962.984 61.0714 962.984 49.9314 Q962.984 38.7509 968.493 32.4315 Q974.043 26.1121 983.806 26.1121 Z" fill="#000000" fill-rule="evenodd" fill-opacity="1" /><path clip-path="url(#clip660)" d="M1016.98 9.54393 L1024.44 9.54393 L1024.44 72.576 L1016.98 72.576 L1016.98 9.54393 Z" fill="#000000" fill-rule="evenodd" fill-opacity="1" /><path clip-path="url(#clip660)" d="M1039.26 54.671 L1039.26 27.2059 L1046.72 27.2059 L1046.72 54.3874 Q1046.72 60.8284 1049.23 64.0691 Q1051.74 67.2693 1056.76 67.2693 Q1062.8 67.2693 1066.28 63.421 Q1069.81 59.5726 1069.81 52.9291 L1069.81 27.2059 L1077.26 27.2059 L1077.26 72.576 L1069.81 72.576 L1069.81 65.6084 Q1067.09 69.7404 1063.49 71.7658 Q1059.92 73.7508 1055.18 73.7508 Q1047.36 73.7508 1043.31 68.8897 Q1039.26 64.0286 1039.26 54.671 M1058.02 26.1121 L1058.02 26.1121 Z" fill="#000000" fill-rule="evenodd" fill-opacity="1" /><path clip-path="url(#clip660)" d="M1099.99 14.324 L1099.99 27.2059 L1115.34 27.2059 L1115.34 32.9987 L1099.99 32.9987 L1099.99 57.6282 Q1099.99 63.1779 1101.48 64.7578 Q1103.02 66.3376 1107.68 66.3376 L1115.34 66.3376 L1115.34 72.576 L1107.68 72.576 Q1099.05 72.576 1095.77 69.3758 Q1092.49 66.1351 1092.49 57.6282 L1092.49 32.9987 L1087.02 32.9987 L1087.02 27.2059 L1092.49 27.2059 L1092.49 14.324 L1099.99 14.324 Z" fill="#000000" fill-rule="evenodd" fill-opacity="1" /><path clip-path="url(#clip660)" d="M1125.14 27.2059 L1132.6 27.2059 L1132.6 72.576 L1125.14 72.576 L1125.14 27.2059 M1125.14 9.54393 L1132.6 9.54393 L1132.6 18.9825 L1125.14 18.9825 L1125.14 9.54393 Z" fill="#000000" fill-rule="evenodd" fill-opacity="1" /><path clip-path="url(#clip660)" d="M1165.77 32.4315 Q1159.78 32.4315 1156.29 37.1306 Q1152.81 41.7891 1152.81 49.9314 Q1152.81 58.0738 1156.25 62.7728 Q1159.74 67.4314 1165.77 67.4314 Q1171.73 67.4314 1175.21 62.7323 Q1178.69 58.0333 1178.69 49.9314 Q1178.69 41.8701 1175.21 37.1711 Q1171.73 32.4315 1165.77 32.4315 M1165.77 26.1121 Q1175.49 26.1121 1181.04 32.4315 Q1186.59 38.7509 1186.59 49.9314 Q1186.59 61.0714 1181.04 67.4314 Q1175.49 73.7508 1165.77 73.7508 Q1156.01 73.7508 1150.46 67.4314 Q1144.95 61.0714 1144.95 49.9314 Q1144.95 38.7509 1150.46 32.4315 Q1156.01 26.1121 1165.77 26.1121 Z" fill="#000000" fill-rule="evenodd" fill-opacity="1" /><path clip-path="url(#clip660)" d="M1236.66 45.1919 L1236.66 72.576 L1229.21 72.576 L1229.21 45.4349 Q1229.21 38.994 1226.7 35.7938 Q1224.19 32.5936 1219.16 32.5936 Q1213.13 32.5936 1209.64 36.4419 Q1206.16 40.2903 1206.16 46.9338 L1206.16 72.576 L1198.67 72.576 L1198.67 27.2059 L1206.16 27.2059 L1206.16 34.2544 Q1208.83 30.163 1212.44 28.1376 Q1216.08 26.1121 1220.82 26.1121 Q1228.64 26.1121 1232.65 30.9732 Q1236.66 35.7938 1236.66 45.1919 Z" fill="#000000" fill-rule="evenodd" fill-opacity="1" /><path clip-path="url(#clip660)" d="M1315.62 27.2059 L1299.21 49.2833 L1316.47 72.576 L1307.68 72.576 L1294.47 54.752 L1281.26 72.576 L1272.47 72.576 L1290.09 48.8377 L1273.97 27.2059 L1282.76 27.2059 L1294.79 43.369 L1306.82 27.2059 L1315.62 27.2059 Z" fill="#000000" fill-rule="evenodd" fill-opacity="1" /><path clip-path="url(#clip660)" d="M1344.9 9.62495 Q1339.48 18.942 1336.84 28.0566 Q1334.21 37.1711 1334.21 46.5287 Q1334.21 55.8863 1336.84 65.0818 Q1339.52 74.2369 1344.9 83.5134 L1338.42 83.5134 Q1332.35 73.9938 1329.31 64.7983 Q1326.31 55.6027 1326.31 46.5287 Q1326.31 37.4952 1329.31 28.3401 Q1332.3 19.1851 1338.42 9.62495 L1344.9 9.62495 Z" fill="#000000" fill-rule="evenodd" fill-opacity="1" /><path clip-path="url(#clip660)" d="M1366.74 14.324 L1366.74 27.2059 L1382.09 27.2059 L1382.09 32.9987 L1366.74 32.9987 L1366.74 57.6282 Q1366.74 63.1779 1368.24 64.7578 Q1369.78 66.3376 1374.43 66.3376 L1382.09 66.3376 L1382.09 72.576 L1374.43 72.576 Q1365.81 72.576 1362.52 69.3758 Q1359.24 66.1351 1359.24 57.6282 L1359.24 32.9987 L1353.77 32.9987 L1353.77 27.2059 L1359.24 27.2059 L1359.24 14.324 L1366.74 14.324 Z" fill="#000000" fill-rule="evenodd" fill-opacity="1" /><path clip-path="url(#clip660)" d="M1390.72 9.62495 L1397.2 9.62495 Q1403.28 19.1851 1406.27 28.3401 Q1409.31 37.4952 1409.31 46.5287 Q1409.31 55.6027 1406.27 64.7983 Q1403.28 73.9938 1397.2 83.5134 L1390.72 83.5134 Q1396.11 74.2369 1398.74 65.0818 Q1401.41 55.8863 1401.41 46.5287 Q1401.41 37.1711 1398.74 28.0566 Q1396.11 18.942 1390.72 9.62495 Z" fill="#000000" fill-rule="evenodd" fill-opacity="1" /><path clip-path="url(#clip660)" d="M1455.45 22.0612 L1440.91 29.92 L1455.45 37.8192 L1453.1 41.7891 L1439.49 33.5658 L1439.49 48.8377 L1434.87 48.8377 L1434.87 33.5658 L1421.26 41.7891 L1418.91 37.8192 L1433.46 29.92 L1418.91 22.0612 L1421.26 18.0508 L1434.87 26.2742 L1434.87 11.0023 L1439.49 11.0023 L1439.49 26.2742 L1453.1 18.0508 L1455.45 22.0612 Z" fill="#000000" fill-rule="evenodd" fill-opacity="1" /><path clip-path="url(#clip660)" d="M1503.46 45.1919 L1503.46 72.576 L1496 72.576 L1496 45.4349 Q1496 38.994 1493.49 35.7938 Q1490.98 32.5936 1485.96 32.5936 Q1479.92 32.5936 1476.44 36.4419 Q1472.95 40.2903 1472.95 46.9338 L1472.95 72.576 L1465.46 72.576 L1465.46 9.54393 L1472.95 9.54393 L1472.95 34.2544 Q1475.63 30.163 1479.23 28.1376 Q1482.88 26.1121 1487.62 26.1121 Q1495.43 26.1121 1499.45 30.9732 Q1503.46 35.7938 1503.46 45.1919 Z" fill="#000000" fill-rule="evenodd" fill-opacity="1" /><path clip-path="url(#clip660)" d="M1536.23 9.62495 Q1530.8 18.942 1528.17 28.0566 Q1525.53 37.1711 1525.53 46.5287 Q1525.53 55.8863 1528.17 65.0818 Q1530.84 74.2369 1536.23 83.5134 L1529.75 83.5134 Q1523.67 73.9938 1520.63 64.7983 Q1517.63 55.6027 1517.63 46.5287 Q1517.63 37.4952 1520.63 28.3401 Q1523.63 19.1851 1529.75 9.62495 L1536.23 9.62495 Z" fill="#000000" fill-rule="evenodd" fill-opacity="1" /><path clip-path="url(#clip660)" d="M1558.06 14.324 L1558.06 27.2059 L1573.41 27.2059 L1573.41 32.9987 L1558.06 32.9987 L1558.06 57.6282 Q1558.06 63.1779 1559.56 64.7578 Q1561.1 66.3376 1565.76 66.3376 L1573.41 66.3376 L1573.41 72.576 L1565.76 72.576 Q1557.13 72.576 1553.85 69.3758 Q1550.57 66.1351 1550.57 57.6282 L1550.57 32.9987 L1545.1 32.9987 L1545.1 27.2059 L1550.57 27.2059 L1550.57 14.324 L1558.06 14.324 Z" fill="#000000" fill-rule="evenodd" fill-opacity="1" /><path clip-path="url(#clip660)" d="M1582.04 9.62495 L1588.52 9.62495 Q1594.6 19.1851 1597.6 28.3401 Q1600.64 37.4952 1600.64 46.5287 Q1600.64 55.6027 1597.6 64.7983 Q1594.6 73.9938 1588.52 83.5134 L1582.04 83.5134 Q1587.43 74.2369 1590.06 65.0818 Q1592.74 55.8863 1592.74 46.5287 Q1592.74 37.1711 1590.06 28.0566 Q1587.43 18.942 1582.04 9.62495 Z" fill="#000000" fill-rule="evenodd" fill-opacity="1" /><path clip-path="url(#clip660)" d="M1617.49 62.2867 L1626.04 62.2867 L1626.04 69.2543 L1619.39 82.2172 L1614.17 82.2172 L1617.49 69.2543 L1617.49 62.2867 Z" fill="#000000" fill-rule="evenodd" fill-opacity="1" /><path clip-path="url(#clip660)" d="M1686.88 17.4837 Q1680.56 17.4837 1677.36 23.7221 Q1674.2 29.92 1674.2 42.3968 Q1674.2 54.833 1677.36 61.0714 Q1680.56 67.2693 1686.88 67.2693 Q1693.24 67.2693 1696.4 61.0714 Q1699.6 54.833 1699.6 42.3968 Q1699.6 29.92 1696.4 23.7221 Q1693.24 17.4837 1686.88 17.4837 M1686.88 11.0023 Q1697.05 11.0023 1702.4 19.0636 Q1707.78 27.0843 1707.78 42.3968 Q1707.78 57.6687 1702.4 65.73 Q1697.05 73.7508 1686.88 73.7508 Q1676.71 73.7508 1671.33 65.73 Q1665.98 57.6687 1665.98 42.3968 Q1665.98 27.0843 1671.33 19.0636 Q1676.71 11.0023 1686.88 11.0023 Z" fill="#000000" fill-rule="evenodd" fill-opacity="1" /><path clip-path="url(#clip660)" d="M1800.39 31.7429 L1758.58 46.6097 L1800.39 61.3955 L1800.39 68.7682 L1748.45 49.9314 L1748.45 43.2069 L1800.39 24.3702 L1800.39 31.7429 Z" fill="#000000" fill-rule="evenodd" fill-opacity="1" /><path clip-path="url(#clip660)" d="M1850.74 14.324 L1850.74 27.2059 L1866.09 27.2059 L1866.09 32.9987 L1850.74 32.9987 L1850.74 57.6282 Q1850.74 63.1779 1852.24 64.7578 Q1853.78 66.3376 1858.44 66.3376 L1866.09 66.3376 L1866.09 72.576 L1858.44 72.576 Q1849.81 72.576 1846.53 69.3758 Q1843.25 66.1351 1843.25 57.6282 L1843.25 32.9987 L1837.78 32.9987 L1837.78 27.2059 L1843.25 27.2059 L1843.25 14.324 L1850.74 14.324 Z" fill="#000000" fill-rule="evenodd" fill-opacity="1" /><path clip-path="url(#clip660)" d="M1955.17 31.7429 L1913.37 46.6097 L1955.17 61.3955 L1955.17 68.7682 L1903.24 49.9314 L1903.24 43.2069 L1955.17 24.3702 L1955.17 31.7429 Z" fill="#000000" fill-rule="evenodd" fill-opacity="1" /><path clip-path="url(#clip660)" d="M2006.25 65.6895 L2034.81 65.6895 L2034.81 72.576 L1996.41 72.576 L1996.41 65.6895 Q2001.07 60.8689 2009.09 52.7671 Q2017.15 44.6248 2019.22 42.2752 Q2023.15 37.8598 2024.69 34.8216 Q2026.27 31.7429 2026.27 28.7857 Q2026.27 23.9651 2022.86 20.927 Q2019.5 17.8888 2014.07 17.8888 Q2010.22 17.8888 2005.93 19.2256 Q2001.68 20.5624 1996.82 23.2765 L1996.82 15.0127 Q2001.76 13.0277 2006.05 12.015 Q2010.35 11.0023 2013.91 11.0023 Q2023.31 11.0023 2028.9 15.7013 Q2034.49 20.4004 2034.49 28.2591 Q2034.49 31.9859 2033.07 35.3482 Q2031.69 38.6699 2028.01 43.2069 Q2026.99 44.3817 2021.57 50.0125 Q2016.14 55.6027 2006.25 65.6895 Z" fill="#000000" fill-rule="evenodd" fill-opacity="1" /><polyline clip-path="url(#clip662)" style="stroke:#009af9; stroke-linecap:round; stroke-linejoin:round; stroke-width:4; stroke-opacity:1; fill:none" points="
  229.231,964.286 241.933,964.286 359.387,964.286 429.971,964.286 489.65,964.286 554.477,964.286 614.242,964.286 678.317,964.286 752.553,964.286 818.526,964.286 
  876.378,964.286 939.453,964.286 1002.9,964.286 1073.05,964.286 1139.8,964.286 1209.2,964.286 1267.62,964.286 1338.95,964.286 1404.29,964.286 1464.63,964.286 
  1525.76,964.286 1594.27,964.286 1656.35,964.286 1691.89,964.286 1727.42,964.286 1743.88,964.286 1760.33,964.286 1768.56,964.286 1776.78,964.286 1780.9,964.286 
  1785.01,964.286 1786.04,964.286 1787.07,964.286 1787.58,964.286 1788.09,964.286 1788.61,964.286 1789.12,964.286 1789.64,964.286 1790.15,1753.43 1790.66,1753.43 
  1791.18,1753.43 1792.21,1753.43 1793.24,1753.43 1795.26,1753.43 1797.29,1753.43 1799.32,1753.43 1801.35,1753.43 1805.4,1753.43 1809.46,1753.43 1817.57,1753.43 
  1825.68,1753.43 1841.9,1753.43 1858.12,1753.43 1889.61,1753.43 1921.11,1753.43 1985.69,1753.43 2056.44,1753.43 2159.22,1753.43 2180.3,1753.43 
  "/>
<polyline clip-path="url(#clip662)" style="stroke:#e26f46; stroke-linecap:round; stroke-linejoin:round; stroke-width:4; stroke-opacity:1; fill:none" points="
  229.231,1753.43 244.474,1753.43 385.418,1753.43 470.119,1753.43 541.733,1753.43 561.182,1753.43 580.63,1753.43 590.354,1753.43 600.078,1753.43 604.94,1753.43 
  609.802,1753.43 614.664,1753.43 619.526,1753.27 624.009,1744.2 628.491,1735.14 632.973,1726.07 637.456,1717.01 646.421,1698.88 655.385,1680.75 673.315,1644.49 
  691.244,1608.23 768.134,1452.73 857.218,1272.57 936.385,1112.47 1005.81,972.075 1081.5,819.006 1157.64,665.027 1241.82,494.783 1321.91,332.801 1342.74,290.695 
  1363.56,248.589 1373.97,227.536 1384.38,206.483 1389.58,195.957 1394.79,185.43 1397.39,180.167 1399.99,175.141 1402.59,175.141 1405.2,175.141 1413.96,175.141 
  1422.72,175.141 1431.49,175.141 1440.25,175.141 1457.78,175.141 1475.3,175.141 1560.89,175.141 1639.3,175.141 1711.71,175.141 1785.07,175.141 1867.28,175.141 
  1941.77,175.141 1984.42,175.141 2027.06,175.141 2066.55,175.141 2106.04,175.141 2125.5,175.141 2144.96,175.141 2154.7,175.141 2164.43,175.141 2169.29,175.141 
  2174.16,175.141 2175.38,175.141 2176.59,175.141 2177.81,175.141 2179.03,175.141 2179.64,175.141 2180.24,175.141 2180.85,1753.43 2181.46,1753.43 2182.07,1753.43 
  2182.68,1753.43 2183.28,1753.43 2183.89,1753.43 2186.26,1753.43 2188.62,1753.43 2190.98,1753.43 2193.34,1753.43 2198.07,1753.43 2202.79,1753.43 2212.24,1753.43 
  2221.69,1753.43 2240.59,1753.43 2259.49,1753.43 2336.98,1753.43 2421.88,1753.43 2545.21,1753.43 2570.52,1753.43 
  "/>
<path clip-path="url(#clip660)" d="
M2110.47 339.078 L2558.03 339.078 L2558.03 183.558 L2110.47 183.558  Z
  " fill="#ffffff" fill-rule="evenodd" fill-opacity="1"/>
<polyline clip-path="url(#clip660)" style="stroke:#000000; stroke-linecap:round; stroke-linejoin:round; stroke-width:4; stroke-opacity:1; fill:none" points="
  2110.47,339.078 2558.03,339.078 2558.03,183.558 2110.47,183.558 2110.47,339.078 
  "/>
<polyline clip-path="url(#clip660)" style="stroke:#009af9; stroke-linecap:round; stroke-linejoin:round; stroke-width:4; stroke-opacity:1; fill:none" points="
  2138.05,235.398 2303.5,235.398 
  "/>
<path clip-path="url(#clip660)" d="M2354.96 229.237 Q2354.96 230.548 2354.14 231.298 Q2353.32 232.024 2352.39 232.024 Q2351.5 232.024 2351.03 231.509 Q2350.56 230.994 2350.56 230.338 Q2350.56 229.448 2351.22 228.675 Q2351.87 227.902 2352.86 227.738 Q2351.9 227.129 2350.47 227.129 Q2349.53 227.129 2348.71 227.621 Q2347.91 228.113 2347.42 228.745 Q2346.95 229.377 2346.53 230.291 Q2346.13 231.181 2345.97 231.72 Q2345.83 232.235 2345.71 232.797 L2344.07 239.355 Q2343.28 242.471 2343.28 243.571 Q2343.28 244.93 2343.93 245.843 Q2344.59 246.733 2345.9 246.733 Q2346.41 246.733 2347 246.593 Q2347.59 246.429 2348.33 246.007 Q2349.11 245.562 2349.79 244.906 Q2350.49 244.227 2351.17 243.079 Q2351.85 241.932 2352.29 240.456 Q2352.43 239.941 2352.9 239.941 Q2353.49 239.941 2353.49 240.409 Q2353.49 240.808 2353.16 241.651 Q2352.86 242.471 2352.18 243.548 Q2351.52 244.602 2350.65 245.562 Q2349.79 246.499 2348.5 247.155 Q2347.21 247.811 2345.81 247.811 Q2343.79 247.811 2342.46 246.733 Q2341.12 245.656 2340.63 244.157 Q2340.51 244.368 2340.35 244.649 Q2340.18 244.93 2339.69 245.562 Q2339.22 246.171 2338.68 246.64 Q2338.15 247.085 2337.3 247.436 Q2336.48 247.811 2335.59 247.811 Q2334.47 247.811 2333.46 247.483 Q2332.48 247.155 2331.78 246.405 Q2331.07 245.656 2331.07 244.625 Q2331.07 243.478 2331.85 242.681 Q2332.64 241.862 2333.72 241.862 Q2334.4 241.862 2334.94 242.26 Q2335.5 242.658 2335.5 243.525 Q2335.5 244.485 2334.84 245.211 Q2334.19 245.937 2333.25 246.124 Q2334.21 246.733 2335.64 246.733 Q2337.19 246.733 2338.4 245.375 Q2339.62 244.016 2340.21 241.744 Q2341.66 236.287 2342.22 233.851 Q2342.78 231.392 2342.78 230.338 Q2342.78 229.354 2342.53 228.675 Q2342.27 227.995 2341.82 227.691 Q2341.4 227.363 2341 227.246 Q2340.63 227.129 2340.21 227.129 Q2339.5 227.129 2338.71 227.41 Q2337.94 227.691 2337 228.347 Q2336.08 228.979 2335.22 230.291 Q2334.35 231.602 2333.77 233.406 Q2333.65 233.945 2333.13 233.945 Q2332.57 233.921 2332.57 233.453 Q2332.57 233.055 2332.88 232.235 Q2333.2 231.392 2333.86 230.338 Q2334.54 229.284 2335.41 228.347 Q2336.3 227.386 2337.58 226.731 Q2338.9 226.075 2340.3 226.075 Q2340.93 226.075 2341.54 226.215 Q2342.17 226.332 2342.92 226.684 Q2343.7 227.035 2344.38 227.808 Q2345.06 228.581 2345.48 229.705 Q2345.76 229.167 2346.13 228.651 Q2346.53 228.136 2347.14 227.504 Q2347.77 226.848 2348.64 226.473 Q2349.53 226.075 2350.51 226.075 Q2351.47 226.075 2352.41 226.332 Q2353.35 226.567 2354.14 227.34 Q2354.96 228.089 2354.96 229.237 Z" fill="#000000" fill-rule="evenodd" fill-opacity="1" /><path clip-path="url(#clip660)" d="M2361.31 235.28 Q2361.31 227.176 2364.33 220.641 Q2365.62 217.9 2367.42 215.605 Q2369.23 213.31 2370.42 212.302 Q2371.62 211.295 2371.94 211.295 Q2372.41 211.295 2372.44 211.764 Q2372.44 211.998 2371.8 212.583 Q2364.07 220.453 2364.1 235.28 Q2364.1 250.153 2371.62 257.719 Q2372.44 258.538 2372.44 258.796 Q2372.44 259.264 2371.94 259.264 Q2371.62 259.264 2370.47 258.304 Q2369.32 257.344 2367.54 255.142 Q2365.76 252.94 2364.47 250.247 Q2361.31 243.712 2361.31 235.28 Z" fill="#000000" fill-rule="evenodd" fill-opacity="1" /><path clip-path="url(#clip660)" d="M2390.82 227.129 Q2390.82 227.785 2390.51 227.949 Q2390.21 228.089 2389.36 228.089 L2384.87 228.089 L2381.31 242.236 Q2381.03 243.478 2381.03 244.532 Q2381.03 245.703 2381.38 246.218 Q2381.75 246.733 2382.52 246.733 Q2384.05 246.733 2385.69 245.351 Q2387.35 243.97 2388.76 240.597 Q2388.94 240.152 2389.04 240.058 Q2389.15 239.941 2389.46 239.941 Q2390.04 239.941 2390.04 240.409 Q2390.04 240.573 2389.72 241.323 Q2389.41 242.072 2388.73 243.173 Q2388.08 244.274 2387.21 245.305 Q2386.37 246.335 2385.08 247.085 Q2383.79 247.811 2382.41 247.811 Q2380.46 247.811 2379.22 246.569 Q2378 245.328 2378 243.384 Q2378 242.752 2378.5 240.737 Q2378.99 238.7 2381.66 228.089 L2377.42 228.089 Q2376.83 228.089 2376.6 228.066 Q2376.39 228.042 2376.22 227.925 Q2376.08 227.785 2376.08 227.504 Q2376.08 227.059 2376.27 226.871 Q2376.46 226.66 2376.69 226.637 Q2376.95 226.59 2377.54 226.59 L2382.03 226.59 L2383.91 218.978 Q2384.09 218.228 2384.56 217.807 Q2385.05 217.362 2385.34 217.315 Q2385.62 217.245 2385.83 217.245 Q2386.46 217.245 2386.83 217.596 Q2387.21 217.924 2387.21 218.533 Q2387.21 218.861 2385.24 226.59 L2389.46 226.59 Q2390 226.59 2390.21 226.614 Q2390.44 226.637 2390.63 226.754 Q2390.82 226.871 2390.82 227.129 Z" fill="#000000" fill-rule="evenodd" fill-opacity="1" /><path clip-path="url(#clip660)" d="M2438.21 234.601 Q2438.49 234.882 2438.49 235.28 Q2438.49 235.678 2438.21 235.959 Q2437.93 236.24 2437.53 236.24 L2407.5 236.24 Q2407.1 236.24 2406.82 235.959 Q2406.54 235.678 2406.54 235.28 Q2406.54 234.882 2406.82 234.601 Q2407.1 234.32 2407.5 234.32 L2437.53 234.32 Q2437.93 234.32 2438.21 234.601 Z" fill="#000000" fill-rule="evenodd" fill-opacity="1" /><path clip-path="url(#clip660)" d="M2480.04 227.738 Q2480.04 229.377 2477.68 229.377 L2469.62 229.377 L2466.41 245.797 Q2466.34 246.218 2466.25 246.452 Q2466.18 246.687 2465.97 247.085 Q2465.78 247.459 2465.38 247.647 Q2465.01 247.858 2464.44 247.858 Q2463.74 247.858 2463.39 247.436 Q2463.06 247.038 2463.06 246.546 Q2463.06 246.242 2463.53 244.789 L2468.24 229.377 L2464.26 229.377 Q2460.51 229.377 2458.17 233.078 Q2457.79 233.57 2457.58 233.617 Q2457.49 233.64 2457.39 233.64 Q2457.14 233.64 2456.97 233.523 Q2456.83 233.406 2456.83 233.289 L2456.81 233.172 Q2456.81 233.008 2457.18 232.352 Q2457.58 231.673 2458.28 230.666 Q2459.01 229.658 2459.74 228.862 Q2460.7 227.831 2461.77 227.293 Q2462.85 226.731 2463.39 226.66 Q2463.95 226.59 2464.68 226.59 L2478.12 226.59 Q2478.73 226.59 2479.06 226.637 Q2479.39 226.66 2479.71 226.941 Q2480.04 227.199 2480.04 227.738 Z" fill="#000000" fill-rule="evenodd" fill-opacity="1" /><path clip-path="url(#clip660)" d="M2484.46 258.796 Q2484.46 258.562 2485.07 257.976 Q2492.8 250.106 2492.8 235.28 Q2492.8 220.407 2485.37 212.888 Q2484.46 212.021 2484.46 211.764 Q2484.46 211.295 2484.93 211.295 Q2485.26 211.295 2486.4 212.256 Q2487.57 213.216 2489.33 215.418 Q2491.11 217.619 2492.42 220.313 Q2495.59 226.848 2495.59 235.28 Q2495.59 243.384 2492.56 249.919 Q2491.28 252.659 2489.47 254.955 Q2487.67 257.25 2486.47 258.257 Q2485.28 259.264 2484.93 259.264 Q2484.46 259.264 2484.46 258.796 Z" fill="#000000" fill-rule="evenodd" fill-opacity="1" /><polyline clip-path="url(#clip660)" style="stroke:#e26f46; stroke-linecap:round; stroke-linejoin:round; stroke-width:4; stroke-opacity:1; fill:none" points="
  2138.05,287.238 2303.5,287.238 
  "/>
<path clip-path="url(#clip660)" d="M2354.61 292.249 Q2354.61 292.437 2354.4 293.163 Q2354.19 293.889 2353.68 295.013 Q2353.18 296.137 2352.5 297.168 Q2351.82 298.175 2350.7 298.925 Q2349.6 299.651 2348.33 299.651 Q2346.65 299.651 2345.52 298.527 Q2344.4 297.402 2344.4 295.716 Q2344.4 295.482 2344.42 295.247 Q2344.45 295.013 2344.47 294.873 Q2344.49 294.709 2344.56 294.451 Q2344.66 294.17 2344.68 294.053 Q2344.73 293.936 2344.84 293.584 Q2344.99 293.21 2345.03 293.069 Q2348.01 285.48 2348.01 282.318 Q2348.01 278.969 2345.41 278.969 Q2343.09 278.969 2340.79 280.655 Q2339.74 281.498 2338.73 282.997 Q2337.72 284.497 2337.54 285.059 Q2337.33 286.277 2337.02 287.214 Q2336.88 287.869 2336.2 290.422 L2335.15 294.756 L2334.23 298.386 Q2334.05 298.901 2333.53 299.276 Q2333.02 299.651 2332.45 299.651 Q2331.99 299.651 2331.52 299.323 Q2331.07 299.018 2331.07 298.292 Q2331.07 297.918 2331.26 297.238 L2338.22 269.6 L2338.36 268.663 Q2338.36 268.382 2338.24 268.241 Q2338.15 268.077 2337.58 267.96 Q2337.05 267.843 2335.97 267.843 Q2335.52 267.843 2335.31 267.82 Q2335.12 267.796 2334.96 267.679 Q2334.8 267.539 2334.8 267.258 Q2334.8 266.859 2334.96 266.649 Q2335.15 266.414 2335.29 266.368 Q2335.43 266.321 2335.71 266.297 Q2336.11 266.274 2337.44 266.157 Q2338.78 266.016 2339.93 265.923 Q2341.07 265.829 2341.57 265.829 Q2341.85 265.829 2341.99 265.969 Q2342.15 266.086 2342.17 266.227 L2342.2 266.344 L2338.45 281.592 Q2341.43 277.915 2345.55 277.915 Q2348.22 277.915 2349.65 279.297 Q2351.08 280.655 2351.08 283.044 Q2351.08 285.785 2348.15 293.584 Q2347.28 295.763 2347.28 297.004 Q2347.28 297.824 2347.54 298.199 Q2347.82 298.573 2348.43 298.573 Q2349.37 298.573 2350.19 298.035 Q2351.03 297.473 2351.61 296.559 Q2352.2 295.622 2352.6 294.685 Q2353.02 293.725 2353.32 292.648 Q2353.51 292.062 2353.6 291.921 Q2353.72 291.781 2354.05 291.781 Q2354.61 291.781 2354.61 292.249 Z" fill="#000000" fill-rule="evenodd" fill-opacity="1" /><path clip-path="url(#clip660)" d="M2360.54 287.12 Q2360.54 279.016 2363.56 272.481 Q2364.85 269.74 2366.65 267.445 Q2368.45 265.15 2369.65 264.142 Q2370.84 263.135 2371.17 263.135 Q2371.64 263.135 2371.66 263.604 Q2371.66 263.838 2371.03 264.423 Q2363.3 272.293 2363.32 287.12 Q2363.32 301.993 2370.84 309.559 Q2371.66 310.378 2371.66 310.636 Q2371.66 311.104 2371.17 311.104 Q2370.84 311.104 2369.69 310.144 Q2368.55 309.184 2366.77 306.982 Q2364.99 304.78 2363.7 302.087 Q2360.54 295.552 2360.54 287.12 Z" fill="#000000" fill-rule="evenodd" fill-opacity="1" /><path clip-path="url(#clip660)" d="M2398.54 279.578 Q2398.54 281.217 2396.18 281.217 L2388.12 281.217 L2384.91 297.637 Q2384.84 298.058 2384.75 298.292 Q2384.68 298.527 2384.47 298.925 Q2384.28 299.299 2383.88 299.487 Q2383.51 299.698 2382.94 299.698 Q2382.24 299.698 2381.89 299.276 Q2381.56 298.878 2381.56 298.386 Q2381.56 298.082 2382.03 296.629 L2386.74 281.217 L2382.76 281.217 Q2379.01 281.217 2376.67 284.918 Q2376.29 285.41 2376.08 285.457 Q2375.99 285.48 2375.89 285.48 Q2375.64 285.48 2375.47 285.363 Q2375.33 285.246 2375.33 285.129 L2375.31 285.012 Q2375.31 284.848 2375.68 284.192 Q2376.08 283.513 2376.78 282.506 Q2377.51 281.498 2378.24 280.702 Q2379.2 279.671 2380.27 279.133 Q2381.35 278.571 2381.89 278.5 Q2382.45 278.43 2383.18 278.43 L2396.62 278.43 Q2397.23 278.43 2397.56 278.477 Q2397.89 278.5 2398.22 278.781 Q2398.54 279.039 2398.54 279.578 Z" fill="#000000" fill-rule="evenodd" fill-opacity="1" /><path clip-path="url(#clip660)" d="M2402.96 310.636 Q2402.96 310.402 2403.57 309.816 Q2411.3 301.946 2411.3 287.12 Q2411.3 272.247 2403.87 264.728 Q2402.96 263.861 2402.96 263.604 Q2402.96 263.135 2403.43 263.135 Q2403.76 263.135 2404.91 264.096 Q2406.08 265.056 2407.83 267.258 Q2409.61 269.459 2410.93 272.153 Q2414.09 278.688 2414.09 287.12 Q2414.09 295.224 2411.07 301.759 Q2409.78 304.499 2407.97 306.795 Q2406.17 309.09 2404.98 310.097 Q2403.78 311.104 2403.43 311.104 Q2402.96 311.104 2402.96 310.636 Z" fill="#000000" fill-rule="evenodd" fill-opacity="1" /></svg>
